gortondigitalMedium.ufo
<glyph name="exclam" format="2">
  <advance width="1084"/>
  <unicode hex="0021"/>
  <outline>
    <contour>
      <point x="122" y="210" type="curve" smooth="yes"/>
      <point x="122" y="355"/>
      <point x="239" y="472"/>
      <point x="384" y="472" type="curve" smooth="yes"/>
      <point x="529" y="472"/>
      <point x="646" y="355"/>
      <point x="646" y="210" type="curve" smooth="yes"/>
      <point x="646" y="65"/>
      <point x="529" y="-52"/>
      <point x="384" y="-52" type="curve" smooth="yes"/>
      <point x="239" y="-52"/>
      <point x="122" y="65"/>
    </contour>
    <contour>
      <point x="156" y="1680" type="curve" smooth="yes"/>
      <point x="156" y="2450" type="line" smooth="yes"/>
      <point x="156" y="2575"/>
      <point x="258" y="2678"/>
      <point x="384" y="2678" type="curve" smooth="yes"/>
      <point x="510" y="2678"/>
      <point x="612" y="2575"/>
      <point x="612" y="2450" type="curve" smooth="yes"/>
      <point x="612" y="1680" type="line" smooth="yes"/>
      <point x="612" y="1676"/>
      <point x="611" y="1671"/>
      <point x="611" y="1667" type="curve" smooth="yes"/>
      <point x="541" y="827" type="line" smooth="yes"/>
      <point x="534" y="746"/>
      <point x="466" y="683"/>
      <point x="384" y="683" type="curve" smooth="yes"/>
      <point x="302" y="683"/>
      <point x="234" y="746"/>
      <point x="227" y="827" type="curve" smooth="yes"/>
      <point x="157" y="1667" type="line" smooth="yes"/>
      <point x="157" y="1671"/>
      <point x="156" y="1676"/>
    </contour>
    <contour>
      <point x="332" y="210" type="line"/>
      <point x="384" y="158" type="line"/>
      <point x="436" y="210" type="line"/>
      <point x="384" y="262" type="line"/>
    </contour>
  </outline>
</glyph>
<glyph name="quotedbl" format="2">
  <advance width="1854"/>
  <unicode hex="0022"/>
  <outline>
    <contour>
      <point x="156" y="2380" type="curve" smooth="yes"/>
      <point x="156" y="2450" type="line" smooth="yes"/>
      <point x="156" y="2575"/>
      <point x="258" y="2678"/>
      <point x="384" y="2678" type="curve" smooth="yes"/>
      <point x="510" y="2678"/>
      <point x="612" y="2575"/>
      <point x="612" y="2450" type="curve" smooth="yes"/>
      <point x="612" y="2380" type="line" smooth="yes"/>
      <point x="612" y="2367"/>
      <point x="610" y="2354"/>
      <point x="607" y="2341" type="curve" smooth="yes"/>
      <point x="537" y="2062" type="line" smooth="yes"/>
      <point x="520" y="1992"/>
      <point x="456" y="1943"/>
      <point x="384" y="1943" type="curve" smooth="yes"/>
      <point x="310" y="1943"/>
      <point x="248" y="1994"/>
      <point x="231" y="2062" type="curve" smooth="yes"/>
      <point x="161" y="2342" type="line" smooth="yes"/>
      <point x="158" y="2355"/>
      <point x="156" y="2367"/>
    </contour>
    <contour>
      <point x="926" y="2380" type="curve" smooth="yes"/>
      <point x="926" y="2450" type="line" smooth="yes"/>
      <point x="926" y="2575"/>
      <point x="1028" y="2678"/>
      <point x="1154" y="2678" type="curve" smooth="yes"/>
      <point x="1280" y="2678"/>
      <point x="1382" y="2575"/>
      <point x="1382" y="2450" type="curve" smooth="yes"/>
      <point x="1382" y="2380" type="line" smooth="yes"/>
      <point x="1382" y="2367"/>
      <point x="1380" y="2354"/>
      <point x="1377" y="2341" type="curve" smooth="yes"/>
      <point x="1307" y="2062" type="line" smooth="yes"/>
      <point x="1290" y="1994"/>
      <point x="1228" y="1942"/>
      <point x="1154" y="1942" type="curve" smooth="yes"/>
      <point x="1080" y="1942"/>
      <point x="1018" y="1994"/>
      <point x="1001" y="2062" type="curve" smooth="yes"/>
      <point x="931" y="2342" type="line" smooth="yes"/>
      <point x="928" y="2355"/>
      <point x="926" y="2367"/>
    </contour>
  </outline>
</glyph>
<glyph name="numbersign" format="2">
  <advance width="2656"/>
  <unicode hex="0023"/>
  <outline>
    <contour>
      <point x="196" y="756" type="curve" smooth="yes"/>
      <point x="196" y="843"/>
      <point x="267" y="914"/>
      <point x="354" y="914" type="curve" smooth="yes"/>
      <point x="594" y="914" type="line"/>
      <point x="630" y="1606" type="line"/>
      <point x="406" y="1606" type="line" smooth="yes"/>
      <point x="319" y="1606"/>
      <point x="249" y="1677"/>
      <point x="249" y="1764" type="curve" smooth="yes"/>
      <point x="249" y="1851"/>
      <point x="319" y="1921"/>
      <point x="406" y="1921" type="curve" smooth="yes"/>
      <point x="646" y="1922" type="line"/>
      <point x="679" y="2528" type="line" smooth="yes"/>
      <point x="683" y="2611"/>
      <point x="752" y="2678"/>
      <point x="836" y="2678" type="curve" smooth="yes"/>
      <point x="923" y="2678"/>
      <point x="994" y="2607"/>
      <point x="994" y="2520" type="curve" smooth="yes"/>
      <point x="994" y="2514"/>
      <point x="987" y="2407"/>
      <point x="962" y="1922" type="curve"/>
      <point x="1487" y="1922" type="line"/>
      <point x="1519" y="2528" type="line" smooth="yes"/>
      <point x="1523" y="2611"/>
      <point x="1592" y="2678"/>
      <point x="1676" y="2678" type="curve" smooth="yes"/>
      <point x="1763" y="2678"/>
      <point x="1834" y="2607"/>
      <point x="1834" y="2520" type="curve" smooth="yes"/>
      <point x="1834" y="2514"/>
      <point x="1825" y="2360"/>
      <point x="1803" y="1922" type="curve"/>
      <point x="2026" y="1921" type="line" smooth="yes"/>
      <point x="2113" y="1921"/>
      <point x="2184" y="1851"/>
      <point x="2184" y="1764" type="curve" smooth="yes"/>
      <point x="2184" y="1677"/>
      <point x="2113" y="1606"/>
      <point x="2026" y="1606" type="curve" smooth="yes"/>
      <point x="1786" y="1606" type="line"/>
      <point x="1750" y="914" type="line"/>
      <point x="1974" y="914" type="line" smooth="yes"/>
      <point x="2061" y="914"/>
      <point x="2131" y="843"/>
      <point x="2131" y="756" type="curve" smooth="yes"/>
      <point x="2131" y="669"/>
      <point x="2061" y="599"/>
      <point x="1974" y="599" type="curve" smooth="yes"/>
      <point x="1734" y="598" type="line"/>
      <point x="1701" y="-9" type="line" smooth="yes"/>
      <point x="1697" y="-92"/>
      <point x="1628" y="-158"/>
      <point x="1544" y="-158" type="curve" smooth="yes"/>
      <point x="1457" y="-158"/>
      <point x="1386" y="-87"/>
      <point x="1386" y="-0" type="curve" smooth="yes"/>
      <point x="1386" y="6"/>
      <point x="1393" y="114"/>
      <point x="1418" y="598" type="curve"/>
      <point x="893" y="598" type="line"/>
      <point x="861" y="-8" type="line" smooth="yes"/>
      <point x="857" y="-91"/>
      <point x="788" y="-158"/>
      <point x="704" y="-158" type="curve" smooth="yes"/>
      <point x="617" y="-158"/>
      <point x="546" y="-87"/>
      <point x="546" y="-0" type="curve" smooth="yes"/>
      <point x="546" y="6"/>
      <point x="555" y="161"/>
      <point x="577" y="598" type="curve"/>
      <point x="354" y="599" type="line" smooth="yes"/>
      <point x="267" y="599"/>
      <point x="196" y="669"/>
    </contour>
    <contour>
      <point x="910" y="914" type="line"/>
      <point x="1434" y="914" type="line"/>
      <point x="1470" y="1606" type="line"/>
      <point x="946" y="1606" type="line"/>
    </contour>
  </outline>
</glyph>
<glyph name="dollar" format="2">
  <advance width="2665"/>
  <unicode hex="0024"/>
  <outline>
    <contour>
      <point x="156" y="750" type="curve" smooth="yes"/>
      <point x="156" y="837"/>
      <point x="227" y="908"/>
      <point x="314" y="908" type="curve" smooth="yes"/>
      <point x="387" y="908"/>
      <point x="450" y="857"/>
      <point x="467" y="789" type="curve" smooth="yes"/>
      <point x="517" y="594"/>
      <point x="516" y="594"/>
      <point x="517" y="591" type="curve" smooth="yes"/>
      <point x="558" y="403"/>
      <point x="738" y="246"/>
      <point x="975" y="185" type="curve"/>
      <point x="998" y="1196" type="line"/>
      <point x="557" y="1246"/>
      <point x="221" y="1556"/>
      <point x="221" y="1933" type="curve" smooth="yes"/>
      <point x="221" y="2319"/>
      <point x="575" y="2637"/>
      <point x="1032" y="2674" type="curve"/>
      <point x="1035" y="2804" type="line" smooth="yes"/>
      <point x="1037" y="2889"/>
      <point x="1107" y="2958"/>
      <point x="1193" y="2958" type="curve" smooth="yes"/>
      <point x="1280" y="2958"/>
      <point x="1350" y="2887"/>
      <point x="1350" y="2800" type="curve" smooth="yes"/>
      <point x="1350" y="2798"/>
      <point x="1350" y="2798"/>
      <point x="1347" y="2654" type="curve"/>
      <point x="1463" y="2630"/>
      <point x="1775" y="2539"/>
      <point x="1939" y="2249" type="curve" smooth="yes"/>
      <point x="1974" y="2186"/>
      <point x="2024" y="1990"/>
      <point x="2024" y="1933" type="curve" smooth="yes"/>
      <point x="2024" y="1846"/>
      <point x="1953" y="1776"/>
      <point x="1866" y="1776" type="curve" smooth="yes"/>
      <point x="1787" y="1776"/>
      <point x="1721" y="1834"/>
      <point x="1710" y="1910" type="curve" smooth="yes"/>
      <point x="1706" y="1938"/>
      <point x="1692" y="2024"/>
      <point x="1661" y="2101" type="curve"/>
      <point x="1630" y="2154"/>
      <point x="1539" y="2271"/>
      <point x="1339" y="2331" type="curve"/>
      <point x="1320" y="1498" type="line"/>
      <point x="1813" y="1446"/>
      <point x="2192" y="1096"/>
      <point x="2192" y="673" type="curve" smooth="yes"/>
      <point x="2192" y="254"/>
      <point x="1812" y="-115"/>
      <point x="1283" y="-154" type="curve"/>
      <point x="1280" y="-284" type="line" smooth="yes"/>
      <point x="1278" y="-369"/>
      <point x="1208" y="-438"/>
      <point x="1122" y="-438" type="curve" smooth="yes"/>
      <point x="1035" y="-438"/>
      <point x="965" y="-367"/>
      <point x="965" y="-280" type="curve" smooth="yes"/>
      <point x="965" y="-278"/>
      <point x="965" y="-279"/>
      <point x="968" y="-137" type="curve"/>
      <point x="823" y="-109"/>
      <point x="338" y="20"/>
      <point x="210" y="521" type="curve" smooth="yes"/>
      <point x="161" y="711" type="line" smooth="yes"/>
      <point x="158" y="723"/>
      <point x="156" y="737"/>
    </contour>
    <contour>
      <point x="536" y="1933" type="curve" smooth="yes"/>
      <point x="536" y="1738"/>
      <point x="727" y="1555"/>
      <point x="1006" y="1513" type="curve"/>
      <point x="1025" y="2356" type="line"/>
      <point x="749" y="2321"/>
      <point x="536" y="2142"/>
    </contour>
    <contour>
      <point x="1290" y="163" type="line"/>
      <point x="1620" y="199"/>
      <point x="1877" y="416"/>
      <point x="1877" y="673" type="curve" smooth="yes"/>
      <point x="1877" y="914"/>
      <point x="1646" y="1136"/>
      <point x="1313" y="1181" type="curve"/>
    </contour>
  </outline>
</glyph>
<glyph name="percent" format="2">
  <advance width="3464"/>
  <unicode hex="0025"/>
  <outline>
    <contour>
      <point x="156" y="1851" type="curve" smooth="yes"/>
      <point x="156" y="2311"/>
      <point x="441" y="2678"/>
      <point x="795" y="2678" type="curve" smooth="yes"/>
      <point x="1149" y="2678"/>
      <point x="1434" y="2311"/>
      <point x="1434" y="1851" type="curve" smooth="yes"/>
      <point x="1434" y="1391"/>
      <point x="1149" y="1024"/>
      <point x="795" y="1024" type="curve" smooth="yes"/>
      <point x="441" y="1024"/>
      <point x="156" y="1391"/>
    </contour>
    <contour>
      <point x="157" y="0" type="curve" smooth="yes"/>
      <point x="157" y="43"/>
      <point x="174" y="82"/>
      <point x="203" y="111" type="curve" smooth="yes"/>
      <point x="2723" y="2631" type="line" smooth="yes"/>
      <point x="2752" y="2660"/>
      <point x="2791" y="2677"/>
      <point x="2834" y="2677" type="curve" smooth="yes"/>
      <point x="2921" y="2677"/>
      <point x="2991" y="2607"/>
      <point x="2991" y="2520" type="curve" smooth="yes"/>
      <point x="2991" y="2477"/>
      <point x="2973" y="2438"/>
      <point x="2945" y="2409" type="curve" smooth="yes"/>
      <point x="425" y="-111" type="line" smooth="yes"/>
      <point x="396" y="-139"/>
      <point x="357" y="-157"/>
      <point x="314" y="-157" type="curve" smooth="yes"/>
      <point x="227" y="-157"/>
      <point x="157" y="-87"/>
    </contour>
    <contour>
      <point x="472" y="1851" type="curve" smooth="yes"/>
      <point x="472" y="1568"/>
      <point x="626" y="1340"/>
      <point x="795" y="1340" type="curve" smooth="yes"/>
      <point x="964" y="1340"/>
      <point x="1118" y="1568"/>
      <point x="1118" y="1851" type="curve" smooth="yes"/>
      <point x="1118" y="2134"/>
      <point x="964" y="2362"/>
      <point x="795" y="2362" type="curve" smooth="yes"/>
      <point x="626" y="2362"/>
      <point x="472" y="2134"/>
    </contour>
    <contour>
      <point x="1714" y="669" type="curve" smooth="yes"/>
      <point x="1714" y="1129"/>
      <point x="1999" y="1496"/>
      <point x="2353" y="1496" type="curve" smooth="yes"/>
      <point x="2707" y="1496"/>
      <point x="2992" y="1129"/>
      <point x="2992" y="669" type="curve" smooth="yes"/>
      <point x="2992" y="209"/>
      <point x="2707" y="-158"/>
      <point x="2353" y="-158" type="curve" smooth="yes"/>
      <point x="1999" y="-158"/>
      <point x="1714" y="209"/>
    </contour>
    <contour>
      <point x="2030" y="669" type="curve" smooth="yes"/>
      <point x="2030" y="386"/>
      <point x="2184" y="158"/>
      <point x="2353" y="158" type="curve" smooth="yes"/>
      <point x="2522" y="158"/>
      <point x="2676" y="386"/>
      <point x="2676" y="669" type="curve" smooth="yes"/>
      <point x="2676" y="952"/>
      <point x="2522" y="1180"/>
      <point x="2353" y="1180" type="curve" smooth="yes"/>
      <point x="2184" y="1180"/>
      <point x="2030" y="952"/>
    </contour>
  </outline>
</glyph>
<glyph name="ampersand" format="2">
  <advance width="2912"/>
  <unicode hex="0026"/>
  <outline>
    <contour>
      <point x="1749" y="236" type="curve"/>
      <point x="1633" y="7"/>
      <point x="1462" y="-158"/>
      <point x="1078" y="-158" type="curve" smooth="yes"/>
      <point x="606" y="-158"/>
      <point x="156" y="197"/>
      <point x="156" y="668" type="curve" smooth="yes"/>
      <point x="156" y="1093"/>
      <point x="503" y="1353"/>
      <point x="762" y="1517" type="curve"/>
      <point x="701" y="1663"/>
      <point x="626" y="1879"/>
      <point x="626" y="2072" type="curve" smooth="yes"/>
      <point x="626" y="2417"/>
      <point x="835" y="2678"/>
      <point x="1114" y="2678" type="curve" smooth="yes"/>
      <point x="1433" y="2678"/>
      <point x="1686" y="2437"/>
      <point x="1686" y="2132" type="curve" smooth="yes"/>
      <point x="1686" y="1998"/>
      <point x="1625" y="1704"/>
      <point x="1168" y="1397" type="curve"/>
      <point x="1220" y="1306"/>
      <point x="1357" y="1083"/>
      <point x="1639" y="783" type="curve"/>
      <point x="1696" y="909"/>
      <point x="1753" y="1013"/>
      <point x="1815" y="1107" type="curve" smooth="yes"/>
      <point x="1843" y="1150"/>
      <point x="1891" y="1178"/>
      <point x="1946" y="1178" type="curve" smooth="yes"/>
      <point x="2033" y="1178"/>
      <point x="2104" y="1107"/>
      <point x="2104" y="1020" type="curve" smooth="yes"/>
      <point x="2104" y="920"/>
      <point x="2041" y="941"/>
      <point x="1879" y="544" type="curve"/>
      <point x="2020" y="412"/>
      <point x="2185" y="272"/>
      <point x="2377" y="125" type="curve" smooth="yes"/>
      <point x="2377" y="124"/>
      <point x="2439" y="84"/>
      <point x="2439" y="-0" type="curve" smooth="yes"/>
      <point x="2439" y="-87"/>
      <point x="2369" y="-157"/>
      <point x="2282" y="-157" type="curve" smooth="yes"/>
      <point x="2246" y="-157"/>
      <point x="2213" y="-145"/>
      <point x="2187" y="-125" type="curve" smooth="yes"/>
      <point x="2023" y="0"/>
      <point x="1878" y="120"/>
    </contour>
    <contour>
      <point x="472" y="668" type="curve" smooth="yes"/>
      <point x="472" y="374"/>
      <point x="782" y="158"/>
      <point x="1078" y="158" type="curve" smooth="yes"/>
      <point x="1350" y="158"/>
      <point x="1418" y="255"/>
      <point x="1508" y="466" type="curve"/>
      <point x="1412" y="563"/>
      <point x="1107" y="874"/>
      <point x="900" y="1231" type="curve"/>
      <point x="629" y="1055"/>
      <point x="472" y="886"/>
    </contour>
    <contour>
      <point x="1114" y="2362" type="curve" smooth="yes"/>
      <point x="1012" y="2362"/>
      <point x="942" y="2226"/>
      <point x="942" y="2072" type="curve" smooth="yes"/>
      <point x="942" y="2045"/>
      <point x="942" y="1919"/>
      <point x="1033" y="1687" type="curve"/>
      <point x="1106" y="1739"/>
      <point x="1370" y="1943"/>
      <point x="1370" y="2132" type="curve" smooth="yes"/>
      <point x="1370" y="2266"/>
      <point x="1256" y="2362"/>
    </contour>
  </outline>
</glyph>
<glyph name="parenleft" format="2">
  <advance width="1784"/>
  <unicode hex="0028"/>
  <outline>
    <contour>
      <point x="156" y="1260" type="curve" smooth="yes"/>
      <point x="156" y="2086"/>
      <point x="539" y="2790"/>
      <point x="1083" y="3064" type="curve" smooth="yes"/>
      <point x="1104" y="3075"/>
      <point x="1129" y="3081"/>
      <point x="1154" y="3081" type="curve" smooth="yes"/>
      <point x="1241" y="3081"/>
      <point x="1311" y="3010"/>
      <point x="1311" y="2923" type="curve" smooth="yes"/>
      <point x="1311" y="2864"/>
      <point x="1279" y="2809"/>
      <point x="1225" y="2782" type="curve" smooth="yes"/>
      <point x="791" y="2564"/>
      <point x="472" y="1965"/>
      <point x="472" y="1260" type="curve" smooth="yes"/>
      <point x="472" y="862"/>
      <point x="574" y="498"/>
      <point x="738" y="220" type="curve" smooth="yes"/>
      <point x="827" y="70"/>
      <point x="985" y="-141"/>
      <point x="1225" y="-262" type="curve" smooth="yes"/>
      <point x="1276" y="-288"/>
      <point x="1311" y="-341"/>
      <point x="1311" y="-403" type="curve" smooth="yes"/>
      <point x="1311" y="-490"/>
      <point x="1241" y="-561"/>
      <point x="1154" y="-561" type="curve" smooth="yes"/>
      <point x="1129" y="-561"/>
      <point x="1104" y="-555"/>
      <point x="1083" y="-544" type="curve" smooth="yes"/>
      <point x="539" y="-270"/>
      <point x="156" y="434"/>
    </contour>
  </outline>
</glyph>
<glyph name="parenright" format="2">
  <advance width="1784"/>
  <unicode hex="0029"/>
  <outline>
    <contour>
      <point x="156" y="-403" type="curve" smooth="yes"/>
      <point x="156" y="-343"/>
      <point x="189" y="-289"/>
      <point x="243" y="-262" type="curve" smooth="yes"/>
      <point x="677" y="-44"/>
      <point x="996" y="555"/>
      <point x="996" y="1260" type="curve" smooth="yes"/>
      <point x="996" y="1658"/>
      <point x="894" y="2022"/>
      <point x="730" y="2300" type="curve" smooth="yes"/>
      <point x="641" y="2450"/>
      <point x="483" y="2661"/>
      <point x="243" y="2782" type="curve" smooth="yes"/>
      <point x="191" y="2808"/>
      <point x="156" y="2861"/>
      <point x="156" y="2923" type="curve" smooth="yes"/>
      <point x="156" y="3010"/>
      <point x="227" y="3081"/>
      <point x="314" y="3081" type="curve" smooth="yes"/>
      <point x="339" y="3081"/>
      <point x="363" y="3075"/>
      <point x="385" y="3064" type="curve" smooth="yes"/>
      <point x="929" y="2790"/>
      <point x="1311" y="2086"/>
      <point x="1311" y="1260" type="curve" smooth="yes"/>
      <point x="1311" y="434"/>
      <point x="929" y="-270"/>
      <point x="385" y="-544" type="curve" smooth="yes"/>
      <point x="363" y="-555"/>
      <point x="339" y="-561"/>
      <point x="314" y="-561" type="curve" smooth="yes"/>
      <point x="227" y="-561"/>
      <point x="156" y="-490"/>
    </contour>
  </outline>
</glyph>
<glyph name="asterisk" format="2">
  <advance width="2088"/>
  <unicode hex="002A"/>
  <outline>
    <contour>
      <point x="405" y="1527" type="curve" smooth="yes"/>
      <point x="406" y="1528"/>
      <point x="484" y="1637"/>
      <point x="629" y="1836" type="curve"/>
      <point x="265" y="1955" type="line" smooth="yes"/>
      <point x="202" y="1976"/>
      <point x="156" y="2035"/>
      <point x="156" y="2105" type="curve" smooth="yes"/>
      <point x="156" y="2192"/>
      <point x="227" y="2263"/>
      <point x="314" y="2263" type="curve" smooth="yes"/>
      <point x="331" y="2263"/>
      <point x="348" y="2260"/>
      <point x="363" y="2255" type="curve"/>
      <point x="727" y="2137" type="line"/>
      <point x="728" y="2520" type="line" smooth="yes"/>
      <point x="728" y="2607"/>
      <point x="798" y="2677"/>
      <point x="885" y="2677" type="curve" smooth="yes"/>
      <point x="972" y="2677"/>
      <point x="1042" y="2607"/>
      <point x="1042" y="2520" type="curve" smooth="yes"/>
      <point x="1042" y="2136" type="line"/>
      <point x="1410" y="2255" type="line" smooth="yes"/>
      <point x="1425" y="2260"/>
      <point x="1441" y="2262"/>
      <point x="1458" y="2262" type="curve" smooth="yes"/>
      <point x="1545" y="2262"/>
      <point x="1616" y="2192"/>
      <point x="1616" y="2105" type="curve" smooth="yes"/>
      <point x="1616" y="2035"/>
      <point x="1569" y="1975"/>
      <point x="1506" y="1955" type="curve" smooth="yes"/>
      <point x="1141" y="1837" type="line"/>
      <point x="1365" y="1528" type="line" smooth="yes"/>
      <point x="1384" y="1502"/>
      <point x="1395" y="1469"/>
      <point x="1395" y="1435" type="curve" smooth="yes"/>
      <point x="1395" y="1348"/>
      <point x="1325" y="1278"/>
      <point x="1238" y="1278" type="curve" smooth="yes"/>
      <point x="1155" y="1278"/>
      <point x="1110" y="1342"/>
      <point x="1110" y="1343" type="curve" smooth="yes"/>
      <point x="885" y="1652" type="line"/>
      <point x="659" y="1342" type="line" smooth="yes"/>
      <point x="630" y="1303"/>
      <point x="584" y="1277"/>
      <point x="532" y="1277" type="curve" smooth="yes"/>
      <point x="445" y="1277"/>
      <point x="374" y="1348"/>
      <point x="374" y="1435" type="curve" smooth="yes"/>
      <point x="374" y="1470"/>
      <point x="386" y="1501"/>
    </contour>
  </outline>
</glyph>
<glyph name="plus" format="2">
  <advance width="2144"/>
  <unicode hex="002B"/>
  <outline>
    <contour>
      <point x="156" y="1338" type="curve" smooth="yes"/>
      <point x="156" y="1425"/>
      <point x="227" y="1496"/>
      <point x="314" y="1496" type="curve" smooth="yes"/>
      <point x="756" y="1496" type="line"/>
      <point x="757" y="1930" type="line" smooth="yes"/>
      <point x="757" y="2017"/>
      <point x="827" y="2087"/>
      <point x="914" y="2087" type="curve" smooth="yes"/>
      <point x="1001" y="2087"/>
      <point x="1072" y="2017"/>
      <point x="1072" y="1930" type="curve" smooth="yes"/>
      <point x="1072" y="1495" type="line"/>
      <point x="1220" y="1495"/>
      <point x="1366" y="1496"/>
      <point x="1514" y="1496" type="curve" smooth="yes"/>
      <point x="1601" y="1496"/>
      <point x="1672" y="1425"/>
      <point x="1672" y="1338" type="curve" smooth="yes"/>
      <point x="1672" y="1251"/>
      <point x="1601" y="1180"/>
      <point x="1514" y="1180" type="curve" smooth="yes"/>
      <point x="1072" y="1180" type="line"/>
      <point x="1072" y="1002"/>
      <point x="1071" y="738"/>
      <point x="1071" y="738" type="curve" smooth="yes"/>
      <point x="1071" y="651"/>
      <point x="1001" y="580"/>
      <point x="914" y="580" type="curve" smooth="yes"/>
      <point x="827" y="580"/>
      <point x="756" y="651"/>
      <point x="756" y="738" type="curve" smooth="yes"/>
      <point x="756" y="1180" type="line"/>
      <point x="314" y="1180" type="line" smooth="yes"/>
      <point x="227" y="1180"/>
      <point x="156" y="1251"/>
    </contour>
  </outline>
</glyph>
<glyph name="slash" format="2">
  <advance width="2574"/>
  <unicode hex="002F"/>
  <outline>
    <contour>
      <point x="156" y="-140" type="curve" smooth="yes"/>
      <point x="156" y="-111"/>
      <point x="164" y="-84"/>
      <point x="178" y="-61" type="curve" smooth="yes"/>
      <point x="1808" y="2739" type="line" smooth="yes"/>
      <point x="1835" y="2786"/>
      <point x="1886" y="2818"/>
      <point x="1944" y="2818" type="curve" smooth="yes"/>
      <point x="2031" y="2818"/>
      <point x="2102" y="2747"/>
      <point x="2102" y="2660" type="curve" smooth="yes"/>
      <point x="2102" y="2631"/>
      <point x="2094" y="2605"/>
      <point x="2080" y="2581" type="curve" smooth="yes"/>
      <point x="450" y="-219" type="line" smooth="yes"/>
      <point x="423" y="-266"/>
      <point x="372" y="-298"/>
      <point x="314" y="-298" type="curve" smooth="yes"/>
      <point x="227" y="-298"/>
      <point x="156" y="-227"/>
    </contour>
  </outline>
</glyph>
<glyph name="zero" format="2">
  <advance width="2754"/>
  <unicode hex="0030"/>
  <outline>
    <contour>
      <point x="156" y="1260" type="curve" smooth="yes"/>
      <point x="156" y="2046"/>
      <point x="630" y="2678"/>
      <point x="1219" y="2678" type="curve" smooth="yes"/>
      <point x="1808" y="2678"/>
      <point x="2282" y="2046"/>
      <point x="2282" y="1260" type="curve" smooth="yes"/>
      <point x="2282" y="474"/>
      <point x="1808" y="-158"/>
      <point x="1219" y="-158" type="curve" smooth="yes"/>
      <point x="630" y="-158"/>
      <point x="156" y="474"/>
    </contour>
    <contour>
      <point x="472" y="1260" type="curve" smooth="yes"/>
      <point x="472" y="654"/>
      <point x="813" y="158"/>
      <point x="1219" y="158" type="curve" smooth="yes"/>
      <point x="1625" y="158"/>
      <point x="1966" y="654"/>
      <point x="1966" y="1260" type="curve" smooth="yes"/>
      <point x="1966" y="1866"/>
      <point x="1625" y="2362"/>
      <point x="1219" y="2362" type="curve" smooth="yes"/>
      <point x="813" y="2362"/>
      <point x="472" y="1866"/>
    </contour>
  </outline>
</glyph>
<glyph name="one" format="2">
  <advance width="944"/>
  <unicode hex="0031"/>
  <outline>
    <contour>
      <point x="156" y="0" type="curve" smooth="yes"/>
      <point x="156" y="2520" type="line" smooth="yes"/>
      <point x="156" y="2607"/>
      <point x="227" y="2678"/>
      <point x="314" y="2678" type="curve" smooth="yes"/>
      <point x="315" y="2678" type="line" smooth="yes"/>
      <point x="403" y="2678"/>
      <point x="472" y="2606"/>
      <point x="472" y="2520" type="curve" smooth="yes"/>
      <point x="472" y="0" type="line" smooth="yes"/>
      <point x="472" y="-88"/>
      <point x="401" y="-158"/>
      <point x="315" y="-158" type="curve"/>
      <point x="314" y="-158" type="line"/>
      <point x="227" y="-158"/>
      <point x="156" y="-87"/>
    </contour>
  </outline>
</glyph>
<glyph name="two" format="2">
  <advance width="2574"/>
  <unicode hex="0032"/>
  <outline>
    <contour>
      <point x="156" y="0" type="curve" smooth="yes"/>
      <point x="156" y="2"/>
      <point x="157" y="4"/>
      <point x="157" y="6" type="curve" smooth="yes"/>
      <point x="187" y="867"/>
      <point x="696" y="1160"/>
      <point x="1195" y="1447" type="curve" smooth="yes"/>
      <point x="1534" y="1642"/>
      <point x="1646" y="1710"/>
      <point x="1646" y="1965" type="curve" smooth="yes"/>
      <point x="1646" y="2183"/>
      <point x="1373" y="2363"/>
      <point x="1044" y="2363" type="curve" smooth="yes"/>
      <point x="748" y="2363"/>
      <point x="504" y="2211"/>
      <point x="489" y="2041" type="curve" smooth="yes"/>
      <point x="489" y="2041"/>
      <point x="474" y="1866"/>
      <point x="471" y="1836" type="curve" smooth="yes"/>
      <point x="467" y="1753"/>
      <point x="398" y="1686"/>
      <point x="314" y="1686" type="curve" smooth="yes"/>
      <point x="227" y="1686"/>
      <point x="156" y="1757"/>
      <point x="156" y="1844" type="curve" smooth="yes"/>
      <point x="156" y="1845" type="line" smooth="yes"/>
      <point x="156" y="1852"/>
      <point x="156" y="1852"/>
      <point x="175" y="2069" type="curve" smooth="yes"/>
      <point x="204" y="2397"/>
      <point x="561" y="2678"/>
      <point x="1044" y="2678" type="curve" smooth="yes"/>
      <point x="1555" y="2678"/>
      <point x="1961" y="2364"/>
      <point x="1961" y="1965" type="curve" smooth="yes"/>
      <point x="1961" y="1524"/>
      <point x="1707" y="1378"/>
      <point x="1352" y="1174" type="curve" smooth="yes"/>
      <point x="902" y="915"/>
      <point x="559" y="714"/>
      <point x="485" y="158" type="curve"/>
      <point x="1944" y="158" type="line" smooth="yes"/>
      <point x="2031" y="158"/>
      <point x="2102" y="87"/>
      <point x="2102" y="0" type="curve" smooth="yes"/>
      <point x="2102" y="-87"/>
      <point x="2031" y="-158"/>
      <point x="1944" y="-158" type="curve" smooth="yes"/>
      <point x="314" y="-158" type="line" smooth="yes"/>
      <point x="227" y="-158"/>
      <point x="156" y="-87"/>
    </contour>
  </outline>
</glyph>
<glyph name="three" format="2">
  <advance width="2699"/>
  <unicode hex="0033"/>
  <outline>
    <contour>
      <point x="1935" y="2520" type="curve" smooth="yes"/>
      <point x="1935" y="2511"/>
      <point x="1894" y="2123"/>
      <point x="1476" y="1717" type="curve"/>
      <point x="1877" y="1674"/>
      <point x="2226" y="1330"/>
      <point x="2226" y="836" type="curve" smooth="yes"/>
      <point x="2226" y="284"/>
      <point x="1799" y="-158"/>
      <point x="1189" y="-158" type="curve" smooth="yes"/>
      <point x="980" y="-158"/>
      <point x="491" y="-101"/>
      <point x="264" y="394" type="curve" smooth="yes"/>
      <point x="206" y="521"/>
      <point x="156" y="639"/>
      <point x="156" y="675" type="curve" smooth="yes"/>
      <point x="156" y="762"/>
      <point x="227" y="833"/>
      <point x="314" y="833" type="curve" smooth="yes"/>
      <point x="379" y="833"/>
      <point x="435" y="793"/>
      <point x="459" y="737" type="curve" smooth="yes"/>
      <point x="551" y="523" type="line"/>
      <point x="596" y="426"/>
      <point x="745" y="158"/>
      <point x="1189" y="158" type="curve" smooth="yes"/>
      <point x="1619" y="158"/>
      <point x="1912" y="451"/>
      <point x="1912" y="836" type="curve" smooth="yes"/>
      <point x="1912" y="1199"/>
      <point x="1644" y="1406"/>
      <point x="1391" y="1406" type="curve" smooth="yes"/>
      <point x="1018" y="1406"/>
      <point x="1073" y="1342"/>
      <point x="969" y="1342" type="curve" smooth="yes"/>
      <point x="882" y="1342"/>
      <point x="812" y="1414"/>
      <point x="812" y="1500" type="curve" smooth="yes"/>
      <point x="812" y="1521"/>
      <point x="817" y="1583"/>
      <point x="875" y="1626" type="curve" smooth="yes"/>
      <point x="1283" y="1929"/>
      <point x="1460" y="2131"/>
      <point x="1559" y="2362" type="curve"/>
      <point x="377" y="2362" type="line" smooth="yes"/>
      <point x="290" y="2362"/>
      <point x="220" y="2433"/>
      <point x="220" y="2520" type="curve" smooth="yes"/>
      <point x="220" y="2607"/>
      <point x="290" y="2678"/>
      <point x="377" y="2678" type="curve" smooth="yes"/>
      <point x="1777" y="2678" type="line" smooth="yes"/>
      <point x="1865" y="2678"/>
      <point x="1935" y="2606"/>
    </contour>
  </outline>
</glyph>
<glyph name="four" format="2">
  <advance width="2834"/>
  <unicode hex="0034"/>
  <outline>
    <contour>
      <point x="156" y="1145" type="line" smooth="yes"/>
      <point x="156" y="1180"/>
      <point x="168" y="1213"/>
      <point x="189" y="1241" type="curve" smooth="yes"/>
      <point x="1249" y="2616" type="line" smooth="yes"/>
      <point x="1279" y="2655"/>
      <point x="1325" y="2678"/>
      <point x="1374" y="2678" type="curve" smooth="yes"/>
      <point x="1679" y="2678" type="line" smooth="yes"/>
      <point x="1766" y="2678"/>
      <point x="1836" y="2607"/>
      <point x="1836" y="2520" type="curve" smooth="yes"/>
      <point x="1836" y="1046" type="line"/>
      <point x="2204" y="1046" type="line" smooth="yes"/>
      <point x="2291" y="1046"/>
      <point x="2362" y="975"/>
      <point x="2362" y="888" type="curve" smooth="yes"/>
      <point x="2362" y="801"/>
      <point x="2291" y="730"/>
      <point x="2204" y="730" type="curve" smooth="yes"/>
      <point x="1836" y="731" type="line"/>
      <point x="1836" y="0" type="line" smooth="yes"/>
      <point x="1836" y="-87"/>
      <point x="1766" y="-158"/>
      <point x="1679" y="-158" type="curve" smooth="yes"/>
      <point x="1592" y="-158"/>
      <point x="1522" y="-87"/>
      <point x="1522" y="0" type="curve" smooth="yes"/>
      <point x="1522" y="731" type="line"/>
      <point x="314" y="731" type="line" smooth="yes"/>
      <point x="226" y="731"/>
      <point x="156" y="802"/>
      <point x="156" y="888" type="curve" smooth="yes"/>
    </contour>
    <contour>
      <point x="472" y="1046" type="line"/>
      <point x="1522" y="1046" type="line"/>
      <point x="1522" y="2362" type="line"/>
      <point x="1451" y="2362" type="line"/>
      <point x="472" y="1091" type="line"/>
    </contour>
  </outline>
</glyph>
<glyph name="five" format="2">
  <advance width="2569"/>
  <unicode hex="0035"/>
  <outline>
    <contour>
      <point x="156" y="502" type="curve"/>
      <point x="156" y="503" type="line"/>
      <point x="156" y="590"/>
      <point x="227" y="660"/>
      <point x="314" y="660" type="curve" smooth="yes"/>
      <point x="395" y="660"/>
      <point x="415" y="633"/>
      <point x="501" y="510" type="curve" smooth="yes"/>
      <point x="648" y="300"/>
      <point x="854" y="158"/>
      <point x="1099" y="158" type="curve" smooth="yes"/>
      <point x="1476" y="158"/>
      <point x="1782" y="463"/>
      <point x="1782" y="840" type="curve" smooth="yes"/>
      <point x="1782" y="1217"/>
      <point x="1476" y="1522"/>
      <point x="1099" y="1522" type="curve" smooth="yes"/>
      <point x="1031" y="1522"/>
      <point x="733" y="1507"/>
      <point x="540" y="1232" type="curve" smooth="yes"/>
      <point x="529" y="1216"/>
      <point x="487" y="1165"/>
      <point x="411" y="1165" type="curve" smooth="yes"/>
      <point x="324" y="1165"/>
      <point x="253" y="1235"/>
      <point x="253" y="1322" type="curve" smooth="yes"/>
      <point x="253" y="1329"/>
      <point x="254" y="1337"/>
      <point x="255" y="1344" type="curve" smooth="yes"/>
      <point x="423" y="2542" type="line" smooth="yes"/>
      <point x="434" y="2619"/>
      <point x="501" y="2678"/>
      <point x="579" y="2678" type="curve" smooth="yes"/>
      <point x="1699" y="2678" type="line" smooth="yes"/>
      <point x="1786" y="2678"/>
      <point x="1856" y="2607"/>
      <point x="1856" y="2520" type="curve" smooth="yes"/>
      <point x="1856" y="2433"/>
      <point x="1786" y="2362"/>
      <point x="1699" y="2362" type="curve" smooth="yes"/>
      <point x="716" y="2362" type="line"/>
      <point x="625" y="1717" type="line"/>
      <point x="767" y="1794"/>
      <point x="929" y="1838"/>
      <point x="1099" y="1838" type="curve" smooth="yes"/>
      <point x="1650" y="1838"/>
      <point x="2096" y="1391"/>
      <point x="2096" y="840" type="curve" smooth="yes"/>
      <point x="2096" y="289"/>
      <point x="1650" y="-158"/>
      <point x="1099" y="-158" type="curve" smooth="yes"/>
      <point x="722" y="-158"/>
      <point x="428" y="65"/>
      <point x="242" y="330" type="curve" smooth="yes"/>
      <point x="185" y="412" type="line" smooth="yes"/>
      <point x="167" y="438"/>
      <point x="156" y="470"/>
    </contour>
  </outline>
</glyph>
<glyph name="six" format="2">
  <advance width="2611"/>
  <unicode hex="0036"/>
  <outline>
    <contour>
      <point x="156" y="1303" type="curve" smooth="yes"/>
      <point x="156" y="1536"/>
      <point x="190" y="2028"/>
      <point x="557" y="2391" type="curve" smooth="yes"/>
      <point x="766" y="2598"/>
      <point x="960" y="2678"/>
      <point x="1273" y="2678" type="curve" smooth="yes"/>
      <point x="1334" y="2678"/>
      <point x="1743" y="2666"/>
      <point x="1981" y="2333" type="curve" smooth="yes"/>
      <point x="1986" y="2326"/>
      <point x="1986" y="2325"/>
      <point x="2084" y="2152" type="curve" smooth="yes"/>
      <point x="2097" y="2129"/>
      <point x="2105" y="2103"/>
      <point x="2105" y="2075" type="curve" smooth="yes"/>
      <point x="2105" y="1988"/>
      <point x="2034" y="1917"/>
      <point x="1947" y="1917" type="curve" smooth="yes"/>
      <point x="1888" y="1917"/>
      <point x="1837" y="1949"/>
      <point x="1810" y="1997" type="curve" smooth="yes"/>
      <point x="1720" y="2156" type="line"/>
      <point x="1705" y="2176"/>
      <point x="1556" y="2364"/>
      <point x="1273" y="2364" type="curve" smooth="yes"/>
      <point x="1043" y="2364"/>
      <point x="929" y="2315"/>
      <point x="779" y="2167" type="curve" smooth="yes"/>
      <point x="696" y="2085"/>
      <point x="472" y="1841"/>
      <point x="472" y="1303" type="curve" smooth="yes"/>
      <point x="472" y="1284"/>
      <point x="472" y="1264"/>
      <point x="472" y="1245" type="curve"/>
      <point x="717" y="1556"/>
      <point x="1015" y="1574"/>
      <point x="1193" y="1574" type="curve" smooth="yes"/>
      <point x="1709" y="1574"/>
      <point x="2138" y="1245"/>
      <point x="2138" y="687" type="curve" smooth="yes"/>
      <point x="2138" y="202"/>
      <point x="1751" y="-158"/>
      <point x="1220" y="-158" type="curve" smooth="yes"/>
      <point x="574" y="-158"/>
      <point x="156" y="372"/>
    </contour>
    <contour>
      <point x="549" y="721" type="curve"/>
      <point x="643" y="414"/>
      <point x="836" y="158"/>
      <point x="1220" y="158" type="curve" smooth="yes"/>
      <point x="1564" y="158"/>
      <point x="1824" y="366"/>
      <point x="1824" y="687" type="curve" smooth="yes"/>
      <point x="1824" y="1103"/>
      <point x="1491" y="1258"/>
      <point x="1193" y="1258" type="curve" smooth="yes"/>
      <point x="990" y="1258"/>
      <point x="731" y="1234"/>
    </contour>
  </outline>
</glyph>
<glyph name="seven" format="2">
  <advance width="2574"/>
  <unicode hex="0037"/>
  <outline>
    <contour>
      <point x="156" y="2520" type="curve" smooth="yes"/>
      <point x="156" y="2607"/>
      <point x="227" y="2678"/>
      <point x="314" y="2678" type="curve" smooth="yes"/>
      <point x="1944" y="2678" type="line" smooth="yes"/>
      <point x="2031" y="2678"/>
      <point x="2101" y="2607"/>
      <point x="2101" y="2520" type="curve" smooth="yes"/>
      <point x="2101" y="2310" type="line" smooth="yes"/>
      <point x="2101" y="2268"/>
      <point x="2085" y="2228"/>
      <point x="2055" y="2198" type="curve" smooth="yes"/>
      <point x="1670" y="1813"/>
      <point x="1102" y="1209"/>
      <point x="1102" y="0" type="curve" smooth="yes"/>
      <point x="1102" y="-87"/>
      <point x="1031" y="-158"/>
      <point x="944" y="-158" type="curve" smooth="yes"/>
      <point x="857" y="-158"/>
      <point x="786" y="-87"/>
      <point x="786" y="0" type="curve" smooth="yes"/>
      <point x="786" y="1279"/>
      <point x="1378" y="1960"/>
      <point x="1774" y="2362" type="curve"/>
      <point x="314" y="2362" type="line" smooth="yes"/>
      <point x="227" y="2362"/>
      <point x="156" y="2433"/>
    </contour>
  </outline>
</glyph>
<glyph name="eight" format="2">
  <advance width="2624"/>
  <unicode hex="0038"/>
  <outline>
    <contour>
      <point x="1188" y="-158" type="curve" smooth="yes"/>
      <point x="640" y="-158"/>
      <point x="156" y="214"/>
      <point x="156" y="696" type="curve" smooth="yes"/>
      <point x="156" y="960"/>
      <point x="299" y="1237"/>
      <point x="561" y="1405" type="curve"/>
      <point x="453" y="1477"/>
      <point x="256" y="1650"/>
      <point x="256" y="1952" type="curve" smooth="yes"/>
      <point x="256" y="2355"/>
      <point x="639" y="2678"/>
      <point x="1122" y="2678" type="curve" smooth="yes"/>
      <point x="1613" y="2678"/>
      <point x="2052" y="2374"/>
      <point x="2052" y="1964" type="curve" smooth="yes"/>
      <point x="2052" y="1844"/>
      <point x="2018" y="1581"/>
      <point x="1746" y="1401" type="curve"/>
      <point x="2005" y="1233"/>
      <point x="2152" y="957"/>
      <point x="2152" y="702" type="curve" smooth="yes"/>
      <point x="2152" y="246"/>
      <point x="1743" y="-158"/>
    </contour>
    <contour>
      <point x="1188" y="157" type="curve" smooth="yes"/>
      <point x="1569" y="157"/>
      <point x="1837" y="422"/>
      <point x="1837" y="702" type="curve" smooth="yes"/>
      <point x="1837" y="915"/>
      <point x="1640" y="1206"/>
      <point x="1267" y="1242" type="curve"/>
      <point x="1041" y="1242" type="line"/>
      <point x="649" y="1205"/>
      <point x="471" y="914"/>
      <point x="471" y="696" type="curve" smooth="yes"/>
      <point x="471" y="395"/>
      <point x="816" y="157"/>
    </contour>
    <contour>
      <point x="1122" y="2363" type="curve" smooth="yes"/>
      <point x="818" y="2363"/>
      <point x="571" y="2178"/>
      <point x="571" y="1952" type="curve" smooth="yes"/>
      <point x="571" y="1698.55"/>
      <point x="850.247" y="1555.43"/>
      <point x="1155.9" y="1555.43" type="curve" smooth="yes"/>
      <point x="1179.48" y="1555.43"/>
      <point x="1203.22" y="1556.28"/>
      <point x="1227" y="1558" type="curve" smooth="yes"/>
      <point x="1326" y="1565"/>
      <point x="1737" y="1616"/>
      <point x="1737" y="1964" type="curve" smooth="yes"/>
      <point x="1737" y="2183"/>
      <point x="1439" y="2363"/>
    </contour>
  </outline>
</glyph>
<glyph name="nine" format="2">
  <advance width="2611"/>
  <unicode hex="0039"/>
  <outline>
    <contour>
      <point x="156" y="1834" type="curve" smooth="yes"/>
      <point x="156" y="2319"/>
      <point x="544" y="2678"/>
      <point x="1075" y="2678" type="curve" smooth="yes"/>
      <point x="1721" y="2678"/>
      <point x="2138" y="2149"/>
      <point x="2138" y="1218" type="curve" smooth="yes"/>
      <point x="2138" y="985"/>
      <point x="2105" y="493"/>
      <point x="1738" y="130" type="curve" smooth="yes"/>
      <point x="1529" y="-77"/>
      <point x="1335" y="-158"/>
      <point x="1022" y="-158" type="curve" smooth="yes"/>
      <point x="961" y="-158"/>
      <point x="552" y="-145"/>
      <point x="314" y="188" type="curve" smooth="yes"/>
      <point x="309" y="195"/>
      <point x="309" y="196"/>
      <point x="211" y="369" type="curve" smooth="yes"/>
      <point x="198" y="392"/>
      <point x="190" y="418"/>
      <point x="190" y="446" type="curve" smooth="yes"/>
      <point x="190" y="533"/>
      <point x="261" y="604"/>
      <point x="348" y="604" type="curve" smooth="yes"/>
      <point x="407" y="604"/>
      <point x="458" y="572"/>
      <point x="485" y="524" type="curve" smooth="yes"/>
      <point x="575" y="365" type="line"/>
      <point x="590" y="345"/>
      <point x="739" y="158"/>
      <point x="1022" y="158" type="curve" smooth="yes"/>
      <point x="1252" y="158"/>
      <point x="1366" y="206"/>
      <point x="1516" y="354" type="curve" smooth="yes"/>
      <point x="1599" y="436"/>
      <point x="1824" y="680"/>
      <point x="1824" y="1218" type="curve" smooth="yes"/>
      <point x="1824" y="1237"/>
      <point x="1823" y="1257"/>
      <point x="1823" y="1276" type="curve"/>
      <point x="1578" y="965"/>
      <point x="1280" y="948"/>
      <point x="1102" y="948" type="curve" smooth="yes"/>
      <point x="586" y="948"/>
      <point x="156" y="1276"/>
    </contour>
    <contour>
      <point x="1746" y="1800" type="curve"/>
      <point x="1652" y="2107"/>
      <point x="1459" y="2364"/>
      <point x="1075" y="2364" type="curve" smooth="yes"/>
      <point x="731" y="2364"/>
      <point x="472" y="2155"/>
      <point x="472" y="1834" type="curve" smooth="yes"/>
      <point x="472" y="1418"/>
      <point x="804" y="1262"/>
      <point x="1102" y="1262" type="curve" smooth="yes"/>
      <point x="1305" y="1262"/>
      <point x="1564" y="1287"/>
    </contour>
  </outline>
</glyph>
<glyph name="colon" format="2">
  <advance width="1154"/>
  <unicode hex="003A"/>
  <outline>
    <contour>
      <point x="156" y="210" type="curve" smooth="yes"/>
      <point x="156" y="355"/>
      <point x="274" y="472"/>
      <point x="419" y="472" type="curve" smooth="yes"/>
      <point x="564" y="472"/>
      <point x="682" y="355"/>
      <point x="682" y="210" type="curve" smooth="yes"/>
      <point x="682" y="65"/>
      <point x="564" y="-52"/>
      <point x="419" y="-52" type="curve" smooth="yes"/>
      <point x="274" y="-52"/>
      <point x="156" y="65"/>
    </contour>
    <contour>
      <point x="156" y="1338" type="curve" smooth="yes"/>
      <point x="156" y="1483"/>
      <point x="274" y="1600"/>
      <point x="419" y="1600" type="curve" smooth="yes"/>
      <point x="564" y="1600"/>
      <point x="682" y="1483"/>
      <point x="682" y="1338" type="curve" smooth="yes"/>
      <point x="682" y="1193"/>
      <point x="564" y="1076"/>
      <point x="419" y="1076" type="curve" smooth="yes"/>
      <point x="274" y="1076"/>
      <point x="156" y="1193"/>
    </contour>
    <contour>
      <point x="366" y="210" type="line"/>
      <point x="419" y="158" type="line"/>
      <point x="472" y="210" type="line"/>
      <point x="419" y="262" type="line"/>
    </contour>
    <contour>
      <point x="366" y="1338" type="line"/>
      <point x="419" y="1286" type="line"/>
      <point x="472" y="1338" type="line"/>
      <point x="419" y="1390" type="line"/>
    </contour>
  </outline>
</glyph>
<glyph name="semicolon" format="2">
  <advance width="1154"/>
  <unicode hex="003B"/>
  <outline>
    <contour>
      <point x="156" y="204" type="curve" smooth="yes"/>
      <point x="156" y="371"/>
      <point x="288" y="472"/>
      <point x="419" y="472" type="curve" smooth="yes"/>
      <point x="564" y="472"/>
      <point x="682" y="355"/>
      <point x="682" y="210" type="curve" smooth="yes"/>
      <point x="682" y="-36"/>
      <point x="439" y="-368"/>
      <point x="287" y="-368" type="curve" smooth="yes"/>
      <point x="200" y="-368"/>
      <point x="130" y="-297"/>
      <point x="130" y="-210" type="curve" smooth="yes"/>
      <point x="130" y="-143"/>
      <point x="170" y="-103"/>
      <point x="188" y="-88" type="curve" smooth="yes"/>
      <point x="190" y="-86"/>
      <point x="227" y="-56"/>
      <point x="268" y="-6" type="curve"/>
      <point x="239" y="14"/>
      <point x="156" y="82"/>
    </contour>
    <contour>
      <point x="156" y="1338" type="curve" smooth="yes"/>
      <point x="156" y="1483"/>
      <point x="274" y="1600"/>
      <point x="419" y="1600" type="curve" smooth="yes"/>
      <point x="564" y="1600"/>
      <point x="682" y="1483"/>
      <point x="682" y="1338" type="curve" smooth="yes"/>
      <point x="682" y="1193"/>
      <point x="564" y="1076"/>
      <point x="419" y="1076" type="curve" smooth="yes"/>
      <point x="274" y="1076"/>
      <point x="156" y="1193"/>
    </contour>
    <contour>
      <point x="366" y="1338" type="line"/>
      <point x="419" y="1286" type="line"/>
      <point x="472" y="1338" type="line"/>
      <point x="419" y="1390" type="line"/>
    </contour>
  </outline>
</glyph>
<glyph name="less" format="2">
  <advance width="2144"/>
  <unicode hex="003C"/>
  <outline>
    <contour>
      <point x="157" y="1338" type="curve" smooth="yes"/>
      <point x="157" y="1401"/>
      <point x="195" y="1460"/>
      <point x="254" y="1484" type="curve" smooth="yes"/>
      <point x="1454" y="1981" type="line" smooth="yes"/>
      <point x="1473" y="1989"/>
      <point x="1493" y="1993"/>
      <point x="1514" y="1993" type="curve" smooth="yes"/>
      <point x="1601" y="1993"/>
      <point x="1672" y="1922"/>
      <point x="1672" y="1835" type="curve" smooth="yes"/>
      <point x="1672" y="1769"/>
      <point x="1631" y="1714"/>
      <point x="1574" y="1690" type="curve" smooth="yes"/>
      <point x="726" y="1338" type="line"/>
      <point x="1574" y="986" type="line" smooth="yes"/>
      <point x="1631" y="962"/>
      <point x="1672" y="907"/>
      <point x="1672" y="841" type="curve" smooth="yes"/>
      <point x="1672" y="754"/>
      <point x="1601" y="683"/>
      <point x="1514" y="683" type="curve" smooth="yes"/>
      <point x="1493" y="683"/>
      <point x="1473" y="687"/>
      <point x="1454" y="695" type="curve" smooth="yes"/>
      <point x="254" y="1192" type="line" smooth="yes"/>
      <point x="243" y="1197"/>
      <point x="157" y="1236"/>
    </contour>
  </outline>
</glyph>
<glyph name="equal" format="2">
  <advance width="2144"/>
  <unicode hex="003D"/>
  <outline>
    <contour>
      <point x="156" y="918" type="curve" smooth="yes"/>
      <point x="156" y="1005"/>
      <point x="227" y="1076"/>
      <point x="314" y="1076" type="curve" smooth="yes"/>
      <point x="1514" y="1076" type="line" smooth="yes"/>
      <point x="1601" y="1076"/>
      <point x="1672" y="1005"/>
      <point x="1672" y="918" type="curve" smooth="yes"/>
      <point x="1672" y="831"/>
      <point x="1601" y="760"/>
      <point x="1514" y="760" type="curve" smooth="yes"/>
      <point x="314" y="760" type="line" smooth="yes"/>
      <point x="227" y="760"/>
      <point x="156" y="831"/>
    </contour>
    <contour>
      <point x="156" y="1758" type="curve" smooth="yes"/>
      <point x="156" y="1845"/>
      <point x="227" y="1916"/>
      <point x="314" y="1916" type="curve" smooth="yes"/>
      <point x="1514" y="1916" type="line" smooth="yes"/>
      <point x="1601" y="1916"/>
      <point x="1672" y="1845"/>
      <point x="1672" y="1758" type="curve" smooth="yes"/>
      <point x="1672" y="1671"/>
      <point x="1601" y="1600"/>
      <point x="1514" y="1600" type="curve" smooth="yes"/>
      <point x="314" y="1600" type="line" smooth="yes"/>
      <point x="227" y="1600"/>
      <point x="156" y="1671"/>
    </contour>
  </outline>
</glyph>
<glyph name="greater" format="2">
  <advance width="2144"/>
  <unicode hex="003E"/>
  <outline>
    <contour>
      <point x="156" y="841" type="curve" smooth="yes"/>
      <point x="156" y="907"/>
      <point x="197" y="962"/>
      <point x="254" y="986" type="curve" smooth="yes"/>
      <point x="1102" y="1338" type="line"/>
      <point x="254" y="1690" type="line" smooth="yes"/>
      <point x="197" y="1714"/>
      <point x="156" y="1769"/>
      <point x="156" y="1835" type="curve" smooth="yes"/>
      <point x="156" y="1922"/>
      <point x="227" y="1993"/>
      <point x="314" y="1993" type="curve" smooth="yes"/>
      <point x="335" y="1993"/>
      <point x="355" y="1989"/>
      <point x="374" y="1981" type="curve" smooth="yes"/>
      <point x="1574" y="1484" type="line" smooth="yes"/>
      <point x="1632" y="1460"/>
      <point x="1671" y="1403"/>
      <point x="1671" y="1338" type="curve" smooth="yes"/>
      <point x="1671" y="1326"/>
      <point x="1668" y="1231"/>
      <point x="1574" y="1192" type="curve" smooth="yes"/>
      <point x="374" y="695" type="line" smooth="yes"/>
      <point x="355" y="687"/>
      <point x="335" y="683"/>
      <point x="314" y="683" type="curve" smooth="yes"/>
      <point x="227" y="683"/>
      <point x="156" y="754"/>
    </contour>
  </outline>
</glyph>
<glyph name="question" format="2">
  <advance width="2186"/>
  <unicode hex="003F"/>
  <outline>
    <contour>
      <point x="471" y="2018" type="curve" smooth="yes"/>
      <point x="471" y="1842"/>
      <point x="542" y="1843"/>
      <point x="542" y="1746" type="curve" smooth="yes"/>
      <point x="542" y="1659"/>
      <point x="472" y="1588"/>
      <point x="385" y="1588" type="curve" smooth="yes"/>
      <point x="326" y="1588"/>
      <point x="273" y="1620"/>
      <point x="245" y="1673" type="curve" smooth="yes"/>
      <point x="166" y="1823"/>
      <point x="156" y="1917"/>
      <point x="156" y="2018" type="curve" smooth="yes"/>
      <point x="156" y="2030"/>
      <point x="156" y="2042"/>
      <point x="156" y="2054" type="curve" smooth="yes"/>
      <point x="156" y="2399"/>
      <point x="502" y="2678"/>
      <point x="935" y="2678" type="curve" smooth="yes"/>
      <point x="1368" y="2678"/>
      <point x="1714" y="2399"/>
      <point x="1714" y="2054" type="curve" smooth="yes"/>
      <point x="1714" y="1511"/>
      <point x="1093" y="1281"/>
      <point x="1093" y="840" type="curve" smooth="yes"/>
      <point x="1093" y="753"/>
      <point x="1022" y="682"/>
      <point x="935" y="682" type="curve" smooth="yes"/>
      <point x="848" y="682"/>
      <point x="778" y="753"/>
      <point x="778" y="840" type="curve" smooth="yes"/>
      <point x="778" y="1426"/>
      <point x="1399" y="1674"/>
      <point x="1399" y="2054" type="curve" smooth="yes"/>
      <point x="1399" y="2218"/>
      <point x="1190" y="2362"/>
      <point x="935" y="2362" type="curve" smooth="yes"/>
      <point x="680" y="2362"/>
      <point x="472" y="2218"/>
      <point x="472" y="2054" type="curve" smooth="yes"/>
      <point x="472" y="2041"/>
      <point x="471" y="2029"/>
    </contour>
    <contour>
      <point x="673" y="210" type="curve" smooth="yes"/>
      <point x="673" y="355"/>
      <point x="790" y="472"/>
      <point x="935" y="472" type="curve" smooth="yes"/>
      <point x="1080" y="472"/>
      <point x="1198" y="355"/>
      <point x="1198" y="210" type="curve" smooth="yes"/>
      <point x="1198" y="65"/>
      <point x="1080" y="-52"/>
      <point x="935" y="-52" type="curve" smooth="yes"/>
      <point x="790" y="-52"/>
      <point x="673" y="65"/>
    </contour>
    <contour>
      <point x="883" y="210" type="line"/>
      <point x="935" y="158" type="line"/>
      <point x="988" y="210" type="line"/>
      <point x="935" y="262" type="line"/>
    </contour>
  </outline>
</glyph>
<glyph name="at" format="2">
  <advance width="3673"/>
  <unicode hex="0040"/>
  <outline>
    <contour>
      <point x="1679" y="-52" type="curve" smooth="yes"/>
      <point x="2057" y="-52"/>
      <point x="2230" y="107"/>
      <point x="2319" y="107" type="curve" smooth="yes"/>
      <point x="2406" y="107"/>
      <point x="2477" y="36"/>
      <point x="2477" y="-51" type="curve" smooth="yes"/>
      <point x="2477" y="-109"/>
      <point x="2445" y="-162"/>
      <point x="2393" y="-190" type="curve" smooth="yes"/>
      <point x="2180" y="-303"/>
      <point x="1937" y="-368"/>
      <point x="1679" y="-368" type="curve" smooth="yes"/>
      <point x="840" y="-368"/>
      <point x="156" y="360"/>
      <point x="156" y="1260" type="curve" smooth="yes"/>
      <point x="156" y="2160"/>
      <point x="840" y="2888"/>
      <point x="1679" y="2888" type="curve" smooth="yes"/>
      <point x="2518" y="2888"/>
      <point x="3202" y="2160"/>
      <point x="3202" y="1260" type="curve" smooth="yes"/>
      <point x="3202" y="1110"/>
      <point x="3184" y="837"/>
      <point x="3041" y="603" type="curve" smooth="yes"/>
      <point x="2965" y="478"/>
      <point x="2764" y="216"/>
      <point x="2319" y="216" type="curve" smooth="yes"/>
      <point x="2284" y="216"/>
      <point x="2183" y="224"/>
      <point x="2096" y="311" type="curve"/>
      <point x="2005" y="258"/>
      <point x="1881" y="226"/>
      <point x="1709" y="226" type="curve" smooth="yes"/>
      <point x="1569" y="226"/>
      <point x="1062" y="256"/>
      <point x="1062" y="684" type="curve" smooth="yes"/>
      <point x="1062" y="1018"/>
      <point x="1281" y="1317"/>
      <point x="1992" y="1406" type="curve"/>
      <point x="1992" y="1484" type="line" smooth="yes"/>
      <point x="1992" y="1622"/>
      <point x="1896" y="1772"/>
      <point x="1699" y="1772" type="curve" smooth="yes"/>
      <point x="1477" y="1772"/>
      <point x="1403" y="1674"/>
      <point x="1373" y="1538" type="curve" smooth="yes"/>
      <point x="1357" y="1467"/>
      <point x="1294" y="1414"/>
      <point x="1219" y="1414" type="curve" smooth="yes"/>
      <point x="1132" y="1414"/>
      <point x="1061" y="1485"/>
      <point x="1061" y="1572" type="curve" smooth="yes"/>
      <point x="1061" y="1582"/>
      <point x="1109" y="2088"/>
      <point x="1699" y="2088" type="curve" smooth="yes"/>
      <point x="2063" y="2088"/>
      <point x="2306" y="1804"/>
      <point x="2306" y="1484" type="curve" smooth="yes"/>
      <point x="2306" y="1269" type="line" smooth="yes"/>
      <point x="2306" y="1267"/>
      <point x="2307" y="1266"/>
      <point x="2307" y="1264" type="curve" smooth="yes"/>
      <point x="2306" y="584" type="line" smooth="yes"/>
      <point x="2306" y="567"/>
      <point x="2308" y="538"/>
      <point x="2323" y="532" type="curve"/>
      <point x="2531" y="533"/>
      <point x="2886" y="627"/>
      <point x="2886" y="1260" type="curve" smooth="yes"/>
      <point x="2886" y="1982"/>
      <point x="2346" y="2572"/>
      <point x="1679" y="2572" type="curve" smooth="yes"/>
      <point x="1012" y="2572"/>
      <point x="472" y="1982"/>
      <point x="472" y="1260" type="curve" smooth="yes"/>
      <point x="472" y="538"/>
      <point x="1012" y="-52"/>
    </contour>
    <contour>
      <point x="1376" y="684" type="curve" smooth="yes"/>
      <point x="1376" y="554"/>
      <point x="1618" y="542"/>
      <point x="1709" y="542" type="curve" smooth="yes"/>
      <point x="1769" y="542"/>
      <point x="1845" y="547"/>
      <point x="1905" y="569" type="curve" smooth="yes"/>
      <point x="1973" y="594"/>
      <point x="1992" y="626"/>
      <point x="1992" y="684" type="curve" smooth="yes"/>
      <point x="1992" y="1089" type="line"/>
      <point x="1795" y="1061"/>
      <point x="1510" y="994"/>
      <point x="1415" y="837" type="curve" smooth="yes"/>
      <point x="1391" y="798"/>
      <point x="1376" y="751"/>
    </contour>
  </outline>
</glyph>
<glyph name="A" format="2">
  <advance width="2735"/>
  <unicode hex="0041"/>
  <outline>
    <contour>
      <point x="156" y="-0" type="curve" smooth="yes"/>
      <point x="156" y="18"/>
      <point x="160" y="34"/>
      <point x="165" y="50" type="curve" smooth="yes"/>
      <point x="1008" y="2570" type="line" smooth="yes"/>
      <point x="1029" y="2634"/>
      <point x="1090" y="2677"/>
      <point x="1157" y="2677" type="curve" smooth="yes"/>
      <point x="1262" y="2678" type="line" smooth="yes"/>
      <point x="1329" y="2678"/>
      <point x="1390" y="2634"/>
      <point x="1411" y="2570" type="curve" smooth="yes"/>
      <point x="2254" y="50" type="line" smooth="yes"/>
      <point x="2259" y="34"/>
      <point x="2262" y="17"/>
      <point x="2262" y="0" type="curve" smooth="yes"/>
      <point x="2262" y="-87"/>
      <point x="2192" y="-158"/>
      <point x="2105" y="-158" type="curve" smooth="yes"/>
      <point x="2036" y="-158"/>
      <point x="1977" y="-112"/>
      <point x="1956" y="-50" type="curve" smooth="yes"/>
      <point x="1710" y="682" type="line"/>
      <point x="709" y="682" type="line"/>
      <point x="463" y="-50" type="line" smooth="yes"/>
      <point x="442" y="-112"/>
      <point x="383" y="-158"/>
      <point x="314" y="-158" type="curve" smooth="yes"/>
      <point x="227" y="-158"/>
      <point x="156" y="-87"/>
    </contour>
    <contour>
      <point x="814" y="997" type="line"/>
      <point x="1605" y="997" type="line"/>
      <point x="1210" y="2180" type="line"/>
    </contour>
  </outline>
</glyph>
<glyph name="B" format="2">
  <advance width="2561"/>
  <unicode hex="0042"/>
  <outline>
    <contour>
      <point x="156" y="0" type="curve" smooth="yes"/>
      <point x="156" y="2520" type="line" smooth="yes"/>
      <point x="156" y="2607"/>
      <point x="227" y="2678"/>
      <point x="314" y="2678" type="curve" smooth="yes"/>
      <point x="1262" y="2678" type="line" smooth="yes"/>
      <point x="1675" y="2678"/>
      <point x="2010" y="2342"/>
      <point x="2010" y="1929" type="curve" smooth="yes"/>
      <point x="2010" y="1695"/>
      <point x="1902" y="1485"/>
      <point x="1733" y="1348" type="curve"/>
      <point x="1948" y="1199"/>
      <point x="2088" y="950"/>
      <point x="2088" y="669" type="curve" smooth="yes"/>
      <point x="2088" y="213"/>
      <point x="1718" y="-158"/>
      <point x="1262" y="-158" type="curve" smooth="yes"/>
      <point x="314" y="-158" type="line" smooth="yes"/>
      <point x="228" y="-158"/>
      <point x="156" y="-88"/>
    </contour>
    <contour>
      <point x="472" y="158" type="line"/>
      <point x="1262" y="158" type="line" smooth="yes"/>
      <point x="1544" y="158"/>
      <point x="1774" y="387"/>
      <point x="1774" y="669" type="curve" smooth="yes"/>
      <point x="1774" y="951"/>
      <point x="1544" y="1180"/>
      <point x="1262" y="1180" type="curve" smooth="yes"/>
      <point x="472" y="1180" type="line"/>
    </contour>
    <contour>
      <point x="472" y="1496" type="line"/>
      <point x="1262" y="1496" type="line" smooth="yes"/>
      <point x="1501" y="1496"/>
      <point x="1696" y="1690"/>
      <point x="1696" y="1929" type="curve" smooth="yes"/>
      <point x="1696" y="2168"/>
      <point x="1501" y="2362"/>
      <point x="1262" y="2362" type="curve" smooth="yes"/>
      <point x="472" y="2362" type="line"/>
    </contour>
  </outline>
</glyph>
<glyph name="C" format="2">
  <advance width="2647"/>
  <unicode hex="0043"/>
  <outline>
    <contour>
      <point x="2175" y="760" type="curve" smooth="yes"/>
      <point x="2175" y="453"/>
      <point x="1882" y="-158"/>
      <point x="1219" y="-158" type="curve" smooth="yes"/>
      <point x="630" y="-158"/>
      <point x="156" y="474"/>
      <point x="156" y="1260" type="curve" smooth="yes"/>
      <point x="156" y="2046"/>
      <point x="630" y="2678"/>
      <point x="1219" y="2678" type="curve" smooth="yes"/>
      <point x="1921" y="2678"/>
      <point x="2142" y="1959"/>
      <point x="2142" y="1800" type="curve" smooth="yes"/>
      <point x="2142" y="1713"/>
      <point x="2071" y="1642"/>
      <point x="1984" y="1642" type="curve" smooth="yes"/>
      <point x="1906" y="1642"/>
      <point x="1842" y="1699"/>
      <point x="1829" y="1773" type="curve" smooth="yes"/>
      <point x="1815" y="1851"/>
      <point x="1706" y="2362"/>
      <point x="1219" y="2362" type="curve" smooth="yes"/>
      <point x="813" y="2362"/>
      <point x="472" y="1866"/>
      <point x="472" y="1260" type="curve" smooth="yes"/>
      <point x="472" y="654"/>
      <point x="813" y="158"/>
      <point x="1219" y="158" type="curve" smooth="yes"/>
      <point x="1579" y="158"/>
      <point x="1831" y="440"/>
      <point x="1860" y="774" type="curve" smooth="yes"/>
      <point x="1867" y="855"/>
      <point x="1935" y="918"/>
      <point x="2017" y="918" type="curve" smooth="yes"/>
      <point x="2104" y="918"/>
      <point x="2175" y="847"/>
    </contour>
  </outline>
</glyph>
<glyph name="D" format="2">
  <advance width="2547"/>
  <unicode hex="0044"/>
  <outline>
    <contour>
      <point x="156" y="0" type="curve" smooth="yes"/>
      <point x="156" y="2521" type="line" smooth="yes"/>
      <point x="156" y="2608"/>
      <point x="227" y="2679"/>
      <point x="314" y="2679" type="curve" smooth="yes"/>
      <point x="315" y="2679" type="line" smooth="yes"/>
      <point x="315" y="2679"/>
      <point x="513" y="2678"/>
      <point x="1012" y="2678" type="curve" smooth="yes"/>
      <point x="1601" y="2678"/>
      <point x="2074" y="2046"/>
      <point x="2074" y="1260" type="curve" smooth="yes"/>
      <point x="2074" y="474"/>
      <point x="1601" y="-158"/>
      <point x="1012" y="-158" type="curve" smooth="yes"/>
      <point x="314" y="-158" type="line" smooth="yes"/>
      <point x="228" y="-158"/>
      <point x="156" y="-88"/>
    </contour>
    <contour>
      <point x="472" y="158" type="line"/>
      <point x="1012" y="158" type="line" smooth="yes"/>
      <point x="1418" y="158"/>
      <point x="1760" y="654"/>
      <point x="1760" y="1260" type="curve" smooth="yes"/>
      <point x="1760" y="1866"/>
      <point x="1418" y="2362"/>
      <point x="1012" y="2362" type="curve" smooth="yes"/>
      <point x="759" y="2362"/>
      <point x="584" y="2363"/>
      <point x="472" y="2363" type="curve"/>
    </contour>
  </outline>
</glyph>
<glyph name="E" format="2">
  <advance width="2574"/>
  <unicode hex="0045"/>
  <outline>
    <contour>
      <point x="1423" y="1496" type="line" smooth="yes"/>
      <point x="1486" y="1496"/>
      <point x="1577" y="1452"/>
      <point x="1580" y="1338" type="curve"/>
      <point x="1580" y="1251"/>
      <point x="1510" y="1180"/>
      <point x="1423" y="1180" type="curve" smooth="yes"/>
      <point x="472" y="1180" type="line"/>
      <point x="472" y="158" type="line"/>
      <point x="1944" y="158" type="line" smooth="yes"/>
      <point x="2031" y="158"/>
      <point x="2101" y="88"/>
      <point x="2101" y="1" type="curve"/>
      <point x="2102" y="0" type="line"/>
      <point x="2102" y="-87"/>
      <point x="2031" y="-157"/>
      <point x="1944" y="-157" type="curve" smooth="yes"/>
      <point x="314" y="-158" type="line" smooth="yes"/>
      <point x="228" y="-158"/>
      <point x="156" y="-88"/>
      <point x="156" y="0" type="curve" smooth="yes"/>
      <point x="156" y="2520" type="line" smooth="yes"/>
      <point x="156" y="2607"/>
      <point x="227" y="2678"/>
      <point x="314" y="2678" type="curve" smooth="yes"/>
      <point x="1876" y="2678" type="line" smooth="yes"/>
      <point x="1963" y="2678"/>
      <point x="2033" y="2607"/>
      <point x="2033" y="2520" type="curve" smooth="yes"/>
      <point x="2033" y="2519" type="line" smooth="yes"/>
      <point x="2033" y="2432"/>
      <point x="1963" y="2362"/>
      <point x="1876" y="2362" type="curve" smooth="yes"/>
      <point x="472" y="2362" type="line"/>
      <point x="472" y="1496" type="line"/>
    </contour>
  </outline>
</glyph>
<glyph name="G" format="2">
  <advance width="2535"/>
  <unicode hex="0047"/>
  <outline>
    <contour>
      <point x="156" y="1260" type="curve" smooth="yes"/>
      <point x="156" y="2046"/>
      <point x="630" y="2678"/>
      <point x="1219" y="2678" type="curve" smooth="yes"/>
      <point x="1443" y="2678"/>
      <point x="1648" y="2585"/>
      <point x="1813" y="2438" type="curve" smooth="yes"/>
      <point x="1988" y="2283"/>
      <point x="2063" y="1931"/>
      <point x="2063" y="1905" type="curve" smooth="yes"/>
      <point x="2063" y="1818"/>
      <point x="1992" y="1747"/>
      <point x="1905" y="1747" type="curve" smooth="yes"/>
      <point x="1832" y="1747"/>
      <point x="1771" y="1797"/>
      <point x="1753" y="1864" type="curve" smooth="yes"/>
      <point x="1732" y="1941"/>
      <point x="1674" y="2140"/>
      <point x="1603" y="2203" type="curve" smooth="yes"/>
      <point x="1485" y="2308"/>
      <point x="1354" y="2362"/>
      <point x="1219" y="2362" type="curve" smooth="yes"/>
      <point x="813" y="2362"/>
      <point x="472" y="1866"/>
      <point x="472" y="1260" type="curve" smooth="yes"/>
      <point x="472" y="654"/>
      <point x="813" y="158"/>
      <point x="1219" y="158" type="curve" smooth="yes"/>
      <point x="1413" y="158"/>
      <point x="1604" y="271"/>
      <point x="1748" y="485" type="curve"/>
      <point x="1748" y="906" type="line"/>
      <point x="1304" y="906" type="line" smooth="yes"/>
      <point x="1217" y="906"/>
      <point x="1146" y="976"/>
      <point x="1146" y="1063" type="curve" smooth="yes"/>
      <point x="1146" y="1150"/>
      <point x="1217" y="1220"/>
      <point x="1304" y="1220" type="curve" smooth="yes"/>
      <point x="1906" y="1220" type="line" smooth="yes"/>
      <point x="1993" y="1220"/>
      <point x="2064" y="1150"/>
      <point x="2064" y="1063" type="curve" smooth="yes"/>
      <point x="2062" y="439" type="line" smooth="yes"/>
      <point x="2062" y="410"/>
      <point x="2054" y="381"/>
      <point x="2039" y="356" type="curve" smooth="yes"/>
      <point x="1853" y="56"/>
      <point x="1562" y="-158"/>
      <point x="1219" y="-158" type="curve" smooth="yes"/>
      <point x="630" y="-158"/>
      <point x="156" y="474"/>
    </contour>
  </outline>
</glyph>
<glyph name="H" format="2">
  <advance width="2574"/>
  <unicode hex="0048"/>
  <outline>
    <contour>
      <point x="156" y="0" type="curve" smooth="yes"/>
      <point x="156" y="2520" type="line" smooth="yes"/>
      <point x="156" y="2607"/>
      <point x="227" y="2678"/>
      <point x="314" y="2678" type="curve" smooth="yes"/>
      <point x="315" y="2678" type="line" smooth="yes"/>
      <point x="403" y="2678"/>
      <point x="473" y="2606"/>
      <point x="473" y="2520" type="curve" smooth="yes"/>
      <point x="473" y="1496" type="line"/>
      <point x="1786" y="1496" type="line"/>
      <point x="1786" y="2520" type="line" smooth="yes"/>
      <point x="1786" y="2607"/>
      <point x="1856" y="2678"/>
      <point x="1943" y="2678" type="curve" smooth="yes"/>
      <point x="1944" y="2678" type="line" smooth="yes"/>
      <point x="2031" y="2678"/>
      <point x="2101" y="2607"/>
      <point x="2101" y="2520" type="curve" smooth="yes"/>
      <point x="2101" y="0" type="line" smooth="yes"/>
      <point x="2101" y="-87"/>
      <point x="2031" y="-157"/>
      <point x="1944" y="-157" type="curve"/>
      <point x="1943" y="-158" type="line"/>
      <point x="1856" y="-158"/>
      <point x="1785" y="-87"/>
      <point x="1785" y="-0" type="curve" smooth="yes"/>
      <point x="1785" y="1180" type="line"/>
      <point x="472" y="1180" type="line"/>
      <point x="472" y="0" type="line" smooth="yes"/>
      <point x="472" y="-88"/>
      <point x="401" y="-158"/>
      <point x="315" y="-158" type="curve"/>
      <point x="314" y="-158" type="line"/>
      <point x="228" y="-158"/>
      <point x="156" y="-88"/>
    </contour>
  </outline>
</glyph>
<glyph name="J" format="2">
  <advance width="2158"/>
  <unicode hex="004A"/>
  <outline>
    <contour>
      <point x="1685" y="529" type="line" smooth="yes"/>
      <point x="1685" y="256"/>
      <point x="1390" y="-158"/>
      <point x="942" y="-158" type="curve" smooth="yes"/>
      <point x="548" y="-158"/>
      <point x="215" y="132"/>
      <point x="180" y="514" type="curve" smooth="yes"/>
      <point x="157" y="765" type="line" smooth="yes"/>
      <point x="157" y="768"/>
      <point x="156" y="773"/>
      <point x="156" y="780" type="curve" smooth="yes"/>
      <point x="156" y="867"/>
      <point x="227" y="938"/>
      <point x="314" y="938" type="curve" smooth="yes"/>
      <point x="396" y="938"/>
      <point x="464" y="875"/>
      <point x="471" y="795" type="curve" smooth="yes"/>
      <point x="494" y="544" type="line" smooth="yes"/>
      <point x="513" y="333"/>
      <point x="702" y="158"/>
      <point x="942" y="158" type="curve" smooth="yes"/>
      <point x="1139" y="158"/>
      <point x="1347" y="325"/>
      <point x="1370" y="537" type="curve"/>
      <point x="1370" y="2520" type="line" smooth="yes"/>
      <point x="1370" y="2607"/>
      <point x="1441" y="2678"/>
      <point x="1528" y="2678" type="curve" smooth="yes"/>
      <point x="1615" y="2678"/>
      <point x="1685" y="2607"/>
      <point x="1685" y="2520" type="curve" smooth="yes"/>
    </contour>
  </outline>
</glyph>
<glyph name="K" format="2">
  <advance width="2506"/>
  <unicode hex="004B"/>
  <outline>
    <contour>
      <point x="156" y="0" type="curve" smooth="yes"/>
      <point x="156" y="2520" type="line" smooth="yes"/>
      <point x="156" y="2607"/>
      <point x="227" y="2678"/>
      <point x="314" y="2678" type="curve" smooth="yes"/>
      <point x="315" y="2678" type="line" smooth="yes"/>
      <point x="403" y="2678"/>
      <point x="473" y="2606"/>
      <point x="473" y="2520" type="curve" smooth="yes"/>
      <point x="473" y="1338" type="line"/>
      <point x="1765" y="2631" type="line" smooth="yes"/>
      <point x="1794" y="2660"/>
      <point x="1833" y="2677"/>
      <point x="1876" y="2677" type="curve" smooth="yes"/>
      <point x="1963" y="2677"/>
      <point x="2033" y="2607"/>
      <point x="2033" y="2520" type="curve" smooth="yes"/>
      <point x="2033" y="2477"/>
      <point x="2015" y="2438"/>
      <point x="1987" y="2409" type="curve" smooth="yes"/>
      <point x="1084" y="1504" type="line"/>
      <point x="2073" y="90" type="line" smooth="yes"/>
      <point x="2091" y="64"/>
      <point x="2101" y="34"/>
      <point x="2101" y="0" type="curve" smooth="yes"/>
      <point x="2101" y="-87"/>
      <point x="2031" y="-157"/>
      <point x="1944" y="-157" type="curve" smooth="yes"/>
      <point x="1891" y="-157"/>
      <point x="1843" y="-130"/>
      <point x="1815" y="-90" type="curve" smooth="yes"/>
      <point x="858" y="1278" type="line"/>
      <point x="472" y="892" type="line"/>
      <point x="472" y="0" type="line" smooth="yes"/>
      <point x="472" y="-87"/>
      <point x="401" y="-158"/>
      <point x="314" y="-158" type="curve" smooth="yes"/>
      <point x="227" y="-158"/>
      <point x="156" y="-87"/>
    </contour>
  </outline>
</glyph>
<glyph name="L" format="2">
  <advance width="2574"/>
  <unicode hex="004C"/>
  <outline>
    <contour>
      <point x="156" y="0" type="curve" smooth="yes"/>
      <point x="156" y="2520" type="line" smooth="yes"/>
      <point x="156" y="2607"/>
      <point x="227" y="2678"/>
      <point x="314" y="2678" type="curve" smooth="yes"/>
      <point x="315" y="2678" type="line" smooth="yes"/>
      <point x="403" y="2678"/>
      <point x="473" y="2606"/>
      <point x="473" y="2520" type="curve" smooth="yes"/>
      <point x="473" y="158" type="line"/>
      <point x="1944" y="158" type="line" smooth="yes"/>
      <point x="2031" y="158"/>
      <point x="2101" y="88"/>
      <point x="2101" y="1" type="curve"/>
      <point x="2102" y="0" type="line"/>
      <point x="2102" y="-87"/>
      <point x="2031" y="-157"/>
      <point x="1944" y="-157" type="curve" smooth="yes"/>
      <point x="314" y="-158" type="line" smooth="yes"/>
      <point x="228" y="-158"/>
      <point x="156" y="-88"/>
    </contour>
  </outline>
</glyph>
<glyph name="M" format="2">
  <advance width="2905"/>
  <unicode hex="004D"/>
  <outline>
    <contour>
      <point x="156" y="0" type="curve" smooth="yes"/>
      <point x="156" y="2520" type="line" smooth="yes"/>
      <point x="156" y="2607"/>
      <point x="227" y="2678"/>
      <point x="314" y="2678" type="curve" smooth="yes"/>
      <point x="419" y="2678" type="line" smooth="yes"/>
      <point x="486" y="2678"/>
      <point x="546" y="2634"/>
      <point x="568" y="2571" type="curve" smooth="yes"/>
      <point x="1295" y="460" type="line"/>
      <point x="2022" y="2571" type="line" smooth="yes"/>
      <point x="2044" y="2634"/>
      <point x="2104" y="2677"/>
      <point x="2171" y="2677" type="curve" smooth="yes"/>
      <point x="2275" y="2678" type="line" smooth="yes"/>
      <point x="2362" y="2678"/>
      <point x="2432" y="2607"/>
      <point x="2432" y="2520" type="curve" smooth="yes"/>
      <point x="2433" y="0" type="line" smooth="yes"/>
      <point x="2433" y="-87"/>
      <point x="2363" y="-158"/>
      <point x="2276" y="-158" type="curve" smooth="yes"/>
      <point x="2189" y="-158"/>
      <point x="2118" y="-87"/>
      <point x="2118" y="-0" type="curve" smooth="yes"/>
      <point x="2118" y="1882" type="line"/>
      <point x="1470" y="2" type="line" smooth="yes"/>
      <point x="1448" y="-61"/>
      <point x="1388" y="-104"/>
      <point x="1321" y="-104" type="curve" smooth="yes"/>
      <point x="1268" y="-104" type="line" smooth="yes"/>
      <point x="1201" y="-104"/>
      <point x="1142" y="-61"/>
      <point x="1120" y="2" type="curve" smooth="yes"/>
      <point x="472" y="1884" type="line"/>
      <point x="472" y="0" type="line" smooth="yes"/>
      <point x="472" y="-87"/>
      <point x="401" y="-158"/>
      <point x="314" y="-158" type="curve" smooth="yes"/>
      <point x="227" y="-158"/>
      <point x="156" y="-87"/>
    </contour>
  </outline>
</glyph>
<glyph name="N" format="2">
  <advance width="2574"/>
  <unicode hex="004E"/>
  <outline>
    <contour>
      <point x="156" y="0" type="curve" smooth="yes"/>
      <point x="156" y="2520" type="line" smooth="yes"/>
      <point x="156" y="2607"/>
      <point x="227" y="2678"/>
      <point x="314" y="2678" type="curve" smooth="yes"/>
      <point x="419" y="2678" type="line" smooth="yes"/>
      <point x="476" y="2678"/>
      <point x="528" y="2646"/>
      <point x="556" y="2597" type="curve" smooth="yes"/>
      <point x="1786" y="414" type="line"/>
      <point x="1786" y="2520" type="line" smooth="yes"/>
      <point x="1786" y="2607"/>
      <point x="1857" y="2678"/>
      <point x="1944" y="2678" type="curve" smooth="yes"/>
      <point x="2031" y="2678"/>
      <point x="2102" y="2607"/>
      <point x="2102" y="2520" type="curve" smooth="yes"/>
      <point x="2101" y="-0" type="line" smooth="yes"/>
      <point x="2101" y="-87"/>
      <point x="2031" y="-158"/>
      <point x="1944" y="-158" type="curve" smooth="yes"/>
      <point x="1839" y="-157" type="line" smooth="yes"/>
      <point x="1782" y="-157"/>
      <point x="1730" y="-126"/>
      <point x="1702" y="-77" type="curve" smooth="yes"/>
      <point x="472" y="2106" type="line"/>
      <point x="472" y="0" type="line" smooth="yes"/>
      <point x="472" y="-87"/>
      <point x="401" y="-158"/>
      <point x="314" y="-158" type="curve" smooth="yes"/>
      <point x="227" y="-158"/>
      <point x="156" y="-87"/>
    </contour>
  </outline>
</glyph>
<glyph name="O" format="2">
  <advance width="2757"/>
  <unicode hex="004F"/>
  <outline>
    <contour>
      <point x="156" y="1260" type="curve" smooth="yes"/>
      <point x="156" y="2046"/>
      <point x="630" y="2678"/>
      <point x="1219" y="2678" type="curve" smooth="yes"/>
      <point x="1808" y="2678"/>
      <point x="2284" y="2045"/>
      <point x="2284" y="1260" type="curve" smooth="yes"/>
      <point x="2284" y="474"/>
      <point x="1811" y="-158"/>
      <point x="1222" y="-158" type="curve" smooth="yes"/>
      <point x="633" y="-158"/>
      <point x="156" y="475"/>
    </contour>
    <contour>
      <point x="472" y="1260" type="curve" smooth="yes"/>
      <point x="472" y="653"/>
      <point x="817" y="158"/>
      <point x="1222" y="158" type="curve" smooth="yes"/>
      <point x="1628" y="158"/>
      <point x="1970" y="654"/>
      <point x="1970" y="1260" type="curve" smooth="yes"/>
      <point x="1970" y="1867"/>
      <point x="1624" y="2362"/>
      <point x="1219" y="2362" type="curve" smooth="yes"/>
      <point x="813" y="2362"/>
      <point x="472" y="1866"/>
    </contour>
  </outline>
</glyph>
<glyph name="P" format="2">
  <advance width="2499"/>
  <unicode hex="0050"/>
  <outline>
    <contour>
      <point x="156" y="0" type="curve" smooth="yes"/>
      <point x="156" y="2520" type="line" smooth="yes"/>
      <point x="156" y="2607"/>
      <point x="227" y="2678"/>
      <point x="314" y="2678" type="curve" smooth="yes"/>
      <point x="1264" y="2678" type="line" smooth="yes"/>
      <point x="1682" y="2678"/>
      <point x="2026" y="2310"/>
      <point x="2026" y="1851" type="curve" smooth="yes"/>
      <point x="2026" y="1392"/>
      <point x="1682" y="1024"/>
      <point x="1264" y="1024" type="curve" smooth="yes"/>
      <point x="472" y="1024" type="line"/>
      <point x="472" y="0" type="line" smooth="yes"/>
      <point x="472" y="-87"/>
      <point x="401" y="-158"/>
      <point x="314" y="-158" type="curve" smooth="yes"/>
      <point x="227" y="-158"/>
      <point x="156" y="-87"/>
    </contour>
    <contour>
      <point x="472" y="1340" type="line"/>
      <point x="1264" y="1340" type="line" smooth="yes"/>
      <point x="1511" y="1340"/>
      <point x="1712" y="1572"/>
      <point x="1712" y="1851" type="curve" smooth="yes"/>
      <point x="1712" y="2130"/>
      <point x="1511" y="2362"/>
      <point x="1264" y="2362" type="curve" smooth="yes"/>
      <point x="472" y="2362" type="line"/>
    </contour>
  </outline>
</glyph>
<glyph name="Q" format="2">
  <advance width="2757"/>
  <unicode hex="0051"/>
  <outline>
    <contour>
      <point x="2428" y="-80" type="line" smooth="yes"/>
      <point x="2428" y="-233"/>
      <point x="2172" y="-335"/>
      <point x="2041" y="-335" type="curve" smooth="yes"/>
      <point x="1977" y="-335"/>
      <point x="1791" y="-319"/>
      <point x="1588" y="-72" type="curve"/>
      <point x="1475" y="-127"/>
      <point x="1352" y="-158"/>
      <point x="1222" y="-158" type="curve" smooth="yes"/>
      <point x="633" y="-158"/>
      <point x="156" y="475"/>
      <point x="156" y="1260" type="curve" smooth="yes"/>
      <point x="156" y="2046"/>
      <point x="630" y="2678"/>
      <point x="1219" y="2678" type="curve" smooth="yes"/>
      <point x="1808" y="2678"/>
      <point x="2284" y="2045"/>
      <point x="2284" y="1260" type="curve" smooth="yes"/>
      <point x="2284" y="1067"/>
      <point x="2249" y="499"/>
      <point x="1847" y="111" type="curve"/>
      <point x="1871" y="84"/>
      <point x="1965" y="-19"/>
      <point x="2041" y="-19" type="curve" smooth="yes"/>
      <point x="2126" y="-19"/>
      <point x="2174" y="78"/>
      <point x="2271" y="78" type="curve" smooth="yes"/>
      <point x="2358" y="78"/>
      <point x="2428" y="8"/>
      <point x="2428" y="-79" type="curve" smooth="yes"/>
    </contour>
    <contour>
      <point x="472" y="1260" type="curve" smooth="yes"/>
      <point x="472" y="653"/>
      <point x="817" y="158"/>
      <point x="1222" y="158" type="curve" smooth="yes"/>
      <point x="1290" y="158"/>
      <point x="1356" y="171"/>
      <point x="1420" y="198" type="curve"/>
      <point x="1408" y="225"/>
      <point x="1387" y="273"/>
      <point x="1363" y="333" type="curve"/>
      <point x="1325" y="346" type="line"/>
      <point x="1144" y="346" type="line" smooth="yes"/>
      <point x="1057" y="346"/>
      <point x="986" y="417"/>
      <point x="986" y="504" type="curve" smooth="yes"/>
      <point x="986" y="591"/>
      <point x="1057" y="662"/>
      <point x="1144" y="662" type="curve" smooth="yes"/>
      <point x="1353" y="662" type="line" smooth="yes"/>
      <point x="1372" y="662"/>
      <point x="1390" y="658"/>
      <point x="1407" y="652" type="curve" smooth="yes"/>
      <point x="1539" y="604" type="line" smooth="yes"/>
      <point x="1583" y="588"/>
      <point x="1618" y="552"/>
      <point x="1634" y="508" type="curve"/>
      <point x="1634" y="508"/>
      <point x="1651" y="458"/>
      <point x="1679" y="392" type="curve"/>
      <point x="1860" y="600"/>
      <point x="1970" y="917"/>
      <point x="1970" y="1260" type="curve" smooth="yes"/>
      <point x="1970" y="1867"/>
      <point x="1624" y="2362"/>
      <point x="1219" y="2362" type="curve" smooth="yes"/>
      <point x="813" y="2362"/>
      <point x="472" y="1866"/>
    </contour>
  </outline>
</glyph>
<glyph name="R" format="2">
  <advance width="2621"/>
  <unicode hex="0052"/>
  <outline>
    <contour>
      <point x="156" y="0" type="curve" smooth="yes"/>
      <point x="156" y="2520" type="line" smooth="yes"/>
      <point x="156" y="2607"/>
      <point x="227" y="2678"/>
      <point x="314" y="2678" type="curve" smooth="yes"/>
      <point x="1322" y="2678" type="line" smooth="yes"/>
      <point x="1779" y="2678"/>
      <point x="2148" y="2341"/>
      <point x="2148" y="1929" type="curve" smooth="yes"/>
      <point x="2148" y="1591"/>
      <point x="1902" y="1305"/>
      <point x="1561" y="1212" type="curve"/>
      <point x="2132" y="70" type="line" smooth="yes"/>
      <point x="2143" y="49"/>
      <point x="2149" y="25"/>
      <point x="2149" y="-0" type="curve" smooth="yes"/>
      <point x="2149" y="-87"/>
      <point x="2078" y="-158"/>
      <point x="1991" y="-158" type="curve" smooth="yes"/>
      <point x="1929" y="-158"/>
      <point x="1876" y="-122"/>
      <point x="1850" y="-71" type="curve" smooth="yes"/>
      <point x="1225" y="1180" type="line"/>
      <point x="472" y="1180" type="line"/>
      <point x="472" y="0" type="line" smooth="yes"/>
      <point x="472" y="-87"/>
      <point x="401" y="-158"/>
      <point x="314" y="-158" type="curve" smooth="yes"/>
      <point x="227" y="-158"/>
      <point x="156" y="-87"/>
    </contour>
    <contour>
      <point x="472" y="1496" type="line"/>
      <point x="1322" y="1496" type="line" smooth="yes"/>
      <point x="1603" y="1496"/>
      <point x="1834" y="1690"/>
      <point x="1834" y="1929" type="curve" smooth="yes"/>
      <point x="1834" y="2168"/>
      <point x="1603" y="2362"/>
      <point x="1322" y="2362" type="curve" smooth="yes"/>
      <point x="472" y="2362" type="line"/>
    </contour>
  </outline>
</glyph>
<glyph name="S" format="2">
  <advance width="2665"/>
  <unicode hex="0053"/>
  <outline>
    <contour>
      <point x="156" y="750" type="curve" smooth="yes"/>
      <point x="156" y="837"/>
      <point x="227" y="908"/>
      <point x="314" y="908" type="curve" smooth="yes"/>
      <point x="387" y="908"/>
      <point x="450" y="857"/>
      <point x="467" y="789" type="curve" smooth="yes"/>
      <point x="517" y="594"/>
      <point x="516" y="594"/>
      <point x="517" y="591" type="curve" smooth="yes"/>
      <point x="570" y="349"/>
      <point x="853" y="158"/>
      <point x="1193" y="158" type="curve" smooth="yes"/>
      <point x="1569" y="158"/>
      <point x="1877" y="391"/>
      <point x="1877" y="673" type="curve" smooth="yes"/>
      <point x="1877" y="955"/>
      <point x="1568" y="1189"/>
      <point x="1193" y="1189" type="curve" smooth="yes"/>
      <point x="1122" y="1189" type="line" smooth="yes"/>
      <point x="622" y="1189"/>
      <point x="221" y="1522"/>
      <point x="221" y="1933" type="curve" smooth="yes"/>
      <point x="221" y="2344"/>
      <point x="622" y="2678"/>
      <point x="1122" y="2678" type="curve" smooth="yes"/>
      <point x="1208" y="2678"/>
      <point x="1707" y="2660"/>
      <point x="1939" y="2249" type="curve" smooth="yes"/>
      <point x="1974" y="2186"/>
      <point x="2024" y="1990"/>
      <point x="2024" y="1933" type="curve" smooth="yes"/>
      <point x="2024" y="1846"/>
      <point x="1953" y="1776"/>
      <point x="1866" y="1776" type="curve" smooth="yes"/>
      <point x="1787" y="1776"/>
      <point x="1721" y="1834"/>
      <point x="1710" y="1910" type="curve" smooth="yes"/>
      <point x="1706" y="1938"/>
      <point x="1692" y="2024"/>
      <point x="1661" y="2101" type="curve"/>
      <point x="1570" y="2253"/>
      <point x="1362" y="2362"/>
      <point x="1122" y="2362" type="curve" smooth="yes"/>
      <point x="800" y="2362"/>
      <point x="536" y="2166"/>
      <point x="536" y="1933" type="curve" smooth="yes"/>
      <point x="536" y="1700"/>
      <point x="800" y="1504"/>
      <point x="1122" y="1504" type="curve" smooth="yes"/>
      <point x="1193" y="1504" type="line" smooth="yes"/>
      <point x="1747" y="1504"/>
      <point x="2192" y="1132"/>
      <point x="2192" y="673" type="curve" smooth="yes"/>
      <point x="2192" y="214"/>
      <point x="1747" y="-158"/>
      <point x="1193" y="-158" type="curve" smooth="yes"/>
      <point x="1052" y="-158"/>
      <point x="674" y="-128"/>
      <point x="401" y="165" type="curve" smooth="yes"/>
      <point x="308" y="265"/>
      <point x="244" y="387"/>
      <point x="210" y="521" type="curve" smooth="yes"/>
      <point x="161" y="711" type="line" smooth="yes"/>
      <point x="158" y="723"/>
      <point x="156" y="737"/>
    </contour>
  </outline>
</glyph>
<glyph name="T" format="2">
  <advance width="2834"/>
  <unicode hex="0054"/>
  <outline>
    <contour>
      <point x="156" y="2519" type="curve"/>
      <point x="156" y="2520" type="line"/>
      <point x="156" y="2607"/>
      <point x="227" y="2678"/>
      <point x="314" y="2678" type="curve" smooth="yes"/>
      <point x="2204" y="2678" type="line" smooth="yes"/>
      <point x="2291" y="2678"/>
      <point x="2361" y="2607"/>
      <point x="2361" y="2520" type="curve" smooth="yes"/>
      <point x="2361" y="2519" type="line" smooth="yes"/>
      <point x="2361" y="2432"/>
      <point x="2291" y="2361"/>
      <point x="2204" y="2361" type="curve" smooth="yes"/>
      <point x="1418" y="2361" type="line"/>
      <point x="1418" y="0" type="line" smooth="yes"/>
      <point x="1418" y="-87"/>
      <point x="1347" y="-158"/>
      <point x="1260" y="-158" type="curve" smooth="yes"/>
      <point x="1173" y="-158"/>
      <point x="1103" y="-87"/>
      <point x="1103" y="-0" type="curve" smooth="yes"/>
      <point x="1102" y="2362" type="line"/>
      <point x="314" y="2362" type="line" smooth="yes"/>
      <point x="226" y="2362"/>
      <point x="156" y="2433"/>
    </contour>
  </outline>
</glyph>
<glyph name="U" format="2">
  <advance width="2574"/>
  <unicode hex="0055"/>
  <outline>
    <contour>
      <point x="156" y="675" type="curve" smooth="yes"/>
      <point x="156" y="2520" type="line" smooth="yes"/>
      <point x="156" y="2607"/>
      <point x="227" y="2678"/>
      <point x="314" y="2678" type="curve" smooth="yes"/>
      <point x="401" y="2678"/>
      <point x="472" y="2607"/>
      <point x="472" y="2520" type="curve" smooth="yes"/>
      <point x="472" y="675" type="line" smooth="yes"/>
      <point x="472" y="390"/>
      <point x="768" y="158"/>
      <point x="1129" y="158" type="curve" smooth="yes"/>
      <point x="1490" y="158"/>
      <point x="1786" y="390"/>
      <point x="1786" y="675" type="curve" smooth="yes"/>
      <point x="1786" y="2520" type="line" smooth="yes"/>
      <point x="1786" y="2607"/>
      <point x="1857" y="2678"/>
      <point x="1944" y="2678" type="curve" smooth="yes"/>
      <point x="2031" y="2678"/>
      <point x="2102" y="2607"/>
      <point x="2102" y="2520" type="curve" smooth="yes"/>
      <point x="2102" y="675" type="line" smooth="yes"/>
      <point x="2102" y="215"/>
      <point x="1668" y="-158"/>
      <point x="1129" y="-158" type="curve" smooth="yes"/>
      <point x="590" y="-158"/>
      <point x="156" y="215"/>
    </contour>
  </outline>
</glyph>
<glyph name="V" format="2">
  <advance width="2735"/>
  <unicode hex="0056"/>
  <outline>
    <contour>
      <point x="156" y="2520" type="curve" smooth="yes"/>
      <point x="156" y="2607"/>
      <point x="227" y="2678"/>
      <point x="314" y="2678" type="curve" smooth="yes"/>
      <point x="383" y="2678"/>
      <point x="442" y="2633"/>
      <point x="463" y="2570" type="curve" smooth="yes"/>
      <point x="1210" y="340" type="line"/>
      <point x="1956" y="2570" type="line" smooth="yes"/>
      <point x="1977" y="2632"/>
      <point x="2036" y="2678"/>
      <point x="2105" y="2678" type="curve" smooth="yes"/>
      <point x="2192" y="2678"/>
      <point x="2263" y="2607"/>
      <point x="2263" y="2520" type="curve" smooth="yes"/>
      <point x="2263" y="2503"/>
      <point x="2259" y="2486"/>
      <point x="2254" y="2470" type="curve" smooth="yes"/>
      <point x="1411" y="-50" type="line" smooth="yes"/>
      <point x="1390" y="-114"/>
      <point x="1329" y="-158"/>
      <point x="1262" y="-158" type="curve" smooth="yes"/>
      <point x="1157" y="-157" type="line" smooth="yes"/>
      <point x="1090" y="-157"/>
      <point x="1029" y="-114"/>
      <point x="1008" y="-50" type="curve" smooth="yes"/>
      <point x="165" y="2470" type="line" smooth="yes"/>
      <point x="160" y="2486"/>
      <point x="156" y="2503"/>
    </contour>
  </outline>
</glyph>
<glyph name="W" format="2">
  <advance width="3380"/>
  <unicode hex="0057"/>
  <outline>
    <contour>
      <point x="156" y="2520" type="curve" smooth="yes"/>
      <point x="156" y="2607"/>
      <point x="227" y="2678"/>
      <point x="314" y="2678" type="curve" smooth="yes"/>
      <point x="390" y="2678"/>
      <point x="453" y="2624"/>
      <point x="468" y="2553" type="curve" smooth="yes"/>
      <point x="903" y="510" type="line"/>
      <point x="1326" y="2500" type="line" smooth="yes"/>
      <point x="1341" y="2572"/>
      <point x="1406" y="2624"/>
      <point x="1480" y="2624" type="curve" smooth="yes"/>
      <point x="1585" y="2624" type="line" smooth="yes"/>
      <point x="1659" y="2624"/>
      <point x="1724" y="2572"/>
      <point x="1739" y="2500" type="curve" smooth="yes"/>
      <point x="2162" y="510" type="line"/>
      <point x="2596" y="2550" type="line" smooth="yes"/>
      <point x="2611" y="2621"/>
      <point x="2674" y="2675"/>
      <point x="2750" y="2675" type="curve" smooth="yes"/>
      <point x="2837" y="2675"/>
      <point x="2908" y="2604"/>
      <point x="2908" y="2517" type="curve" smooth="yes"/>
      <point x="2908" y="2506"/>
      <point x="2906" y="2494"/>
      <point x="2904" y="2484" type="curve" smooth="yes"/>
      <point x="2368" y="-33" type="line" smooth="yes"/>
      <point x="2353" y="-105"/>
      <point x="2288" y="-158"/>
      <point x="2214" y="-158" type="curve" smooth="yes"/>
      <point x="2109" y="-157" type="line" smooth="yes"/>
      <point x="2035" y="-157"/>
      <point x="1970" y="-105"/>
      <point x="1955" y="-33" type="curve" smooth="yes"/>
      <point x="1532" y="1957" type="line"/>
      <point x="1109" y="-33" type="line" smooth="yes"/>
      <point x="1094" y="-105"/>
      <point x="1029" y="-158"/>
      <point x="955" y="-158" type="curve" smooth="yes"/>
      <point x="850" y="-157" type="line" smooth="yes"/>
      <point x="776" y="-157"/>
      <point x="711" y="-105"/>
      <point x="696" y="-33" type="curve" smooth="yes"/>
      <point x="160" y="2487" type="line" smooth="yes"/>
      <point x="158" y="2497"/>
      <point x="156" y="2509"/>
    </contour>
  </outline>
</glyph>
<glyph name="X" format="2">
  <advance width="2724"/>
  <unicode hex="0058"/>
  <outline>
    <contour>
      <point x="157" y="0" type="curve" smooth="yes"/>
      <point x="157" y="33"/>
      <point x="166" y="63"/>
      <point x="183" y="88" type="curve" smooth="yes"/>
      <point x="1014" y="1320" type="line"/>
      <point x="764" y="1691"/>
      <point x="514" y="2061"/>
      <point x="264" y="2432" type="curve" smooth="yes"/>
      <point x="253" y="2448"/>
      <point x="237" y="2479"/>
      <point x="237" y="2520" type="curve" smooth="yes"/>
      <point x="237" y="2606"/>
      <point x="308" y="2678"/>
      <point x="395" y="2678" type="curve"/>
      <point x="396" y="2678" type="line" smooth="yes"/>
      <point x="448" y="2678"/>
      <point x="498" y="2651"/>
      <point x="527" y="2608" type="curve" smooth="yes"/>
      <point x="1204" y="1602" type="line"/>
      <point x="1881" y="2608" type="line" smooth="yes"/>
      <point x="1910" y="2651"/>
      <point x="1960" y="2678"/>
      <point x="2012" y="2678" type="curve"/>
      <point x="2013" y="2678" type="line"/>
      <point x="2100" y="2678"/>
      <point x="2171" y="2606"/>
      <point x="2171" y="2520" type="curve" smooth="yes"/>
      <point x="2171" y="2500"/>
      <point x="2167" y="2466"/>
      <point x="2144" y="2432" type="curve" smooth="yes"/>
      <point x="1394" y="1320" type="line"/>
      <point x="2225" y="88" type="line" smooth="yes"/>
      <point x="2242" y="63"/>
      <point x="2251" y="33"/>
      <point x="2251" y="0" type="curve" smooth="yes"/>
      <point x="2251" y="-87"/>
      <point x="2181" y="-157"/>
      <point x="2094" y="-157" type="curve" smooth="yes"/>
      <point x="2040" y="-157"/>
      <point x="1992" y="-130"/>
      <point x="1964" y="-88" type="curve" smooth="yes"/>
      <point x="1204" y="1038" type="line"/>
      <point x="444" y="-88" type="line" smooth="yes"/>
      <point x="416" y="-130"/>
      <point x="368" y="-157"/>
      <point x="314" y="-157" type="curve" smooth="yes"/>
      <point x="227" y="-157"/>
      <point x="157" y="-87"/>
    </contour>
  </outline>
</glyph>
<glyph name="Z" format="2">
  <advance width="2683"/>
  <unicode hex="005A"/>
  <outline>
    <contour>
      <point x="156" y="0" type="curve" smooth="yes"/>
      <point x="156" y="105" type="line" smooth="yes"/>
      <point x="156" y="137"/>
      <point x="166" y="170"/>
      <point x="185" y="196" type="curve" smooth="yes"/>
      <point x="1702" y="2362" type="line"/>
      <point x="436" y="2362" type="line" smooth="yes"/>
      <point x="349" y="2362"/>
      <point x="278" y="2433"/>
      <point x="278" y="2520" type="curve" smooth="yes"/>
      <point x="278" y="2607"/>
      <point x="349" y="2678"/>
      <point x="436" y="2678" type="curve" smooth="yes"/>
      <point x="1931" y="2678" type="line" smooth="yes"/>
      <point x="2018" y="2678"/>
      <point x="2088" y="2607"/>
      <point x="2088" y="2520" type="curve" smooth="yes"/>
      <point x="2089" y="2415" type="line" smooth="yes"/>
      <point x="2089" y="2383"/>
      <point x="2079" y="2351"/>
      <point x="2060" y="2325" type="curve" smooth="yes"/>
      <point x="543" y="158" type="line"/>
      <point x="2053" y="158" type="line" smooth="yes"/>
      <point x="2140" y="158"/>
      <point x="2210" y="87"/>
      <point x="2210" y="0" type="curve" smooth="yes"/>
      <point x="2210" y="-87"/>
      <point x="2140" y="-158"/>
      <point x="2053" y="-158" type="curve" smooth="yes"/>
      <point x="314" y="-158" type="line" smooth="yes"/>
      <point x="227" y="-158"/>
      <point x="156" y="-87"/>
    </contour>
  </outline>
</glyph>
<glyph name="bracketleft" format="2">
  <advance width="1744"/>
  <unicode hex="005B"/>
  <outline>
    <contour>
      <point x="156" y="-280" type="curve" smooth="yes"/>
      <point x="156" y="2730" type="line" smooth="yes"/>
      <point x="156" y="2817"/>
      <point x="227" y="2888"/>
      <point x="314" y="2888" type="curve" smooth="yes"/>
      <point x="1114" y="2888" type="line" smooth="yes"/>
      <point x="1201" y="2888"/>
      <point x="1272" y="2817"/>
      <point x="1272" y="2730" type="curve" smooth="yes"/>
      <point x="1272" y="2643"/>
      <point x="1201" y="2572"/>
      <point x="1114" y="2572" type="curve" smooth="yes"/>
      <point x="472" y="2572" type="line"/>
      <point x="472" y="-122" type="line"/>
      <point x="1114" y="-122" type="line" smooth="yes"/>
      <point x="1201" y="-122"/>
      <point x="1272" y="-193"/>
      <point x="1272" y="-280" type="curve" smooth="yes"/>
      <point x="1272" y="-367"/>
      <point x="1201" y="-438"/>
      <point x="1114" y="-438" type="curve" smooth="yes"/>
      <point x="314" y="-438" type="line" smooth="yes"/>
      <point x="227" y="-438"/>
      <point x="156" y="-367"/>
    </contour>
  </outline>
</glyph>
<glyph name="asciicircum" format="2">
  <advance width="1836"/>
  <unicode hex="005E"/>
  <outline>
    <contour>
      <point x="156" y="1748" type="curve" smooth="yes"/>
      <point x="156" y="1777"/>
      <point x="165" y="1804"/>
      <point x="178" y="1827" type="curve" smooth="yes"/>
      <point x="624" y="2599" type="line" smooth="yes"/>
      <point x="633" y="2615"/>
      <point x="674" y="2677"/>
      <point x="760" y="2677" type="curve" smooth="yes"/>
      <point x="818" y="2677"/>
      <point x="870" y="2646"/>
      <point x="897" y="2599" type="curve" smooth="yes"/>
      <point x="1342" y="1827" type="line" smooth="yes"/>
      <point x="1355" y="1804"/>
      <point x="1364" y="1777"/>
      <point x="1364" y="1748" type="curve" smooth="yes"/>
      <point x="1364" y="1661"/>
      <point x="1293" y="1590"/>
      <point x="1206" y="1590" type="curve" smooth="yes"/>
      <point x="1148" y="1590"/>
      <point x="1097" y="1622"/>
      <point x="1070" y="1669" type="curve" smooth="yes"/>
      <point x="760" y="2205" type="line"/>
      <point x="450" y="1669" type="line" smooth="yes"/>
      <point x="423" y="1622"/>
      <point x="372" y="1590"/>
      <point x="314" y="1590" type="curve" smooth="yes"/>
      <point x="227" y="1590"/>
      <point x="156" y="1661"/>
    </contour>
  </outline>
</glyph>
<glyph name="underscore" format="2">
  <advance width="2624"/>
  <unicode hex="005F"/>
  <outline>
    <contour>
      <point x="156" y="-210" type="curve" smooth="yes"/>
      <point x="156" y="-123"/>
      <point x="227" y="-52"/>
      <point x="314" y="-52" type="curve" smooth="yes"/>
      <point x="1994" y="-52" type="line" smooth="yes"/>
      <point x="2081" y="-52"/>
      <point x="2152" y="-123"/>
      <point x="2152" y="-210" type="curve" smooth="yes"/>
      <point x="2152" y="-297"/>
      <point x="2081" y="-368"/>
      <point x="1994" y="-368" type="curve" smooth="yes"/>
      <point x="314" y="-368" type="line" smooth="yes"/>
      <point x="227" y="-368"/>
      <point x="156" y="-297"/>
    </contour>
  </outline>
</glyph>
<glyph name="grave" format="2">
  <advance width="1188"/>
  <unicode hex="0060"/>
  <outline>
    <contour>
      <point x="156" y="2450" type="curve" smooth="yes"/>
      <point x="156" y="2575"/>
      <point x="258" y="2677"/>
      <point x="384" y="2677" type="curve" smooth="yes"/>
      <point x="463" y="2677"/>
      <point x="539" y="2635"/>
      <point x="581" y="2563" type="curve" smooth="yes"/>
      <point x="616" y="2503" type="line" smooth="yes"/>
      <point x="622" y="2492"/>
      <point x="627" y="2479"/>
      <point x="631" y="2467" type="curve" smooth="yes"/>
      <point x="710" y="2190" type="line" smooth="yes"/>
      <point x="714" y="2176"/>
      <point x="716" y="2162"/>
      <point x="716" y="2147" type="curve" smooth="yes"/>
      <point x="716" y="2060"/>
      <point x="645" y="1989"/>
      <point x="559" y="1989" type="curve" smooth="yes"/>
      <point x="519" y="1989"/>
      <point x="477" y="2005"/>
      <point x="445" y="2037" type="curve" smooth="yes"/>
      <point x="245" y="2245" type="line" smooth="yes"/>
      <point x="236" y="2254"/>
      <point x="228" y="2265"/>
      <point x="221" y="2276" type="curve" smooth="yes"/>
      <point x="187" y="2336" type="line" smooth="yes"/>
      <point x="167" y="2371"/>
      <point x="156" y="2411"/>
    </contour>
  </outline>
</glyph>
<glyph name="a" format="2">
  <advance width="2099"/>
  <unicode hex="0061"/>
  <outline>
    <contour>
      <point x="804" y="-178" type="curve" smooth="yes"/>
      <point x="463" y="-178"/>
      <point x="156" y="-1"/>
      <point x="156" y="315" type="curve" smooth="yes"/>
      <point x="156" y="777"/>
      <point x="584" y="912"/>
      <point x="795" y="968" type="curve" smooth="yes"/>
      <point x="882" y="991"/>
      <point x="983" y="1007"/>
      <point x="1101" y="1016" type="curve"/>
      <point x="1101" y="1068"/>
      <point x="1102" y="1100"/>
      <point x="1102" y="1100" type="curve" smooth="yes"/>
      <point x="1102" y="1240"/>
      <point x="990" y="1382"/>
      <point x="794" y="1382" type="curve" smooth="yes"/>
      <point x="565" y="1382"/>
      <point x="497" y="1285"/>
      <point x="468" y="1154" type="curve" smooth="yes"/>
      <point x="452" y="1083"/>
      <point x="389" y="1030"/>
      <point x="314" y="1030" type="curve" smooth="yes"/>
      <point x="227" y="1030"/>
      <point x="156" y="1101"/>
      <point x="156" y="1188" type="curve" smooth="yes"/>
      <point x="156" y="1196"/>
      <point x="199" y="1698"/>
      <point x="794" y="1698" type="curve" smooth="yes"/>
      <point x="1158" y="1698"/>
      <point x="1416" y="1420"/>
      <point x="1416" y="1100" type="curve" smooth="yes"/>
      <point x="1416" y="876" type="line" smooth="yes"/>
      <point x="1416" y="873"/>
      <point x="1417" y="869"/>
      <point x="1417" y="866" type="curve" smooth="yes"/>
      <point x="1416" y="280" type="line" smooth="yes"/>
      <point x="1416" y="256"/>
      <point x="1418" y="172"/>
      <point x="1443" y="134" type="curve"/>
      <point x="1493" y="135"/>
      <point x="1550" y="144"/>
      <point x="1550" y="144" type="curve" smooth="yes"/>
      <point x="1556" y="145"/>
      <point x="1563" y="146"/>
      <point x="1574" y="146" type="curve" smooth="yes"/>
      <point x="1661" y="146"/>
      <point x="1732" y="75"/>
      <point x="1732" y="-12" type="curve" smooth="yes"/>
      <point x="1732" y="-174"/>
      <point x="1550" y="-182"/>
      <point x="1429" y="-182" type="curve" smooth="yes"/>
      <point x="1384" y="-182"/>
      <point x="1284" y="-169"/>
      <point x="1202" y="-69" type="curve"/>
      <point x="1080" y="-147"/>
      <point x="928" y="-178"/>
    </contour>
    <contour>
      <point x="472" y="315" type="curve" smooth="yes"/>
      <point x="472" y="173"/>
      <point x="701" y="138"/>
      <point x="804" y="138" type="curve" smooth="yes"/>
      <point x="831" y="138"/>
      <point x="1100" y="147"/>
      <point x="1100" y="315" type="curve"/>
      <point x="1100" y="315"/>
      <point x="1101" y="506"/>
      <point x="1101" y="700" type="curve"/>
      <point x="1030" y="694"/>
      <point x="947" y="683"/>
      <point x="877" y="664" type="curve" smooth="yes"/>
      <point x="547" y="576"/>
      <point x="472" y="467"/>
    </contour>
  </outline>
</glyph>
<glyph name="b" format="2">
  <advance width="1889"/>
  <unicode hex="0062"/>
  <outline>
    <contour>
      <point x="1416" y="758" type="curve" smooth="yes"/>
      <point x="1416" y="235"/>
      <point x="1115" y="-182"/>
      <point x="734" y="-182" type="curve" smooth="yes"/>
      <point x="645" y="-182"/>
      <point x="542" y="-159"/>
      <point x="440" y="-95" type="curve"/>
      <point x="411" y="-133"/>
      <point x="366" y="-158"/>
      <point x="314" y="-158" type="curve" smooth="yes"/>
      <point x="227" y="-158"/>
      <point x="156" y="-88"/>
      <point x="156" y="-1" type="curve" smooth="yes"/>
      <point x="156" y="2520" type="line" smooth="yes"/>
      <point x="156" y="2607"/>
      <point x="227" y="2678"/>
      <point x="314" y="2678" type="curve" smooth="yes"/>
      <point x="401" y="2678"/>
      <point x="472" y="2607"/>
      <point x="472" y="2520" type="curve" smooth="yes"/>
      <point x="472" y="1627" type="line"/>
      <point x="522" y="1656"/>
      <point x="613" y="1698"/>
      <point x="734" y="1698" type="curve" smooth="yes"/>
      <point x="1115" y="1698"/>
      <point x="1416" y="1281"/>
    </contour>
    <contour>
      <point x="472" y="325" type="line"/>
      <point x="512" y="254"/>
      <point x="599" y="134"/>
      <point x="734" y="134" type="curve" smooth="yes"/>
      <point x="924" y="134"/>
      <point x="1102" y="411"/>
      <point x="1102" y="758" type="curve" smooth="yes"/>
      <point x="1102" y="1105"/>
      <point x="924" y="1382"/>
      <point x="734" y="1382" type="curve" smooth="yes"/>
      <point x="624" y="1382"/>
      <point x="533" y="1292"/>
      <point x="472" y="1183" type="curve"/>
    </contour>
  </outline>
</glyph>
<glyph name="c" format="2">
  <advance width="1952"/>
  <unicode hex="0063"/>
  <outline>
    <contour>
      <point x="1480" y="448" type="curve" smooth="yes"/>
      <point x="1480" y="224"/>
      <point x="1279" y="-182"/>
      <point x="850" y="-182" type="curve" smooth="yes"/>
      <point x="464" y="-182"/>
      <point x="156" y="235"/>
      <point x="156" y="758" type="curve" smooth="yes"/>
      <point x="156" y="1281"/>
      <point x="464" y="1698"/>
      <point x="850" y="1698" type="curve" smooth="yes"/>
      <point x="1295" y="1698"/>
      <point x="1440" y="1246"/>
      <point x="1440" y="1093" type="curve" smooth="yes"/>
      <point x="1440" y="1006"/>
      <point x="1370" y="935"/>
      <point x="1283" y="935" type="curve" smooth="yes"/>
      <point x="1203" y="935"/>
      <point x="1136" y="996"/>
      <point x="1126" y="1074" type="curve" smooth="yes"/>
      <point x="1119" y="1132"/>
      <point x="1076" y="1382"/>
      <point x="850" y="1382" type="curve" smooth="yes"/>
      <point x="653" y="1382"/>
      <point x="472" y="1104"/>
      <point x="472" y="758" type="curve" smooth="yes"/>
      <point x="472" y="412"/>
      <point x="653" y="134"/>
      <point x="850" y="134" type="curve" smooth="yes"/>
      <point x="1031" y="134"/>
      <point x="1151" y="288"/>
      <point x="1165" y="461" type="curve" smooth="yes"/>
      <point x="1172" y="542"/>
      <point x="1240" y="605"/>
      <point x="1322" y="605" type="curve" smooth="yes"/>
      <point x="1409" y="605"/>
      <point x="1480" y="535"/>
    </contour>
  </outline>
</glyph>
<glyph name="d" format="2">
  <advance width="1889"/>
  <unicode hex="0064"/>
  <outline>
    <contour>
      <point x="839" y="-182" type="curve" smooth="yes"/>
      <point x="458" y="-182"/>
      <point x="156" y="235"/>
      <point x="156" y="758" type="curve" smooth="yes"/>
      <point x="156" y="1281"/>
      <point x="458" y="1698"/>
      <point x="839" y="1698" type="curve" smooth="yes"/>
      <point x="908" y="1698"/>
      <point x="1002" y="1684"/>
      <point x="1102" y="1627" type="curve"/>
      <point x="1102" y="2520" type="line" smooth="yes"/>
      <point x="1102" y="2607"/>
      <point x="1172" y="2678"/>
      <point x="1259" y="2678" type="curve" smooth="yes"/>
      <point x="1346" y="2678"/>
      <point x="1416" y="2607"/>
      <point x="1416" y="2520" type="curve" smooth="yes"/>
      <point x="1416" y="-1" type="line" smooth="yes"/>
      <point x="1416" y="-88"/>
      <point x="1346" y="-158"/>
      <point x="1259" y="-158" type="curve" smooth="yes"/>
      <point x="1207" y="-158"/>
      <point x="1162" y="-133"/>
      <point x="1133" y="-95" type="curve"/>
      <point x="1065" y="-138"/>
      <point x="965" y="-182"/>
    </contour>
    <contour>
      <point x="472" y="758" type="curve" smooth="yes"/>
      <point x="472" y="411"/>
      <point x="649" y="134"/>
      <point x="839" y="134" type="curve" smooth="yes"/>
      <point x="974" y="134"/>
      <point x="1062" y="254"/>
      <point x="1102" y="325" type="curve"/>
      <point x="1102" y="1183" type="line"/>
      <point x="1066" y="1248"/>
      <point x="974" y="1382"/>
      <point x="839" y="1382" type="curve" smooth="yes"/>
      <point x="649" y="1382"/>
      <point x="472" y="1105"/>
    </contour>
  </outline>
</glyph>
<glyph name="e" format="2">
  <advance width="1958"/>
  <unicode hex="0065"/>
  <outline>
    <contour>
      <point x="1486" y="433" type="curve" smooth="yes"/>
      <point x="1486" y="329"/>
      <point x="1296" y="-182"/>
      <point x="839" y="-182" type="curve" smooth="yes"/>
      <point x="460" y="-182"/>
      <point x="156" y="231"/>
      <point x="156" y="748" type="curve" smooth="yes"/>
      <point x="156" y="1274"/>
      <point x="454" y="1698"/>
      <point x="839" y="1698" type="curve" smooth="yes"/>
      <point x="1263" y="1698"/>
      <point x="1485" y="1195"/>
      <point x="1485" y="948" type="curve" smooth="yes"/>
      <point x="1485" y="777"/>
      <point x="1376" y="718"/>
      <point x="1294" y="718" type="curve" smooth="yes"/>
      <point x="472" y="718" type="line"/>
      <point x="482" y="389"/>
      <point x="657" y="134"/>
      <point x="839" y="134" type="curve" smooth="yes"/>
      <point x="988" y="134"/>
      <point x="1118" y="268"/>
      <point x="1176" y="475" type="curve" smooth="yes"/>
      <point x="1195" y="541"/>
      <point x="1256" y="591"/>
      <point x="1328" y="591" type="curve" smooth="yes"/>
      <point x="1415" y="591"/>
      <point x="1486" y="520"/>
    </contour>
    <contour>
      <point x="513" y="1034" type="curve"/>
      <point x="1156" y="1034" type="line"/>
      <point x="1126" y="1144"/>
      <point x="1017" y="1382"/>
      <point x="839" y="1382" type="curve" smooth="yes"/>
      <point x="697" y="1382"/>
      <point x="573" y="1230"/>
    </contour>
  </outline>
</glyph>
<glyph name="f" format="2">
  <advance width="1993"/>
  <unicode hex="0066"/>
  <outline>
    <contour>
      <point x="50" y="1590" type="curve" smooth="yes"/>
      <point x="50" y="1677"/>
      <point x="121" y="1747"/>
      <point x="208" y="1747" type="curve" smooth="yes"/>
      <point x="471" y="1748" type="line"/>
      <point x="472" y="2101" type="line" smooth="yes"/>
      <point x="472" y="2419"/>
      <point x="729" y="2678"/>
      <point x="1048" y="2678" type="curve" smooth="yes"/>
      <point x="1367" y="2678"/>
      <point x="1626" y="2420"/>
      <point x="1626" y="2101" type="curve" smooth="yes"/>
      <point x="1626" y="2046" type="line" smooth="yes"/>
      <point x="1626" y="1959"/>
      <point x="1555" y="1888"/>
      <point x="1468" y="1888" type="curve" smooth="yes"/>
      <point x="1381" y="1888"/>
      <point x="1310" y="1959"/>
      <point x="1310" y="2046" type="curve" smooth="yes"/>
      <point x="1310" y="2101" type="line" smooth="yes"/>
      <point x="1310" y="2246"/>
      <point x="1193" y="2364"/>
      <point x="1048" y="2364" type="curve" smooth="yes"/>
      <point x="903" y="2364"/>
      <point x="786" y="2247"/>
      <point x="786" y="2101" type="curve" smooth="yes"/>
      <point x="786" y="1748" type="line"/>
      <point x="1188" y="1747" type="line" smooth="yes"/>
      <point x="1275" y="1747"/>
      <point x="1345" y="1677"/>
      <point x="1345" y="1590" type="curve" smooth="yes"/>
      <point x="1345" y="1503"/>
      <point x="1275" y="1432"/>
      <point x="1188" y="1432" type="curve" smooth="yes"/>
      <point x="786" y="1432" type="line"/>
      <point x="786" y="1" type="line" smooth="yes"/>
      <point x="786" y="-86"/>
      <point x="715" y="-156"/>
      <point x="628" y="-156" type="curve" smooth="yes"/>
      <point x="541" y="-156"/>
      <point x="470" y="-86"/>
      <point x="470" y="1" type="curve" smooth="yes"/>
      <point x="470" y="1432" type="line"/>
      <point x="208" y="1432" type="line" smooth="yes"/>
      <point x="121" y="1432"/>
      <point x="50" y="1503"/>
    </contour>
  </outline>
</glyph>
<glyph name="g" format="2">
  <advance width="1903"/>
  <unicode hex="0067"/>
  <outline>
    <contour>
      <point x="892" y="-581" type="curve" smooth="yes"/>
      <point x="485" y="-581"/>
      <point x="103" y="-388"/>
      <point x="103" y="-104" type="curve" smooth="yes"/>
      <point x="103" y="-47"/>
      <point x="121" y="52"/>
      <point x="222" y="142" type="curve"/>
      <point x="181" y="214"/>
      <point x="156" y="297"/>
      <point x="156" y="386" type="curve" smooth="yes"/>
      <point x="156" y="522"/>
      <point x="212" y="645"/>
      <point x="302" y="733" type="curve"/>
      <point x="260" y="797"/>
      <point x="199" y="917"/>
      <point x="199" y="1080" type="curve" smooth="yes"/>
      <point x="199" y="1366"/>
      <point x="390" y="1597"/>
      <point x="644" y="1632" type="curve"/>
      <point x="697" y="1771"/>
      <point x="831" y="1870"/>
      <point x="988" y="1870" type="curve" smooth="yes"/>
      <point x="1032" y="1870"/>
      <point x="1199" y="1860"/>
      <point x="1199" y="1705" type="curve" smooth="yes"/>
      <point x="1199" y="1618"/>
      <point x="1129" y="1547"/>
      <point x="1042" y="1547" type="curve" smooth="yes"/>
      <point x="1012" y="1547"/>
      <point x="1002" y="1554"/>
      <point x="988" y="1554" type="curve" smooth="yes"/>
      <point x="986" y="1554"/>
      <point x="985" y="1554"/>
      <point x="983" y="1554" type="curve"/>
      <point x="1153" y="1444"/>
      <point x="1253" y="1247"/>
      <point x="1253" y="1041" type="curve" smooth="yes"/>
      <point x="1253" y="729"/>
      <point x="1026" y="485"/>
      <point x="743" y="485" type="curve" smooth="yes"/>
      <point x="673" y="485"/>
      <point x="605" y="500"/>
      <point x="544" y="527" type="curve"/>
      <point x="500" y="496"/>
      <point x="472" y="444"/>
      <point x="472" y="386" type="curve" smooth="yes"/>
      <point x="472" y="345"/>
      <point x="486" y="307"/>
      <point x="511" y="277" type="curve"/>
      <point x="584" y="293"/>
      <point x="663" y="301"/>
      <point x="746" y="301" type="curve" smooth="yes"/>
      <point x="1153" y="301"/>
      <point x="1535" y="108"/>
      <point x="1535" y="-176" type="curve" smooth="yes"/>
      <point x="1535" y="-409"/>
      <point x="1276" y="-581"/>
    </contour>
    <contour>
      <point x="1219" y="-176" type="line"/>
      <point x="1191" y="-117"/>
      <point x="1005" y="-14"/>
      <point x="746" y="-14" type="curve" smooth="yes"/>
      <point x="743" y="-14"/>
      <point x="489" y="-18"/>
      <point x="420" y="-104" type="curve"/>
      <point x="419" y="-104" type="line"/>
      <point x="447" y="-163"/>
      <point x="633" y="-266"/>
      <point x="892" y="-266" type="curve" smooth="yes"/>
      <point x="895" y="-266"/>
      <point x="1149" y="-262"/>
      <point x="1218" y="-176" type="curve"/>
    </contour>
    <contour>
      <point x="514" y="1080" type="curve" smooth="yes"/>
      <point x="514" y="926"/>
      <point x="625" y="800"/>
      <point x="743" y="800" type="curve" smooth="yes"/>
      <point x="858" y="800"/>
      <point x="938" y="915"/>
      <point x="938" y="1041" type="curve" smooth="yes"/>
      <point x="938" y="1195"/>
      <point x="827" y="1322"/>
      <point x="709" y="1322" type="curve" smooth="yes"/>
      <point x="593" y="1322"/>
      <point x="514" y="1206"/>
    </contour>
  </outline>
</glyph>
<glyph name="i" format="2">
  <advance width="944"/>
  <unicode hex="0069"/>
  <outline>
    <contour>
      <point x="104" y="2345" type="curve" smooth="yes"/>
      <point x="104" y="2461"/>
      <point x="197" y="2555"/>
      <point x="314" y="2555" type="curve" smooth="yes"/>
      <point x="431" y="2555"/>
      <point x="524" y="2461"/>
      <point x="524" y="2345" type="curve" smooth="yes"/>
      <point x="524" y="2229"/>
      <point x="431" y="2135"/>
      <point x="314" y="2135" type="curve" smooth="yes"/>
      <point x="198" y="2135"/>
      <point x="104" y="2228"/>
    </contour>
    <contour>
      <point x="156" y="0" type="curve" smooth="yes"/>
      <point x="156" y="1540" type="line" smooth="yes"/>
      <point x="156" y="1627"/>
      <point x="227" y="1698"/>
      <point x="314" y="1698" type="curve" smooth="yes"/>
      <point x="401" y="1698"/>
      <point x="472" y="1627"/>
      <point x="472" y="1540" type="curve" smooth="yes"/>
      <point x="472" y="0" type="line" smooth="yes"/>
      <point x="472" y="-87"/>
      <point x="401" y="-158"/>
      <point x="314" y="-158" type="curve" smooth="yes"/>
      <point x="227" y="-158"/>
      <point x="156" y="-87"/>
    </contour>
    <contour>
      <point x="210" y="2345" type="line"/>
      <point x="314" y="2240" type="line"/>
      <point x="420" y="2345" type="line"/>
      <point x="314" y="2450" type="line"/>
    </contour>
  </outline>
</glyph>
<glyph name="j" format="2">
  <advance width="1397"/>
  <unicode hex="006A"/>
  <outline>
    <contour>
      <point x="50" y="0" type="line" smooth="yes"/>
      <point x="50" y="87"/>
      <point x="120" y="158"/>
      <point x="207" y="158" type="curve" smooth="yes"/>
      <point x="294" y="158"/>
      <point x="364" y="87"/>
      <point x="364" y="0" type="curve" smooth="yes"/>
      <point x="364" y="-55" type="line" smooth="yes"/>
      <point x="364" y="-123"/>
      <point x="419" y="-178"/>
      <point x="487" y="-178" type="curve" smooth="yes"/>
      <point x="555" y="-178"/>
      <point x="610" y="-123"/>
      <point x="610" y="-55" type="curve" smooth="yes"/>
      <point x="610" y="1540" type="line" smooth="yes"/>
      <point x="610" y="1627"/>
      <point x="680" y="1698"/>
      <point x="767" y="1698" type="curve" smooth="yes"/>
      <point x="854" y="1698"/>
      <point x="924" y="1627"/>
      <point x="924" y="1540" type="curve" smooth="yes"/>
      <point x="924" y="-55" type="line" smooth="yes"/>
      <point x="924" y="-297"/>
      <point x="729" y="-492"/>
      <point x="487" y="-492" type="curve" smooth="yes"/>
      <point x="245" y="-492"/>
      <point x="50" y="-297"/>
      <point x="50" y="-55" type="curve" smooth="yes"/>
    </contour>
    <contour>
      <point x="558" y="2345" type="curve" smooth="yes"/>
      <point x="558" y="2462"/>
      <point x="652" y="2555"/>
      <point x="768" y="2555" type="curve" smooth="yes"/>
      <point x="885" y="2555"/>
      <point x="978" y="2461"/>
      <point x="978" y="2345" type="curve" smooth="yes"/>
      <point x="978" y="2228"/>
      <point x="884" y="2135"/>
      <point x="768" y="2135" type="curve" smooth="yes"/>
      <point x="651" y="2135"/>
      <point x="558" y="2229"/>
    </contour>
    <contour>
      <point x="662" y="2345" type="line"/>
      <point x="768" y="2240" type="line"/>
      <point x="872" y="2345" type="line"/>
      <point x="768" y="2450" type="line"/>
    </contour>
  </outline>
</glyph>
<glyph name="k" format="2">
  <advance width="1948"/>
  <unicode hex="006B"/>
  <outline>
    <contour>
      <point x="156" y="-0" type="curve" smooth="yes"/>
      <point x="156" y="0"/>
      <point x="156" y="280"/>
      <point x="156" y="653" type="curve" smooth="yes"/>
      <point x="156" y="1400"/>
      <point x="156" y="2520"/>
      <point x="156" y="2520" type="curve" smooth="yes"/>
      <point x="156" y="2607"/>
      <point x="227" y="2678"/>
      <point x="314" y="2678" type="curve" smooth="yes"/>
      <point x="401" y="2678"/>
      <point x="472" y="2607"/>
      <point x="472" y="2520" type="curve" smooth="yes"/>
      <point x="472" y="810" type="line"/>
      <point x="1207" y="1546" type="line" smooth="yes"/>
      <point x="1236" y="1575"/>
      <point x="1274" y="1592"/>
      <point x="1318" y="1592" type="curve" smooth="yes"/>
      <point x="1405" y="1592"/>
      <point x="1475" y="1522"/>
      <point x="1475" y="1435" type="curve" smooth="yes"/>
      <point x="1475" y="1392"/>
      <point x="1457" y="1352"/>
      <point x="1429" y="1324" type="curve" smooth="yes"/>
      <point x="1056" y="949" type="line"/>
      <point x="1558" y="79" type="line" smooth="yes"/>
      <point x="1572" y="56"/>
      <point x="1580" y="29"/>
      <point x="1580" y="-0" type="curve" smooth="yes"/>
      <point x="1580" y="-87"/>
      <point x="1509" y="-158"/>
      <point x="1422" y="-158" type="curve" smooth="yes"/>
      <point x="1364" y="-158"/>
      <point x="1313" y="-126"/>
      <point x="1286" y="-79" type="curve" smooth="yes"/>
      <point x="825" y="719" type="line"/>
      <point x="472" y="366" type="line"/>
      <point x="471" y="-1" type="line" smooth="yes"/>
      <point x="471" y="-88"/>
      <point x="401" y="-158"/>
      <point x="314" y="-158" type="curve" smooth="yes"/>
      <point x="227" y="-158"/>
      <point x="156" y="-87"/>
    </contour>
  </outline>
</glyph>
<glyph name="m" format="2">
  <advance width="2548"/>
  <unicode hex="006D"/>
  <outline>
    <contour>
      <point x="1117" y="1506" type="curve"/>
      <point x="1174" y="1572"/>
      <point x="1309" y="1698"/>
      <point x="1519" y="1698" type="curve" smooth="yes"/>
      <point x="1827" y="1698"/>
      <point x="2076" y="1419"/>
      <point x="2076" y="1068" type="curve" smooth="yes"/>
      <point x="2075" y="-0" type="line" smooth="yes"/>
      <point x="2075" y="-87"/>
      <point x="2005" y="-158"/>
      <point x="1918" y="-158" type="curve" smooth="yes"/>
      <point x="1831" y="-158"/>
      <point x="1760" y="-87"/>
      <point x="1760" y="0" type="curve" smooth="yes"/>
      <point x="1761" y="0" type="line" smooth="yes"/>
      <point x="1761" y="1068" type="line" smooth="yes"/>
      <point x="1761" y="1240"/>
      <point x="1653" y="1382"/>
      <point x="1519" y="1382" type="curve" smooth="yes"/>
      <point x="1385" y="1382"/>
      <point x="1275" y="1240"/>
      <point x="1275" y="1068" type="curve" smooth="yes"/>
      <point x="1274" y="-0" type="line" smooth="yes"/>
      <point x="1274" y="-87"/>
      <point x="1203" y="-158"/>
      <point x="1116" y="-158" type="curve" smooth="yes"/>
      <point x="1029" y="-158"/>
      <point x="959" y="-87"/>
      <point x="959" y="-0" type="curve" smooth="yes"/>
      <point x="959" y="1068" type="line" smooth="yes"/>
      <point x="959" y="1240"/>
      <point x="849" y="1382"/>
      <point x="715" y="1382" type="curve" smooth="yes"/>
      <point x="581" y="1382"/>
      <point x="472" y="1240"/>
      <point x="472" y="1068" type="curve" smooth="yes"/>
      <point x="471" y="-0" type="line" smooth="yes"/>
      <point x="471" y="-87"/>
      <point x="401" y="-158"/>
      <point x="314" y="-158" type="curve" smooth="yes"/>
      <point x="227" y="-158"/>
      <point x="156" y="-87"/>
      <point x="156" y="-0" type="curve" smooth="yes"/>
      <point x="156" y="1516" type="line" smooth="yes"/>
      <point x="156" y="1603"/>
      <point x="227" y="1674"/>
      <point x="314" y="1674" type="curve" smooth="yes"/>
      <point x="364" y="1674"/>
      <point x="408" y="1650"/>
      <point x="437" y="1614" type="curve"/>
      <point x="518" y="1666"/>
      <point x="613" y="1698"/>
      <point x="715" y="1698" type="curve" smooth="yes"/>
      <point x="868" y="1698"/>
      <point x="1013" y="1627"/>
    </contour>
  </outline>
</glyph>
<glyph name="n" format="2">
  <advance width="1888"/>
  <unicode hex="006E"/>
  <outline>
    <contour>
      <point x="156" y="-0" type="curve" smooth="yes"/>
      <point x="156" y="1516" type="line" smooth="yes"/>
      <point x="156" y="1603"/>
      <point x="227" y="1674"/>
      <point x="314" y="1674" type="curve" smooth="yes"/>
      <point x="370" y="1674"/>
      <point x="420" y="1644"/>
      <point x="448" y="1599" type="curve"/>
      <point x="546" y="1661"/>
      <point x="661" y="1698"/>
      <point x="786" y="1698" type="curve" smooth="yes"/>
      <point x="1134" y="1698"/>
      <point x="1416" y="1416"/>
      <point x="1416" y="1068" type="curve" smooth="yes"/>
      <point x="1416" y="0" type="line" smooth="yes"/>
      <point x="1416" y="-87"/>
      <point x="1345" y="-158"/>
      <point x="1258" y="-158" type="curve" smooth="yes"/>
      <point x="1171" y="-158"/>
      <point x="1100" y="-87"/>
      <point x="1100" y="0" type="curve" smooth="yes"/>
      <point x="1100" y="1068" type="line" smooth="yes"/>
      <point x="1100" y="1242"/>
      <point x="960" y="1382"/>
      <point x="786" y="1382" type="curve" smooth="yes"/>
      <point x="612" y="1382"/>
      <point x="472" y="1243"/>
      <point x="472" y="1068" type="curve" smooth="yes"/>
      <point x="471" y="-0" type="line" smooth="yes"/>
      <point x="471" y="-87"/>
      <point x="401" y="-158"/>
      <point x="314" y="-158" type="curve" smooth="yes"/>
      <point x="227" y="-158"/>
      <point x="156" y="-87"/>
    </contour>
  </outline>
</glyph>
<glyph name="o" format="2">
  <advance width="1999"/>
  <unicode hex="006F"/>
  <outline>
    <contour>
      <point x="1522" y="758" type="curve" smooth="yes"/>
      <point x="1522" y="235"/>
      <point x="1220" y="-182"/>
      <point x="839" y="-182" type="curve" smooth="yes"/>
      <point x="460" y="-182"/>
      <point x="156" y="231"/>
      <point x="156" y="748" type="curve" smooth="yes"/>
      <point x="156" y="1274"/>
      <point x="454" y="1698"/>
      <point x="839" y="1698" type="curve" smooth="yes"/>
      <point x="1220" y="1698"/>
      <point x="1522" y="1281"/>
    </contour>
    <contour>
      <point x="839" y="1382" type="curve" smooth="yes"/>
      <point x="647" y="1382"/>
      <point x="471" y="1097"/>
      <point x="471" y="748" type="curve" smooth="yes"/>
      <point x="471" y="406"/>
      <point x="651" y="134"/>
      <point x="839" y="134" type="curve" smooth="yes"/>
      <point x="1029" y="134"/>
      <point x="1206" y="411"/>
      <point x="1206" y="758" type="curve" smooth="yes"/>
      <point x="1206" y="1105"/>
      <point x="1029" y="1382"/>
    </contour>
  </outline>
</glyph>
<glyph name="p" format="2">
  <advance width="1889"/>
  <unicode hex="0070"/>
  <outline>
    <contour>
      <point x="1416" y="758" type="curve" smooth="yes"/>
      <point x="1416" y="235"/>
      <point x="1115" y="-182"/>
      <point x="734" y="-182" type="curve" smooth="yes"/>
      <point x="665" y="-182"/>
      <point x="572" y="-168"/>
      <point x="472" y="-111" type="curve"/>
      <point x="472" y="-1004" type="line" smooth="yes"/>
      <point x="472" y="-1091"/>
      <point x="401" y="-1162"/>
      <point x="314" y="-1162" type="curve" smooth="yes"/>
      <point x="227" y="-1162"/>
      <point x="156" y="-1091"/>
      <point x="156" y="-1004" type="curve" smooth="yes"/>
      <point x="156" y="1516" type="line" smooth="yes"/>
      <point x="156" y="1603"/>
      <point x="227" y="1674"/>
      <point x="314" y="1674" type="curve" smooth="yes"/>
      <point x="365" y="1674"/>
      <point x="411" y="1649"/>
      <point x="440" y="1611" type="curve"/>
      <point x="508" y="1654"/>
      <point x="608" y="1698"/>
      <point x="734" y="1698" type="curve" smooth="yes"/>
      <point x="1115" y="1698"/>
      <point x="1416" y="1281"/>
    </contour>
    <contour>
      <point x="471" y="333" type="line"/>
      <point x="507" y="268"/>
      <point x="599" y="134"/>
      <point x="734" y="134" type="curve" smooth="yes"/>
      <point x="924" y="134"/>
      <point x="1102" y="411"/>
      <point x="1102" y="758" type="curve" smooth="yes"/>
      <point x="1102" y="1105"/>
      <point x="924" y="1382"/>
      <point x="734" y="1382" type="curve" smooth="yes"/>
      <point x="599" y="1382"/>
      <point x="511" y="1262"/>
      <point x="471" y="1191" type="curve"/>
    </contour>
  </outline>
</glyph>
<glyph name="q" format="2">
  <advance width="1889"/>
  <unicode hex="0071"/>
  <outline>
    <contour>
      <point x="839" y="-182" type="curve" smooth="yes"/>
      <point x="458" y="-182"/>
      <point x="156" y="235"/>
      <point x="156" y="758" type="curve" smooth="yes"/>
      <point x="156" y="1281"/>
      <point x="458" y="1698"/>
      <point x="839" y="1698" type="curve" smooth="yes"/>
      <point x="928" y="1698"/>
      <point x="1031" y="1675"/>
      <point x="1133" y="1611" type="curve"/>
      <point x="1162" y="1649"/>
      <point x="1208" y="1674"/>
      <point x="1259" y="1674" type="curve" smooth="yes"/>
      <point x="1346" y="1674"/>
      <point x="1416" y="1603"/>
      <point x="1416" y="1516" type="curve" smooth="yes"/>
      <point x="1416" y="-1004" type="line" smooth="yes"/>
      <point x="1416" y="-1091"/>
      <point x="1346" y="-1162"/>
      <point x="1259" y="-1162" type="curve" smooth="yes"/>
      <point x="1172" y="-1162"/>
      <point x="1102" y="-1091"/>
      <point x="1102" y="-1004" type="curve" smooth="yes"/>
      <point x="1102" y="-111" type="line"/>
      <point x="1052" y="-140"/>
      <point x="960" y="-182"/>
    </contour>
    <contour>
      <point x="472" y="758" type="curve" smooth="yes"/>
      <point x="472" y="411"/>
      <point x="649" y="134"/>
      <point x="839" y="134" type="curve" smooth="yes"/>
      <point x="949" y="134"/>
      <point x="1041" y="224"/>
      <point x="1102" y="333" type="curve"/>
      <point x="1102" y="1191" type="line"/>
      <point x="1062" y="1262"/>
      <point x="974" y="1382"/>
      <point x="839" y="1382" type="curve" smooth="yes"/>
      <point x="649" y="1382"/>
      <point x="472" y="1105"/>
    </contour>
  </outline>
</glyph>
<glyph name="r" format="2">
  <advance width="1784"/>
  <unicode hex="0072"/>
  <outline>
    <contour>
      <point x="156" y="0" type="curve" smooth="yes"/>
      <point x="156" y="1540" type="line" smooth="yes"/>
      <point x="156" y="1627"/>
      <point x="227" y="1698"/>
      <point x="314" y="1698" type="curve" smooth="yes"/>
      <point x="371" y="1698"/>
      <point x="421" y="1667"/>
      <point x="449" y="1622" type="curve"/>
      <point x="533" y="1670"/>
      <point x="630" y="1698"/>
      <point x="734" y="1698" type="curve" smooth="yes"/>
      <point x="1053" y="1698"/>
      <point x="1312" y="1439"/>
      <point x="1312" y="1120" type="curve" smooth="yes"/>
      <point x="1312" y="1065" type="line" smooth="yes"/>
      <point x="1312" y="978"/>
      <point x="1241" y="908"/>
      <point x="1154" y="908" type="curve" smooth="yes"/>
      <point x="1067" y="908"/>
      <point x="996" y="978"/>
      <point x="996" y="1065" type="curve" smooth="yes"/>
      <point x="996" y="1120" type="line" smooth="yes"/>
      <point x="996" y="1265"/>
      <point x="879" y="1382"/>
      <point x="734" y="1382" type="curve" smooth="yes"/>
      <point x="589" y="1382"/>
      <point x="473" y="1266"/>
      <point x="473" y="1120" type="curve" smooth="yes"/>
      <point x="473" y="1114"/>
      <point x="473" y="1108"/>
      <point x="472" y="1102" type="curve" smooth="yes"/>
      <point x="472" y="0" type="line" smooth="yes"/>
      <point x="472" y="-87"/>
      <point x="401" y="-158"/>
      <point x="314" y="-158" type="curve" smooth="yes"/>
      <point x="227" y="-158"/>
      <point x="156" y="-87"/>
    </contour>
  </outline>
</glyph>
<glyph name="s" format="2">
  <advance width="1917"/>
  <unicode hex="0073"/>
  <outline>
    <contour>
      <point x="787" y="-182" type="curve" smooth="yes"/>
      <point x="290" y="-182"/>
      <point x="156" y="302"/>
      <point x="156" y="389" type="curve" smooth="yes"/>
      <point x="156" y="476"/>
      <point x="227" y="547"/>
      <point x="314" y="547" type="curve" smooth="yes"/>
      <point x="390" y="547"/>
      <point x="453" y="493"/>
      <point x="468" y="422" type="curve" smooth="yes"/>
      <point x="486" y="336"/>
      <point x="554" y="134"/>
      <point x="787" y="134" type="curve" smooth="yes"/>
      <point x="1019" y="134"/>
      <point x="1129" y="251"/>
      <point x="1129" y="379" type="curve" smooth="yes"/>
      <point x="1129" y="535"/>
      <point x="868" y="597"/>
      <point x="764" y="615" type="curve" smooth="yes"/>
      <point x="699" y="626"/>
      <point x="198" y="728"/>
      <point x="198" y="1149" type="curve" smooth="yes"/>
      <point x="198" y="1449"/>
      <point x="476" y="1698"/>
      <point x="787" y="1698" type="curve" smooth="yes"/>
      <point x="1218" y="1698"/>
      <point x="1387" y="1265"/>
      <point x="1387" y="1149" type="curve" smooth="yes"/>
      <point x="1387" y="1062"/>
      <point x="1317" y="991"/>
      <point x="1230" y="991" type="curve" smooth="yes"/>
      <point x="1154" y="991"/>
      <point x="1091" y="1045"/>
      <point x="1076" y="1116" type="curve" smooth="yes"/>
      <point x="1062" y="1184"/>
      <point x="985" y="1382"/>
      <point x="787" y="1382" type="curve" smooth="yes"/>
      <point x="648" y="1382"/>
      <point x="514" y="1271"/>
      <point x="514" y="1149" type="curve" smooth="yes"/>
      <point x="514" y="1017"/>
      <point x="698" y="946"/>
      <point x="818" y="925" type="curve" smooth="yes"/>
      <point x="1008" y="892"/>
      <point x="1444" y="772"/>
      <point x="1444" y="379" type="curve" smooth="yes"/>
      <point x="1444" y="97"/>
      <point x="1218" y="-182"/>
    </contour>
  </outline>
</glyph>
<glyph name="t" format="2">
  <advance width="1819"/>
  <unicode hex="0074"/>
  <outline>
    <contour>
      <point x="52" y="1540" type="curve" smooth="yes"/>
      <point x="52" y="1627"/>
      <point x="122" y="1698"/>
      <point x="209" y="1698" type="curve" smooth="yes"/>
      <point x="472" y="1698" type="line"/>
      <point x="472" y="1786"/>
      <point x="472" y="1872"/>
      <point x="472" y="1960" type="curve" smooth="yes"/>
      <point x="472" y="2047"/>
      <point x="542" y="2118"/>
      <point x="629" y="2118" type="curve" smooth="yes"/>
      <point x="716" y="2118"/>
      <point x="786" y="2047"/>
      <point x="786" y="1960" type="curve" smooth="yes"/>
      <point x="786" y="1698" type="line"/>
      <point x="1189" y="1697" type="line" smooth="yes"/>
      <point x="1276" y="1697"/>
      <point x="1346" y="1627"/>
      <point x="1346" y="1540" type="curve" smooth="yes"/>
      <point x="1346" y="1453"/>
      <point x="1276" y="1382"/>
      <point x="1189" y="1382" type="curve" smooth="yes"/>
      <point x="786" y="1382" type="line"/>
      <point x="786" y="280" type="line" smooth="yes"/>
      <point x="786" y="212"/>
      <point x="841" y="158"/>
      <point x="909" y="158" type="curve" smooth="yes"/>
      <point x="977" y="158"/>
      <point x="1032" y="212"/>
      <point x="1032" y="280" type="curve" smooth="yes"/>
      <point x="1032" y="335" type="line" smooth="yes"/>
      <point x="1032" y="422"/>
      <point x="1102" y="492"/>
      <point x="1189" y="492" type="curve" smooth="yes"/>
      <point x="1276" y="492"/>
      <point x="1346" y="422"/>
      <point x="1346" y="335" type="curve" smooth="yes"/>
      <point x="1346" y="280" type="line" smooth="yes"/>
      <point x="1346" y="38"/>
      <point x="1151" y="-158"/>
      <point x="909" y="-158" type="curve" smooth="yes"/>
      <point x="667" y="-158"/>
      <point x="472" y="38"/>
      <point x="472" y="280" type="curve" smooth="yes"/>
      <point x="472" y="1382" type="line"/>
      <point x="209" y="1383" type="line" smooth="yes"/>
      <point x="122" y="1383"/>
      <point x="52" y="1453"/>
    </contour>
  </outline>
</glyph>
<glyph name="u" format="2">
  <advance width="1888"/>
  <unicode hex="0075"/>
  <outline>
    <contour>
      <point x="156" y="448" type="curve" smooth="yes"/>
      <point x="156" y="1435" type="line" smooth="yes"/>
      <point x="156" y="1522"/>
      <point x="227" y="1592"/>
      <point x="314" y="1592" type="curve" smooth="yes"/>
      <point x="401" y="1592"/>
      <point x="472" y="1522"/>
      <point x="472" y="1435" type="curve" smooth="yes"/>
      <point x="472" y="448" type="line" smooth="yes"/>
      <point x="472" y="274"/>
      <point x="612" y="134"/>
      <point x="786" y="134" type="curve" smooth="yes"/>
      <point x="960" y="134"/>
      <point x="1100" y="273"/>
      <point x="1100" y="448" type="curve" smooth="yes"/>
      <point x="1101" y="1435" type="line" smooth="yes"/>
      <point x="1101" y="1522"/>
      <point x="1171" y="1592"/>
      <point x="1258" y="1592" type="curve" smooth="yes"/>
      <point x="1345" y="1592"/>
      <point x="1416" y="1522"/>
      <point x="1416" y="1435" type="curve" smooth="yes"/>
      <point x="1416" y="0" type="line" smooth="yes"/>
      <point x="1416" y="-87"/>
      <point x="1345" y="-158"/>
      <point x="1258" y="-158" type="curve" smooth="yes"/>
      <point x="1202" y="-158"/>
      <point x="1152" y="-128"/>
      <point x="1124" y="-83" type="curve"/>
      <point x="1026" y="-145"/>
      <point x="911" y="-182"/>
      <point x="786" y="-182" type="curve" smooth="yes"/>
      <point x="438" y="-182"/>
      <point x="156" y="100"/>
    </contour>
  </outline>
</glyph>
<glyph name="v" format="2">
  <advance width="2045"/>
  <unicode hex="0076"/>
  <outline>
    <contour>
      <point x="156" y="1435" type="curve" smooth="yes"/>
      <point x="156" y="1522"/>
      <point x="227" y="1593"/>
      <point x="314" y="1593" type="curve" smooth="yes"/>
      <point x="382" y="1593"/>
      <point x="440" y="1549"/>
      <point x="462" y="1489" type="curve" smooth="yes"/>
      <point x="864" y="385" type="line"/>
      <point x="1267" y="1489" type="line" smooth="yes"/>
      <point x="1289" y="1549"/>
      <point x="1347" y="1593"/>
      <point x="1415" y="1593" type="curve" smooth="yes"/>
      <point x="1502" y="1593"/>
      <point x="1573" y="1522"/>
      <point x="1573" y="1435" type="curve" smooth="yes"/>
      <point x="1573" y="1416"/>
      <point x="1569" y="1398"/>
      <point x="1563" y="1381" type="curve" smooth="yes"/>
      <point x="1040" y="-54" type="line" smooth="yes"/>
      <point x="1017" y="-116"/>
      <point x="958" y="-157"/>
      <point x="892" y="-157" type="curve" smooth="yes"/>
      <point x="837" y="-158" type="line" smooth="yes"/>
      <point x="771" y="-158"/>
      <point x="712" y="-116"/>
      <point x="689" y="-54" type="curve" smooth="yes"/>
      <point x="166" y="1381" type="line" smooth="yes"/>
      <point x="160" y="1398"/>
      <point x="156" y="1416"/>
    </contour>
  </outline>
</glyph>
<glyph name="w" format="2">
  <advance width="2546"/>
  <unicode hex="0077"/>
  <outline>
    <contour>
      <point x="156" y="1435" type="curve" smooth="yes"/>
      <point x="156" y="1522"/>
      <point x="227" y="1593"/>
      <point x="314" y="1593" type="curve" smooth="yes"/>
      <point x="387" y="1593"/>
      <point x="448" y="1543"/>
      <point x="466" y="1476" type="curve" smooth="yes"/>
      <point x="714" y="552" type="line"/>
      <point x="948" y="1426" type="line" smooth="yes"/>
      <point x="966" y="1495"/>
      <point x="1029" y="1542"/>
      <point x="1100" y="1542" type="curve" smooth="yes"/>
      <point x="1130" y="1542" type="line" smooth="yes"/>
      <point x="1201" y="1542"/>
      <point x="1264" y="1495"/>
      <point x="1282" y="1426" type="curve" smooth="yes"/>
      <point x="1516" y="552" type="line"/>
      <point x="1764" y="1476" type="line" smooth="yes"/>
      <point x="1782" y="1543"/>
      <point x="1843" y="1593"/>
      <point x="1916" y="1593" type="curve" smooth="yes"/>
      <point x="2003" y="1593"/>
      <point x="2074" y="1522"/>
      <point x="2074" y="1435" type="curve" smooth="yes"/>
      <point x="2074" y="1421"/>
      <point x="2071" y="1407"/>
      <point x="2068" y="1394" type="curve" smooth="yes"/>
      <point x="1683" y="-41" type="line" smooth="yes"/>
      <point x="1665" y="-110"/>
      <point x="1602" y="-158"/>
      <point x="1531" y="-158" type="curve" smooth="yes"/>
      <point x="1501" y="-157" type="line" smooth="yes"/>
      <point x="1430" y="-157"/>
      <point x="1367" y="-110"/>
      <point x="1349" y="-41" type="curve" smooth="yes"/>
      <point x="1115" y="832" type="line"/>
      <point x="881" y="-41" type="line" smooth="yes"/>
      <point x="863" y="-110"/>
      <point x="800" y="-158"/>
      <point x="729" y="-158" type="curve" smooth="yes"/>
      <point x="687" y="-158"/>
      <point x="578" y="-157"/>
      <point x="547" y="-41" type="curve" smooth="yes"/>
      <point x="162" y="1394" type="line" smooth="yes"/>
      <point x="158" y="1407"/>
      <point x="156" y="1421"/>
    </contour>
  </outline>
</glyph>
<glyph name="x" format="2">
  <advance width="1978"/>
  <unicode hex="0078"/>
  <outline>
    <contour>
      <point x="157" y="0" type="curve" smooth="yes"/>
      <point x="157" y="34"/>
      <point x="167" y="64"/>
      <point x="185" y="90" type="curve" smooth="yes"/>
      <point x="639" y="739" type="line"/>
      <point x="216" y="1345" type="line" smooth="yes"/>
      <point x="198" y="1371"/>
      <point x="188" y="1402"/>
      <point x="188" y="1435" type="curve" smooth="yes"/>
      <point x="188" y="1522"/>
      <point x="258" y="1592"/>
      <point x="345" y="1592" type="curve" smooth="yes"/>
      <point x="398" y="1592"/>
      <point x="446" y="1565"/>
      <point x="474" y="1525" type="curve" smooth="yes"/>
      <point x="831" y="1014" type="line"/>
      <point x="1189" y="1525" type="line" smooth="yes"/>
      <point x="1217" y="1566"/>
      <point x="1265" y="1593"/>
      <point x="1318" y="1593" type="curve" smooth="yes"/>
      <point x="1405" y="1593"/>
      <point x="1476" y="1522"/>
      <point x="1476" y="1435" type="curve" smooth="yes"/>
      <point x="1476" y="1402"/>
      <point x="1465" y="1371"/>
      <point x="1447" y="1345" type="curve" smooth="yes"/>
      <point x="1024" y="739" type="line"/>
      <point x="1477" y="90" type="line" smooth="yes"/>
      <point x="1495" y="64"/>
      <point x="1505" y="33"/>
      <point x="1505" y="0" type="curve" smooth="yes"/>
      <point x="1505" y="-87"/>
      <point x="1435" y="-157"/>
      <point x="1348" y="-157" type="curve" smooth="yes"/>
      <point x="1295" y="-157"/>
      <point x="1247" y="-130"/>
      <point x="1219" y="-90" type="curve" smooth="yes"/>
      <point x="831" y="465" type="line"/>
      <point x="443" y="-90" type="line" smooth="yes"/>
      <point x="415" y="-130"/>
      <point x="367" y="-157"/>
      <point x="314" y="-157" type="curve" smooth="yes"/>
      <point x="227" y="-157"/>
      <point x="157" y="-87"/>
    </contour>
  </outline>
</glyph>
<glyph name="y" format="2">
  <advance width="2045"/>
  <unicode hex="0079"/>
  <outline>
    <contour>
      <point x="52" y="-83" type="curve" smooth="yes"/>
      <point x="52" y="4"/>
      <point x="122" y="74"/>
      <point x="209" y="74" type="curve" smooth="yes"/>
      <point x="296" y="74"/>
      <point x="366" y="4"/>
      <point x="366" y="-83" type="curve" smooth="yes"/>
      <point x="366" y="-151"/>
      <point x="421" y="-206"/>
      <point x="489" y="-206" type="curve" smooth="yes"/>
      <point x="540" y="-206"/>
      <point x="618" y="-188"/>
      <point x="692" y="-62" type="curve" smooth="yes"/>
      <point x="690" y="-58"/>
      <point x="690" y="-58"/>
      <point x="166" y="1381" type="curve" smooth="yes"/>
      <point x="160" y="1398"/>
      <point x="156" y="1416"/>
      <point x="156" y="1435" type="curve" smooth="yes"/>
      <point x="156" y="1522"/>
      <point x="227" y="1593"/>
      <point x="314" y="1593" type="curve" smooth="yes"/>
      <point x="382" y="1593"/>
      <point x="440" y="1549"/>
      <point x="462" y="1489" type="curve" smooth="yes"/>
      <point x="864" y="385" type="line"/>
      <point x="1267" y="1489" type="line" smooth="yes"/>
      <point x="1289" y="1549"/>
      <point x="1347" y="1593"/>
      <point x="1415" y="1593" type="curve" smooth="yes"/>
      <point x="1502" y="1593"/>
      <point x="1573" y="1522"/>
      <point x="1573" y="1435" type="curve" smooth="yes"/>
      <point x="1573" y="1416"/>
      <point x="1569" y="1398"/>
      <point x="1563" y="1381" type="curve" smooth="yes"/>
      <point x="1041" y="-54" type="line" smooth="yes"/>
      <point x="979" y="-224"/>
      <point x="823" y="-520"/>
      <point x="489" y="-520" type="curve" smooth="yes"/>
      <point x="247" y="-520"/>
      <point x="52" y="-325"/>
    </contour>
  </outline>
</glyph>
<glyph name="z" format="2">
  <advance width="1978"/>
  <unicode hex="007A"/>
  <outline>
    <contour>
      <point x="156" y="-0" type="curve" smooth="yes"/>
      <point x="156" y="10"/>
      <point x="157" y="50"/>
      <point x="185" y="90" type="curve" smooth="yes"/>
      <point x="1016" y="1278" type="line"/>
      <point x="344" y="1278" type="line" smooth="yes"/>
      <point x="257" y="1278"/>
      <point x="186" y="1348"/>
      <point x="186" y="1435" type="curve" smooth="yes"/>
      <point x="186" y="1522"/>
      <point x="257" y="1592"/>
      <point x="344" y="1592" type="curve" smooth="yes"/>
      <point x="1318" y="1592" type="line" smooth="yes"/>
      <point x="1405" y="1592"/>
      <point x="1476" y="1521"/>
      <point x="1476" y="1435" type="curve" smooth="yes"/>
      <point x="1476" y="1425"/>
      <point x="1475" y="1385"/>
      <point x="1447" y="1345" type="curve" smooth="yes"/>
      <point x="616" y="158" type="line"/>
      <point x="1348" y="158" type="line" smooth="yes"/>
      <point x="1435" y="158"/>
      <point x="1506" y="87"/>
      <point x="1506" y="0" type="curve" smooth="yes"/>
      <point x="1506" y="-87"/>
      <point x="1435" y="-158"/>
      <point x="1348" y="-158" type="curve" smooth="yes"/>
      <point x="314" y="-158" type="line" smooth="yes"/>
      <point x="227" y="-158"/>
      <point x="156" y="-86"/>
    </contour>
  </outline>
</glyph>
<glyph name="braceleft" format="2">
  <advance width="1784"/>
  <unicode hex="007B"/>
  <outline>
    <contour>
      <point x="892" y="1505" type="line" smooth="yes"/>
      <point x="892" y="1459"/>
      <point x="881" y="1342"/>
      <point x="779" y="1225" type="curve"/>
      <point x="837" y="1159"/>
      <point x="892" y="1058"/>
      <point x="892" y="945" type="curve" smooth="yes"/>
      <point x="892" y="140" type="line" smooth="yes"/>
      <point x="892" y="-5"/>
      <point x="1009" y="-122"/>
      <point x="1154" y="-122" type="curve" smooth="yes"/>
      <point x="1241" y="-122"/>
      <point x="1312" y="-193"/>
      <point x="1312" y="-280" type="curve" smooth="yes"/>
      <point x="1312" y="-367"/>
      <point x="1241" y="-438"/>
      <point x="1154" y="-438" type="curve" smooth="yes"/>
      <point x="835" y="-438"/>
      <point x="576" y="-179"/>
      <point x="576" y="140" type="curve" smooth="yes"/>
      <point x="576" y="945" type="line" smooth="yes"/>
      <point x="576" y="982"/>
      <point x="519" y="1067"/>
      <point x="453" y="1067" type="curve"/>
      <point x="-1" y="-85164" type="line"/>
      <point x="-11029" y="-85085"/>
      <point x="-22029" y="-80823"/>
      <point x="-30404" y="-72387" type="curve" smooth="yes"/>
      <point x="-38779" y="-63952"/>
      <point x="-42962" y="-52922"/>
      <point x="-42962" y="-41895" type="curve" smooth="yes"/>
      <point x="-42962" y="-30762"/>
      <point x="-38698" y="-19633"/>
      <point x="-30181" y="-11177" type="curve" smooth="yes"/>
      <point x="-21744" y="-2801"/>
      <point x="-10714" y="1382"/>
      <point x="314" y="1382" type="curve" smooth="yes"/>
      <point x="454" y="1382" type="line" smooth="yes"/>
      <point x="517" y="1382"/>
      <point x="576" y="1468"/>
      <point x="576" y="1505" type="curve" smooth="yes"/>
      <point x="576" y="2310" type="line" smooth="yes"/>
      <point x="576" y="2629"/>
      <point x="835" y="2888"/>
      <point x="1154" y="2888" type="curve" smooth="yes"/>
      <point x="1241" y="2888"/>
      <point x="1312" y="2817"/>
      <point x="1312" y="2730" type="curve" smooth="yes"/>
      <point x="1312" y="2643"/>
      <point x="1241" y="2572"/>
      <point x="1154" y="2572" type="curve" smooth="yes"/>
      <point x="1009" y="2572"/>
      <point x="892" y="2455"/>
      <point x="892" y="2310" type="curve" smooth="yes"/>
    </contour>
  </outline>
</glyph>
<glyph name="bar" format="2">
  <advance width="944"/>
  <unicode hex="007C"/>
  <outline>
    <contour>
      <point x="156" y="-420" type="curve" smooth="yes"/>
      <point x="156" y="2800" type="line" smooth="yes"/>
      <point x="156" y="2887"/>
      <point x="227" y="2958"/>
      <point x="314" y="2958" type="curve" smooth="yes"/>
      <point x="401" y="2958"/>
      <point x="472" y="2887"/>
      <point x="472" y="2800" type="curve" smooth="yes"/>
      <point x="472" y="-420" type="line" smooth="yes"/>
      <point x="472" y="-507"/>
      <point x="401" y="-578"/>
      <point x="314" y="-578" type="curve" smooth="yes"/>
      <point x="227" y="-578"/>
      <point x="156" y="-507"/>
    </contour>
  </outline>
</glyph>
<glyph name="braceright" format="2">
  <advance width="1784"/>
  <unicode hex="007D"/>
  <outline>
    <contour>
      <point x="1014" y="1066" type="line" smooth="yes"/>
      <point x="951" y="1066"/>
      <point x="892" y="983"/>
      <point x="892" y="945" type="curve" smooth="yes"/>
      <point x="892" y="140" type="line" smooth="yes"/>
      <point x="892" y="-179"/>
      <point x="633" y="-438"/>
      <point x="314" y="-438" type="curve" smooth="yes"/>
      <point x="227" y="-438"/>
      <point x="156" y="-367"/>
      <point x="156" y="-280" type="curve" smooth="yes"/>
      <point x="156" y="-193"/>
      <point x="227" y="-122"/>
      <point x="314" y="-122" type="curve" smooth="yes"/>
      <point x="459" y="-122"/>
      <point x="576" y="-5"/>
      <point x="576" y="140" type="curve" smooth="yes"/>
      <point x="576" y="945" type="line" smooth="yes"/>
      <point x="576" y="1058"/>
      <point x="632" y="1159"/>
      <point x="689" y="1225" type="curve"/>
      <point x="654" y="1265"/>
      <point x="576" y="1370"/>
      <point x="576" y="1505" type="curve" smooth="yes"/>
      <point x="576" y="2310" type="line" smooth="yes"/>
      <point x="576" y="2455"/>
      <point x="459" y="2572"/>
      <point x="314" y="2572" type="curve" smooth="yes"/>
      <point x="227" y="2572"/>
      <point x="156" y="2643"/>
      <point x="156" y="2730" type="curve" smooth="yes"/>
      <point x="156" y="2817"/>
      <point x="227" y="2888"/>
      <point x="314" y="2888" type="curve" smooth="yes"/>
      <point x="633" y="2888"/>
      <point x="892" y="2629"/>
      <point x="892" y="2310" type="curve" smooth="yes"/>
      <point x="892" y="1505" type="line" smooth="yes"/>
      <point x="892" y="1468"/>
      <point x="951" y="1382"/>
      <point x="1014" y="1382" type="curve" smooth="yes"/>
      <point x="1154" y="1382" type="line" smooth="yes"/>
      <point x="1182" y="1382"/>
      <point x="1199" y="1353"/>
      <point x="1199" y="1301" type="curve" smooth="yes"/>
      <point x="1199" y="1280"/>
      <point x="1196" y="1212"/>
      <point x="1154" y="1124" type="curve"/>
      <point x="1154" y="1068" type="line"/>
      <point x="1122" y="1068" type="line"/>
      <point x="1091" y="1021"/>
      <point x="1056" y="991"/>
      <point x="1028" y="991" type="curve"/>
      <point x="1015" y="1067" type="line" smooth="yes"/>
    </contour>
  </outline>
</glyph>
<glyph name="cent" format="2">
  <advance width="1952"/>
  <unicode hex="00A2"/>
  <outline>
    <contour>
      <point x="1016" y="1673" type="curve"/>
      <point x="1370" y="1566"/>
      <point x="1440" y="1173"/>
      <point x="1440" y="1093" type="curve" smooth="yes"/>
      <point x="1440" y="1006"/>
      <point x="1370" y="935"/>
      <point x="1283" y="935" type="curve" smooth="yes"/>
      <point x="1203" y="935"/>
      <point x="1136" y="996"/>
      <point x="1126" y="1074" type="curve" smooth="yes"/>
      <point x="1119" y="1128"/>
      <point x="1096" y="1247"/>
      <point x="1012" y="1322" type="curve"/>
      <point x="1001" y="175" type="line"/>
      <point x="1036" y="196"/>
      <point x="1150" y="278"/>
      <point x="1165" y="461" type="curve" smooth="yes"/>
      <point x="1172" y="542"/>
      <point x="1240" y="605"/>
      <point x="1322" y="605" type="curve" smooth="yes"/>
      <point x="1409" y="605"/>
      <point x="1480" y="535"/>
      <point x="1480" y="448" type="curve" smooth="yes"/>
      <point x="1480" y="440"/>
      <point x="1452" y="-52"/>
      <point x="997" y="-164" type="curve"/>
      <point x="996" y="-236" type="line" smooth="yes"/>
      <point x="995" y="-322"/>
      <point x="925" y="-392"/>
      <point x="839" y="-392" type="curve" smooth="yes"/>
      <point x="752" y="-392"/>
      <point x="681" y="-321"/>
      <point x="681" y="-234" type="curve" smooth="yes"/>
      <point x="681" y="-233"/>
      <point x="681" y="-233"/>
      <point x="682" y="-154" type="curve"/>
      <point x="373" y="-52"/>
      <point x="156" y="321"/>
      <point x="156" y="758" type="curve" smooth="yes"/>
      <point x="156" y="880"/>
      <point x="179" y="1298"/>
      <point x="477" y="1553" type="curve" smooth="yes"/>
      <point x="542" y="1609"/>
      <point x="618" y="1652"/>
      <point x="701" y="1676" type="curve"/>
      <point x="702" y="1757" type="line" smooth="yes"/>
      <point x="703" y="1843"/>
      <point x="773" y="1913"/>
      <point x="859" y="1913" type="curve" smooth="yes"/>
      <point x="946" y="1913"/>
      <point x="1017" y="1842"/>
      <point x="1017" y="1755" type="curve" smooth="yes"/>
      <point x="1017" y="1754"/>
      <point x="1017" y="1754"/>
    </contour>
    <contour>
      <point x="472" y="758" type="curve" smooth="yes"/>
      <point x="472" y="513"/>
      <point x="563" y="302"/>
      <point x="686" y="199" type="curve"/>
      <point x="697" y="1326" type="line"/>
      <point x="567" y="1226"/>
      <point x="472" y="1010"/>
    </contour>
  </outline>
</glyph>
<glyph name="sterling" format="2">
  <advance width="2625"/>
  <unicode hex="00A3"/>
  <outline>
    <contour>
      <point x="156" y="1380" type="curve" smooth="yes"/>
      <point x="156" y="1467"/>
      <point x="226" y="1537"/>
      <point x="313" y="1537" type="curve" smooth="yes"/>
      <point x="576" y="1538" type="line"/>
      <point x="576" y="1890" type="line" smooth="yes"/>
      <point x="576" y="2325"/>
      <point x="930" y="2678"/>
      <point x="1365" y="2678" type="curve" smooth="yes"/>
      <point x="1800" y="2678"/>
      <point x="2152" y="2325"/>
      <point x="2152" y="1890" type="curve" smooth="yes"/>
      <point x="2152" y="1835" type="line" smooth="yes"/>
      <point x="2152" y="1748"/>
      <point x="2082" y="1678"/>
      <point x="1995" y="1678" type="curve" smooth="yes"/>
      <point x="1908" y="1678"/>
      <point x="1838" y="1748"/>
      <point x="1838" y="1835" type="curve" smooth="yes"/>
      <point x="1838" y="1890" type="line" smooth="yes"/>
      <point x="1838" y="2151"/>
      <point x="1626" y="2362"/>
      <point x="1365" y="2362" type="curve" smooth="yes"/>
      <point x="1104" y="2362"/>
      <point x="892" y="2151"/>
      <point x="892" y="1890" type="curve" smooth="yes"/>
      <point x="892" y="1538" type="line"/>
      <point x="1364" y="1537" type="line" smooth="yes"/>
      <point x="1451" y="1537"/>
      <point x="1522" y="1467"/>
      <point x="1522" y="1380" type="curve" smooth="yes"/>
      <point x="1522" y="1293"/>
      <point x="1451" y="1222"/>
      <point x="1364" y="1222" type="curve"/>
      <point x="1364" y="1222"/>
      <point x="1136" y="1222"/>
      <point x="892" y="1222" type="curve"/>
      <point x="892" y="420" type="line" smooth="yes"/>
      <point x="892" y="325"/>
      <point x="868" y="236"/>
      <point x="828" y="157" type="curve"/>
      <point x="1995" y="157" type="line" smooth="yes"/>
      <point x="2082" y="157"/>
      <point x="2152" y="87"/>
      <point x="2152" y="0" type="curve" smooth="yes"/>
      <point x="2152" y="-87"/>
      <point x="2082" y="-158"/>
      <point x="1995" y="-158" type="curve" smooth="yes"/>
      <point x="314" y="-158" type="line" smooth="yes"/>
      <point x="227" y="-158"/>
      <point x="156" y="-87"/>
      <point x="156" y="0" type="curve"/>
      <point x="156" y="1" type="line"/>
      <point x="156" y="88"/>
      <point x="228" y="158"/>
      <point x="314" y="158" type="curve" smooth="yes"/>
      <point x="460" y="158"/>
      <point x="576" y="275"/>
      <point x="576" y="420" type="curve" smooth="yes"/>
      <point x="576" y="687"/>
      <point x="576" y="955"/>
      <point x="576" y="1222" type="curve"/>
      <point x="425" y="1222"/>
      <point x="314" y="1222"/>
      <point x="314" y="1222" type="curve" smooth="yes"/>
      <point x="227" y="1222"/>
      <point x="156" y="1293"/>
    </contour>
  </outline>
</glyph>
<glyph name="yen" format="2">
  <advance width="2598"/>
  <unicode hex="00A5"/>
  <outline>
    <contour>
      <point x="156" y="2520" type="curve" smooth="yes"/>
      <point x="156" y="2607"/>
      <point x="227" y="2678"/>
      <point x="314" y="2678" type="curve" smooth="yes"/>
      <point x="367" y="2678"/>
      <point x="415" y="2651"/>
      <point x="443" y="2610" type="curve" smooth="yes"/>
      <point x="1141" y="1613" type="line"/>
      <point x="1839" y="2610" type="line" smooth="yes"/>
      <point x="1867" y="2651"/>
      <point x="1915" y="2678"/>
      <point x="1968" y="2678" type="curve" smooth="yes"/>
      <point x="2055" y="2678"/>
      <point x="2126" y="2607"/>
      <point x="2126" y="2520" type="curve" smooth="yes"/>
      <point x="2126" y="2486"/>
      <point x="2115" y="2456"/>
      <point x="2097" y="2430" type="curve" smooth="yes"/>
      <point x="1370" y="1390" type="line"/>
      <point x="1968" y="1390" type="line" smooth="yes"/>
      <point x="2055" y="1390"/>
      <point x="2126" y="1320"/>
      <point x="2126" y="1233" type="curve" smooth="yes"/>
      <point x="2126" y="1146"/>
      <point x="2055" y="1076"/>
      <point x="1968" y="1076" type="curve" smooth="yes"/>
      <point x="1299" y="1076" type="line"/>
      <point x="1299" y="1006"/>
      <point x="1299" y="936"/>
      <point x="1299" y="866" type="curve"/>
      <point x="1968" y="866" type="line" smooth="yes"/>
      <point x="2055" y="866"/>
      <point x="2126" y="795"/>
      <point x="2126" y="708" type="curve" smooth="yes"/>
      <point x="2126" y="621"/>
      <point x="2055" y="550"/>
      <point x="1968" y="550" type="curve" smooth="yes"/>
      <point x="1299" y="550" type="line"/>
      <point x="1299" y="0" type="line" smooth="yes"/>
      <point x="1299" y="-87"/>
      <point x="1229" y="-158"/>
      <point x="1142" y="-158" type="curve"/>
      <point x="1141" y="-157" type="line"/>
      <point x="1054" y="-157"/>
      <point x="984" y="-87"/>
      <point x="984" y="0" type="curve" smooth="yes"/>
      <point x="984" y="550" type="line"/>
      <point x="314" y="550" type="line" smooth="yes"/>
      <point x="227" y="550"/>
      <point x="156" y="621"/>
      <point x="156" y="708" type="curve" smooth="yes"/>
      <point x="156" y="795"/>
      <point x="227" y="866"/>
      <point x="314" y="866" type="curve" smooth="yes"/>
      <point x="984" y="866" type="line"/>
      <point x="984" y="1076" type="line"/>
      <point x="314" y="1076" type="line" smooth="yes"/>
      <point x="227" y="1076"/>
      <point x="156" y="1146"/>
      <point x="156" y="1233" type="curve" smooth="yes"/>
      <point x="156" y="1320"/>
      <point x="227" y="1390"/>
      <point x="314" y="1390" type="curve" smooth="yes"/>
      <point x="913" y="1390" type="line"/>
      <point x="185" y="2430" type="line" smooth="yes"/>
      <point x="167" y="2456"/>
      <point x="156" y="2486"/>
    </contour>
  </outline>
</glyph>
<glyph name="brokenbar" format="2">
  <advance width="944"/>
  <unicode hex="00A6"/>
  <outline>
    <contour>
      <point x="156" y="-420" type="curve" smooth="yes"/>
      <point x="156" y="875" type="line" smooth="yes"/>
      <point x="156" y="962"/>
      <point x="227" y="1032"/>
      <point x="314" y="1032" type="curve" smooth="yes"/>
      <point x="401" y="1032"/>
      <point x="472" y="962"/>
      <point x="472" y="875" type="curve" smooth="yes"/>
      <point x="472" y="-420" type="line" smooth="yes"/>
      <point x="472" y="-507"/>
      <point x="401" y="-578"/>
      <point x="314" y="-578" type="curve" smooth="yes"/>
      <point x="227" y="-578"/>
      <point x="156" y="-507"/>
    </contour>
    <contour>
      <point x="156" y="1505" type="curve" smooth="yes"/>
      <point x="156" y="2800" type="line" smooth="yes"/>
      <point x="156" y="2887"/>
      <point x="227" y="2958"/>
      <point x="314" y="2958" type="curve" smooth="yes"/>
      <point x="401" y="2958"/>
      <point x="472" y="2887"/>
      <point x="472" y="2800" type="curve" smooth="yes"/>
      <point x="472" y="1505" type="line" smooth="yes"/>
      <point x="472" y="1418"/>
      <point x="401" y="1348"/>
      <point x="314" y="1348" type="curve" smooth="yes"/>
      <point x="227" y="1348"/>
      <point x="156" y="1418"/>
    </contour>
  </outline>
</glyph>
<glyph name="uni00AD" format="2">
  <advance width="1544"/>
  <unicode hex="00AD"/>
  <outline>
    <contour>
      <point x="156" y="1339" type="curve" smooth="yes"/>
      <point x="156" y="1426"/>
      <point x="227" y="1496"/>
      <point x="314" y="1496" type="curve" smooth="yes"/>
      <point x="914" y="1496" type="line" smooth="yes"/>
      <point x="1001" y="1496"/>
      <point x="1072" y="1426"/>
      <point x="1072" y="1339" type="curve" smooth="yes"/>
      <point x="1072" y="1252"/>
      <point x="1001" y="1182"/>
      <point x="914" y="1182" type="curve" smooth="yes"/>
      <point x="314" y="1182" type="line" smooth="yes"/>
      <point x="227" y="1182"/>
      <point x="156" y="1252"/>
    </contour>
  </outline>
</glyph>
<glyph name="degree" format="2">
  <advance width="1888"/>
  <unicode hex="00B0"/>
  <outline>
    <contour>
      <point x="156" y="2048" type="curve" smooth="yes"/>
      <point x="156" y="2396"/>
      <point x="438" y="2678"/>
      <point x="786" y="2678" type="curve" smooth="yes"/>
      <point x="1134" y="2678"/>
      <point x="1416" y="2396"/>
      <point x="1416" y="2048" type="curve" smooth="yes"/>
      <point x="1416" y="1700"/>
      <point x="1134" y="1418"/>
      <point x="786" y="1418" type="curve" smooth="yes"/>
      <point x="438" y="1418"/>
      <point x="156" y="1700"/>
    </contour>
    <contour>
      <point x="472" y="2048" type="curve" smooth="yes"/>
      <point x="472" y="1874"/>
      <point x="612" y="1734"/>
      <point x="786" y="1734" type="curve" smooth="yes"/>
      <point x="960" y="1734"/>
      <point x="1100" y="1874"/>
      <point x="1100" y="2048" type="curve" smooth="yes"/>
      <point x="1100" y="2222"/>
      <point x="960" y="2362"/>
      <point x="786" y="2362" type="curve" smooth="yes"/>
      <point x="612" y="2362"/>
      <point x="472" y="2222"/>
    </contour>
  </outline>
</glyph>
<glyph name="mu" format="2">
  <advance width="2099"/>
  <unicode hex="00B5"/>
  <outline>
    <contour>
      <point x="1732" y="-12" type="curve" smooth="yes"/>
      <point x="1732" y="-174"/>
      <point x="1550" y="-182"/>
      <point x="1429" y="-182" type="curve" smooth="yes"/>
      <point x="1331" y="-182"/>
      <point x="1239" y="-134"/>
      <point x="1179" y="-44" type="curve"/>
      <point x="1072" y="-130"/>
      <point x="935" y="-182"/>
      <point x="786" y="-182" type="curve" smooth="yes"/>
      <point x="671" y="-182"/>
      <point x="564" y="-151"/>
      <point x="472" y="-97" type="curve"/>
      <point x="472" y="-1004" type="line" smooth="yes"/>
      <point x="472" y="-1091"/>
      <point x="401" y="-1162"/>
      <point x="314" y="-1162" type="curve" smooth="yes"/>
      <point x="227" y="-1162"/>
      <point x="156" y="-1091"/>
      <point x="156" y="-1004" type="curve" smooth="yes"/>
      <point x="156" y="1435" type="line" smooth="yes"/>
      <point x="156" y="1522"/>
      <point x="227" y="1592"/>
      <point x="314" y="1592" type="curve" smooth="yes"/>
      <point x="401" y="1592"/>
      <point x="471" y="1522"/>
      <point x="471" y="1435" type="curve" smooth="yes"/>
      <point x="472" y="448" type="line" smooth="yes"/>
      <point x="472" y="273"/>
      <point x="612" y="134"/>
      <point x="786" y="134" type="curve" smooth="yes"/>
      <point x="960" y="134"/>
      <point x="1100" y="273"/>
      <point x="1100" y="448" type="curve" smooth="yes"/>
      <point x="1101" y="1435" type="line" smooth="yes"/>
      <point x="1101" y="1522"/>
      <point x="1171" y="1592"/>
      <point x="1258" y="1592" type="curve" smooth="yes"/>
      <point x="1345" y="1592"/>
      <point x="1415" y="1522"/>
      <point x="1415" y="1435" type="curve" smooth="yes"/>
      <point x="1416" y="268" type="line" smooth="yes"/>
      <point x="1416" y="238"/>
      <point x="1419" y="170"/>
      <point x="1439" y="134" type="curve"/>
      <point x="1490" y="135"/>
      <point x="1550" y="144"/>
      <point x="1550" y="144" type="curve" smooth="yes"/>
      <point x="1556" y="145"/>
      <point x="1563" y="146"/>
      <point x="1574" y="146" type="curve" smooth="yes"/>
      <point x="1661" y="146"/>
      <point x="1732" y="75"/>
    </contour>
  </outline>
</glyph>
<glyph name="ordmasculine" format="2">
  <advance width="1906"/>
  <unicode hex="00BA"/>
  <outline>
    <contour>
      <point x="156" y="504" type="curve" smooth="yes"/>
      <point x="156" y="591"/>
      <point x="227" y="662"/>
      <point x="314" y="662" type="curve" smooth="yes"/>
      <point x="1276" y="662" type="line" smooth="yes"/>
      <point x="1363" y="662"/>
      <point x="1434" y="591"/>
      <point x="1434" y="504" type="curve" smooth="yes"/>
      <point x="1434" y="417"/>
      <point x="1363" y="346"/>
      <point x="1276" y="346" type="curve" smooth="yes"/>
      <point x="314" y="346" type="line" smooth="yes"/>
      <point x="227" y="346"/>
      <point x="156" y="417"/>
    </contour>
    <contour>
      <point x="156" y="1851" type="curve" smooth="yes"/>
      <point x="156" y="2311"/>
      <point x="441" y="2678"/>
      <point x="795" y="2678" type="curve" smooth="yes"/>
      <point x="1149" y="2678"/>
      <point x="1434" y="2311"/>
      <point x="1434" y="1851" type="curve" smooth="yes"/>
      <point x="1434" y="1391"/>
      <point x="1149" y="1024"/>
      <point x="795" y="1024" type="curve" smooth="yes"/>
      <point x="441" y="1024"/>
      <point x="156" y="1391"/>
    </contour>
    <contour>
      <point x="472" y="1851" type="curve" smooth="yes"/>
      <point x="472" y="1568"/>
      <point x="626" y="1340"/>
      <point x="795" y="1340" type="curve" smooth="yes"/>
      <point x="964" y="1340"/>
      <point x="1118" y="1568"/>
      <point x="1118" y="1851" type="curve" smooth="yes"/>
      <point x="1118" y="2134"/>
      <point x="964" y="2362"/>
      <point x="795" y="2362" type="curve" smooth="yes"/>
      <point x="626" y="2362"/>
      <point x="472" y="2134"/>
    </contour>
  </outline>
</glyph>
<glyph name="multiply" format="2">
  <advance width="2144"/>
  <unicode hex="00D7"/>
  <outline>
    <contour>
      <point x="157" y="1938" type="curve" smooth="yes"/>
      <point x="157" y="2025"/>
      <point x="227" y="2095"/>
      <point x="314" y="2095" type="curve" smooth="yes"/>
      <point x="357" y="2095"/>
      <point x="396" y="2078"/>
      <point x="425" y="2049" type="curve" smooth="yes"/>
      <point x="914" y="1561" type="line"/>
      <point x="1403" y="2049" type="line" smooth="yes"/>
      <point x="1432" y="2077"/>
      <point x="1471" y="2095"/>
      <point x="1514" y="2095" type="curve" smooth="yes"/>
      <point x="1601" y="2095"/>
      <point x="1671" y="2025"/>
      <point x="1671" y="1938" type="curve" smooth="yes"/>
      <point x="1671" y="1895"/>
      <point x="1653" y="1855"/>
      <point x="1625" y="1827" type="curve" smooth="yes"/>
      <point x="1138" y="1338" type="line"/>
      <point x="1625" y="849" type="line" smooth="yes"/>
      <point x="1653" y="820"/>
      <point x="1671" y="781"/>
      <point x="1671" y="738" type="curve" smooth="yes"/>
      <point x="1671" y="651"/>
      <point x="1601" y="581"/>
      <point x="1514" y="581" type="curve" smooth="yes"/>
      <point x="1471" y="581"/>
      <point x="1432" y="598"/>
      <point x="1403" y="627" type="curve" smooth="yes"/>
      <point x="914" y="1115" type="line"/>
      <point x="425" y="627" type="line" smooth="yes"/>
      <point x="396" y="598"/>
      <point x="357" y="581"/>
      <point x="314" y="581" type="curve" smooth="yes"/>
      <point x="227" y="581"/>
      <point x="157" y="651"/>
      <point x="157" y="738" type="curve" smooth="yes"/>
      <point x="157" y="781"/>
      <point x="175" y="820"/>
      <point x="203" y="849" type="curve" smooth="yes"/>
      <point x="691" y="1338" type="line"/>
      <point x="203" y="1827" type="line" smooth="yes"/>
      <point x="175" y="1856"/>
      <point x="157" y="1895"/>
    </contour>
  </outline>
</glyph>
<glyph name="divide" format="2">
  <advance width="2144"/>
  <unicode hex="00F7"/>
  <outline>
    <contour>
      <point x="156" y="1339" type="curve" smooth="yes"/>
      <point x="156" y="1426"/>
      <point x="227" y="1496"/>
      <point x="314" y="1496" type="curve" smooth="yes"/>
      <point x="1514" y="1496" type="line" smooth="yes"/>
      <point x="1601" y="1496"/>
      <point x="1672" y="1426"/>
      <point x="1672" y="1339" type="curve" smooth="yes"/>
      <point x="1672" y="1252"/>
      <point x="1601" y="1182"/>
      <point x="1514" y="1182" type="curve" smooth="yes"/>
      <point x="314" y="1182" type="line" smooth="yes"/>
      <point x="227" y="1182"/>
      <point x="156" y="1252"/>
    </contour>
    <contour>
      <point x="652" y="843" type="curve" smooth="yes"/>
      <point x="652" y="988"/>
      <point x="769" y="1106"/>
      <point x="914" y="1106" type="curve" smooth="yes"/>
      <point x="1059" y="1106"/>
      <point x="1176" y="988"/>
      <point x="1176" y="843" type="curve" smooth="yes"/>
      <point x="1176" y="698"/>
      <point x="1059" y="580"/>
      <point x="914" y="580" type="curve" smooth="yes"/>
      <point x="769" y="580"/>
      <point x="652" y="698"/>
    </contour>
    <contour>
      <point x="652" y="1833" type="curve" smooth="yes"/>
      <point x="652" y="1978"/>
      <point x="769" y="2096"/>
      <point x="914" y="2096" type="curve" smooth="yes"/>
      <point x="1059" y="2096"/>
      <point x="1176" y="1978"/>
      <point x="1176" y="1833" type="curve" smooth="yes"/>
      <point x="1176" y="1688"/>
      <point x="1059" y="1570"/>
      <point x="914" y="1570" type="curve" smooth="yes"/>
      <point x="769" y="1570"/>
      <point x="652" y="1688"/>
    </contour>
    <contour>
      <point x="862" y="843" type="line"/>
      <point x="914" y="790" type="line"/>
      <point x="966" y="843" type="line"/>
      <point x="914" y="896" type="line"/>
    </contour>
    <contour>
      <point x="862" y="1833" type="line"/>
      <point x="914" y="1780" type="line"/>
      <point x="966" y="1833" type="line"/>
      <point x="914" y="1886" type="line"/>
    </contour>
  </outline>
</glyph>
<glyph name="endash" format="2">
  <advance width="2574"/>
  <unicode hex="2013"/>
  <outline>
    <contour>
      <point x="156" y="1338" type="curve" smooth="yes"/>
      <point x="156" y="1425"/>
      <point x="227" y="1496"/>
      <point x="314" y="1496" type="curve" smooth="yes"/>
      <point x="1944" y="1496" type="line" smooth="yes"/>
      <point x="2031" y="1496"/>
      <point x="2102" y="1425"/>
      <point x="2102" y="1338" type="curve" smooth="yes"/>
      <point x="2102" y="1251"/>
      <point x="2031" y="1180"/>
      <point x="1944" y="1180" type="curve" smooth="yes"/>
      <point x="314" y="1180" type="line" smooth="yes"/>
      <point x="227" y="1180"/>
      <point x="156" y="1251"/>
    </contour>
  </outline>
</glyph>
<glyph name="emdash" format="2">
  <advance width="2905"/>
  <unicode hex="2014"/>
  <outline>
    <contour>
      <point x="156" y="1338" type="curve" smooth="yes"/>
      <point x="156" y="1425"/>
      <point x="227" y="1496"/>
      <point x="314" y="1496" type="curve" smooth="yes"/>
      <point x="2275" y="1496" type="line" smooth="yes"/>
      <point x="2362" y="1496"/>
      <point x="2432" y="1425"/>
      <point x="2432" y="1338" type="curve" smooth="yes"/>
      <point x="2432" y="1251"/>
      <point x="2362" y="1180"/>
      <point x="2275" y="1180" type="curve" smooth="yes"/>
      <point x="314" y="1180" type="line" smooth="yes"/>
      <point x="227" y="1180"/>
      <point x="156" y="1251"/>
    </contour>
  </outline>
</glyph>
<glyph name="quoteleft" format="2">
  <advance width="1154"/>
  <unicode hex="2018"/>
  <outline>
    <contour>
      <point x="156" y="2100" type="curve" smooth="yes"/>
      <point x="156" y="2345"/>
      <point x="397" y="2678"/>
      <point x="550" y="2678" type="curve" smooth="yes"/>
      <point x="637" y="2678"/>
      <point x="708" y="2607"/>
      <point x="708" y="2520" type="curve" smooth="yes"/>
      <point x="708" y="2471"/>
      <point x="685" y="2427"/>
      <point x="650" y="2398" type="curve" smooth="yes"/>
      <point x="648" y="2396"/>
      <point x="610" y="2365"/>
      <point x="569" y="2315" type="curve"/>
      <point x="637" y="2268"/>
      <point x="682" y="2189"/>
      <point x="682" y="2100" type="curve" smooth="yes"/>
      <point x="682" y="1955"/>
      <point x="564" y="1838"/>
      <point x="419" y="1838" type="curve" smooth="yes"/>
      <point x="274" y="1838"/>
      <point x="156" y="1955"/>
    </contour>
  </outline>
</glyph>
<glyph name="quoteright" format="2">
  <advance width="1154"/>
  <unicode hex="2019"/>
  <outline>
    <contour>
      <point x="130" y="1995" type="curve" smooth="yes"/>
      <point x="130" y="2062"/>
      <point x="170" y="2102"/>
      <point x="188" y="2117" type="curve" smooth="yes"/>
      <point x="190" y="2119"/>
      <point x="228" y="2150"/>
      <point x="269" y="2200" type="curve"/>
      <point x="201" y="2247"/>
      <point x="156" y="2326"/>
      <point x="156" y="2415" type="curve" smooth="yes"/>
      <point x="156" y="2560"/>
      <point x="274" y="2678"/>
      <point x="419" y="2678" type="curve" smooth="yes"/>
      <point x="564" y="2678"/>
      <point x="682" y="2560"/>
      <point x="682" y="2415" type="curve" smooth="yes"/>
      <point x="682" y="2169"/>
      <point x="439" y="1837"/>
      <point x="287" y="1837" type="curve" smooth="yes"/>
      <point x="200" y="1837"/>
      <point x="130" y="1908"/>
    </contour>
  </outline>
</glyph>
<glyph name="quotesinglbase" format="2">
  <advance width="1154"/>
  <unicode hex="201A"/>
  <outline>
    <contour>
      <point x="130" y="-210" type="curve" smooth="yes"/>
      <point x="130" y="-143"/>
      <point x="170" y="-103"/>
      <point x="188" y="-88" type="curve" smooth="yes"/>
      <point x="190" y="-86"/>
      <point x="228" y="-55"/>
      <point x="269" y="-5" type="curve"/>
      <point x="201" y="42"/>
      <point x="156" y="121"/>
      <point x="156" y="210" type="curve" smooth="yes"/>
      <point x="156" y="355"/>
      <point x="274" y="472"/>
      <point x="419" y="472" type="curve" smooth="yes"/>
      <point x="564" y="472"/>
      <point x="682" y="355"/>
      <point x="682" y="210" type="curve" smooth="yes"/>
      <point x="682" y="-36"/>
      <point x="439" y="-368"/>
      <point x="287" y="-368" type="curve" smooth="yes"/>
      <point x="200" y="-368"/>
      <point x="130" y="-297"/>
    </contour>
  </outline>
</glyph>
<glyph name="quotedblleft" format="2">
  <advance width="1994"/>
  <unicode hex="201C"/>
  <outline>
    <contour>
      <point x="156" y="2100" type="curve" smooth="yes"/>
      <point x="156" y="2345"/>
      <point x="397" y="2678"/>
      <point x="550" y="2678" type="curve" smooth="yes"/>
      <point x="637" y="2678"/>
      <point x="708" y="2607"/>
      <point x="708" y="2520" type="curve" smooth="yes"/>
      <point x="708" y="2471"/>
      <point x="685" y="2427"/>
      <point x="650" y="2398" type="curve" smooth="yes"/>
      <point x="648" y="2396"/>
      <point x="610" y="2365"/>
      <point x="569" y="2315" type="curve"/>
      <point x="637" y="2268"/>
      <point x="682" y="2189"/>
      <point x="682" y="2100" type="curve" smooth="yes"/>
      <point x="682" y="1955"/>
      <point x="564" y="1838"/>
      <point x="419" y="1838" type="curve" smooth="yes"/>
      <point x="274" y="1838"/>
      <point x="156" y="1955"/>
    </contour>
    <contour>
      <point x="996" y="2100" type="curve" smooth="yes"/>
      <point x="996" y="2345"/>
      <point x="1237" y="2678"/>
      <point x="1390" y="2678" type="curve" smooth="yes"/>
      <point x="1477" y="2678"/>
      <point x="1548" y="2607"/>
      <point x="1548" y="2520" type="curve" smooth="yes"/>
      <point x="1548" y="2471"/>
      <point x="1525" y="2427"/>
      <point x="1490" y="2398" type="curve" smooth="yes"/>
      <point x="1488" y="2396"/>
      <point x="1450" y="2365"/>
      <point x="1409" y="2315" type="curve"/>
      <point x="1477" y="2268"/>
      <point x="1522" y="2189"/>
      <point x="1522" y="2100" type="curve" smooth="yes"/>
      <point x="1522" y="1955"/>
      <point x="1404" y="1838"/>
      <point x="1259" y="1838" type="curve" smooth="yes"/>
      <point x="1114" y="1838"/>
      <point x="996" y="1955"/>
    </contour>
  </outline>
</glyph>
<glyph name="quotedblright" format="2">
  <advance width="1994"/>
  <unicode hex="201D"/>
  <outline>
    <contour>
      <point x="129" y="1995" type="curve" smooth="yes"/>
      <point x="129" y="2062"/>
      <point x="169" y="2102"/>
      <point x="187" y="2117" type="curve" smooth="yes"/>
      <point x="189" y="2119"/>
      <point x="227" y="2150"/>
      <point x="268" y="2200" type="curve"/>
      <point x="200" y="2247"/>
      <point x="156" y="2326"/>
      <point x="156" y="2415" type="curve" smooth="yes"/>
      <point x="156" y="2560"/>
      <point x="273" y="2678"/>
      <point x="418" y="2678" type="curve" smooth="yes"/>
      <point x="563" y="2678"/>
      <point x="680" y="2560"/>
      <point x="680" y="2415" type="curve" smooth="yes"/>
      <point x="680" y="2169"/>
      <point x="438" y="1837"/>
      <point x="286" y="1837" type="curve" smooth="yes"/>
      <point x="199" y="1837"/>
      <point x="129" y="1908"/>
    </contour>
    <contour>
      <point x="969" y="1995" type="curve" smooth="yes"/>
      <point x="969" y="2062"/>
      <point x="1009" y="2102"/>
      <point x="1027" y="2117" type="curve" smooth="yes"/>
      <point x="1029" y="2119"/>
      <point x="1067" y="2150"/>
      <point x="1108" y="2200" type="curve"/>
      <point x="1040" y="2247"/>
      <point x="996" y="2326"/>
      <point x="996" y="2415" type="curve" smooth="yes"/>
      <point x="996" y="2560"/>
      <point x="1113" y="2678"/>
      <point x="1258" y="2678" type="curve" smooth="yes"/>
      <point x="1403" y="2678"/>
      <point x="1520" y="2560"/>
      <point x="1520" y="2415" type="curve" smooth="yes"/>
      <point x="1520" y="2169"/>
      <point x="1278" y="1837"/>
      <point x="1126" y="1837" type="curve" smooth="yes"/>
      <point x="1039" y="1837"/>
      <point x="969" y="1908"/>
    </contour>
  </outline>
</glyph>
<glyph name="quotedblbase" format="2">
  <advance width="1994"/>
  <unicode hex="201E"/>
  <outline>
    <contour>
      <point x="130" y="-315" type="curve" smooth="yes"/>
      <point x="130" y="-248"/>
      <point x="170" y="-208"/>
      <point x="188" y="-193" type="curve" smooth="yes"/>
      <point x="190" y="-191"/>
      <point x="228" y="-160"/>
      <point x="269" y="-110" type="curve"/>
      <point x="201" y="-63"/>
      <point x="156" y="16"/>
      <point x="156" y="105" type="curve" smooth="yes"/>
      <point x="156" y="250"/>
      <point x="274" y="368"/>
      <point x="419" y="368" type="curve" smooth="yes"/>
      <point x="564" y="368"/>
      <point x="682" y="250"/>
      <point x="682" y="105" type="curve" smooth="yes"/>
      <point x="682" y="-141"/>
      <point x="439" y="-473"/>
      <point x="287" y="-473" type="curve" smooth="yes"/>
      <point x="200" y="-473"/>
      <point x="130" y="-402"/>
    </contour>
    <contour>
      <point x="970" y="-315" type="curve" smooth="yes"/>
      <point x="970" y="-248"/>
      <point x="1010" y="-208"/>
      <point x="1028" y="-193" type="curve" smooth="yes"/>
      <point x="1030" y="-191"/>
      <point x="1068" y="-160"/>
      <point x="1109" y="-110" type="curve"/>
      <point x="1041" y="-63"/>
      <point x="996" y="16"/>
      <point x="996" y="105" type="curve" smooth="yes"/>
      <point x="996" y="250"/>
      <point x="1114" y="368"/>
      <point x="1259" y="368" type="curve" smooth="yes"/>
      <point x="1404" y="368"/>
      <point x="1522" y="250"/>
      <point x="1522" y="105" type="curve" smooth="yes"/>
      <point x="1522" y="-141"/>
      <point x="1279" y="-473"/>
      <point x="1127" y="-473" type="curve" smooth="yes"/>
      <point x="1040" y="-473"/>
      <point x="970" y="-402"/>
    </contour>
  </outline>
</glyph>
<glyph name="bullet" format="2">
  <advance width="1260"/>
  <unicode hex="2022"/>
  <outline>
    <contour>
      <point x="156" y="1338" type="curve" smooth="yes"/>
      <point x="156" y="1514"/>
      <point x="315" y="1654"/>
      <point x="472" y="1654" type="curve" smooth="yes"/>
      <point x="646" y="1654"/>
      <point x="788" y="1512"/>
      <point x="788" y="1338" type="curve" smooth="yes"/>
      <point x="788" y="1163"/>
      <point x="637" y="1022"/>
      <point x="472" y="1022" type="curve" smooth="yes"/>
      <point x="307" y="1022"/>
      <point x="156" y="1163"/>
    </contour>
  </outline>
</glyph>
<glyph name="ellipsis" format="2">
  <advance width="2834"/>
  <unicode hex="2026"/>
  <outline>
    <contour>
      <point x="156" y="105" type="curve" smooth="yes"/>
      <point x="156" y="250"/>
      <point x="274" y="368"/>
      <point x="419" y="368" type="curve" smooth="yes"/>
      <point x="564" y="368"/>
      <point x="682" y="250"/>
      <point x="682" y="105" type="curve" smooth="yes"/>
      <point x="682" y="-40"/>
      <point x="564" y="-158"/>
      <point x="419" y="-158" type="curve" smooth="yes"/>
      <point x="274" y="-158"/>
      <point x="156" y="-40"/>
    </contour>
    <contour>
      <point x="366" y="105" type="line"/>
      <point x="419" y="52" type="line"/>
      <point x="472" y="105" type="line"/>
      <point x="419" y="158" type="line"/>
    </contour>
    <contour>
      <point x="996" y="105" type="curve" smooth="yes"/>
      <point x="996" y="250"/>
      <point x="1114" y="368"/>
      <point x="1259" y="368" type="curve" smooth="yes"/>
      <point x="1404" y="368"/>
      <point x="1522" y="250"/>
      <point x="1522" y="105" type="curve" smooth="yes"/>
      <point x="1522" y="-40"/>
      <point x="1404" y="-158"/>
      <point x="1259" y="-158" type="curve" smooth="yes"/>
      <point x="1114" y="-158"/>
      <point x="996" y="-40"/>
    </contour>
    <contour>
      <point x="1206" y="105" type="line"/>
      <point x="1259" y="52" type="line"/>
      <point x="1312" y="105" type="line"/>
      <point x="1259" y="158" type="line"/>
    </contour>
    <contour>
      <point x="1836" y="105" type="curve" smooth="yes"/>
      <point x="1836" y="250"/>
      <point x="1954" y="368"/>
      <point x="2099" y="368" type="curve" smooth="yes"/>
      <point x="2244" y="368"/>
      <point x="2362" y="250"/>
      <point x="2362" y="105" type="curve" smooth="yes"/>
      <point x="2362" y="-40"/>
      <point x="2244" y="-158"/>
      <point x="2099" y="-158" type="curve" smooth="yes"/>
      <point x="1954" y="-158"/>
      <point x="1836" y="-40"/>
    </contour>
    <contour>
      <point x="2046" y="105" type="line"/>
      <point x="2099" y="52" type="line"/>
      <point x="2152" y="105" type="line"/>
      <point x="2099" y="158" type="line"/>
    </contour>
  </outline>
</glyph>
